<svg xmlns="http://www.w3.org/2000/svg" width="494.052" height="428.295" viewBox="0 0 494.052 428.295">
  <g id="Grupo_9999" data-name="Grupo 9999" transform="translate(-733.266 -111.501)">
    <path id="Trazado_9463" data-name="Trazado 9463" d="M794.047,201.212c-22.637-70.6-103.736-92.473-166.812-59.747q-5.772,2.244-11.232,4.972c-14.588,7.256-27.75,16.976-40.507,27.911-26.426,22.781-51.029,46.473-80.853,61.836-3.5,1.953-10.3,5.755-18.134,10.207-15.673,8.9-35.464,20.473-41.563,24.56q-2.361,1.583-4.817,3.013c-31.779,18.4-57.3,47.8-70.008,81.294l-.064.167a82.591,82.591,0,0,0-5.217,32.743c2.063,47.85,23.869,99.719,64.773,124.734a165.139,165.139,0,0,0,16.92,8.027A205.864,205.864,0,0,0,491.2,534.473a244.028,244.028,0,0,0,35.81,1.712,229.7,229.7,0,0,0,34.73-3.507c9.795-1.238,19.488-2.914,28.99-4.964,4.04-.671,8.024-1.33,11.882-1.977,31.2-7.855,60.361,5.814,89.52,16.748,31.893,12.757,69.253,10.024,101.9-1.027a94.047,94.047,0,0,0,16.008-8.69q.94-.636,1.864-1.292c32.384-23.029,44.958-65.132,31.7-102.6-10.462-29.568-26.589-68.534-30-87.391C809.383,318.169,813.878,255.824,794.047,201.212Z" transform="translate(378.503 -11.158)" fill="#522e77"/>
    <path id="Trazado_9186" data-name="Trazado 9186" d="M568.872,309.586a12.062,12.062,0,0,1,10.87,0L740.32,402.3c2.991,1.727,2.991,4.551,0,6.277L633.885,470.028a12.069,12.069,0,0,1-10.872,0L462.434,377.317c-2.989-1.726-2.989-4.551,0-6.276Z" transform="translate(366.978 -30.657)" fill="#e3def7"/>
    <path id="Trazado_9187" data-name="Trazado 9187" d="M742.564,410.933l0,6.2c.035,1.162-.713,2.332-2.241,3.213L633.885,481.8a12.057,12.057,0,0,1-10.872,0L462.434,389.088a3.811,3.811,0,0,1-2.241-3.135l0-6.15c0-.021,0-.042,0-.064a3.84,3.84,0,0,0,2.235,3.072l160.579,92.712a12.069,12.069,0,0,0,10.872,0L740.32,414.072a3.794,3.794,0,0,0,2.243-3.172Z" transform="translate(366.978 -36.152)" fill="#c5bdd6"/>
    <path id="Trazado_9188" data-name="Trazado 9188" d="M583.384,165.851c0-3.452,2.446-4.864,5.435-3.139L749.4,255.423a12.059,12.059,0,0,1,5.437,9.414l0,122.9c0,3.452-2.446,4.866-5.436,3.139L588.817,298.168a12.059,12.059,0,0,1-5.434-9.414Z" transform="translate(357.503 -19.404)" fill="#c5bdd6"/>
    <path id="Trazado_9189" data-name="Trazado 9189" d="M745.684,380.56c1.2.69,2.175.125,2.175-1.256V266.443a4.822,4.822,0,0,0-2.175-3.766L593.8,174.989c-1.2-.69-2.175-.126-2.175,1.255V289.1a4.822,4.822,0,0,0,2.174,3.766Z" transform="translate(356.869 -20.382)" fill="#f1edfc"/>
    <path id="Trazado_9190" data-name="Trazado 9190" d="M520.559,352.463a.662.662,0,0,0,0,1.254L669.548,439.74a2.423,2.423,0,0,0,2.178,0l59.5-34.057a.662.662,0,0,0,0-1.254L582.233,318.408a2.419,2.419,0,0,0-2.178,0Z" transform="translate(362.37 -31.415)" fill="#c5bdd6"/>
    <path id="Trazado_9191" data-name="Trazado 9191" d="M528.825,411.06a.663.663,0,0,0,0,1.255l49.688,28.69a2.417,2.417,0,0,0,2.174,0l36.158-20.876a.664.664,0,0,0,0-1.255l-49.692-28.689a2.408,2.408,0,0,0-2.174,0Z" transform="translate(361.734 -36.935)" fill="#d6d1ea"/>
    <path id="Trazado_9192" data-name="Trazado 9192" d="M754.978,387.532l0-122.9a12.059,12.059,0,0,0-5.437-9.414L588.963,162.5a3.883,3.883,0,0,0-3.711-.432c.017-.008.03-.02.047-.029l4.271-2.456a3.861,3.861,0,0,1,3.749.419L753.9,252.716a12.056,12.056,0,0,1,5.435,9.415v122.9a3.812,3.812,0,0,1-1.6,3.5l-4.33,2.485A3.827,3.827,0,0,0,754.978,387.532Z" transform="translate(357.36 -19.196)" fill="#e3def7"/>
    <g id="Grupo_9915" data-name="Grupo 9915" transform="translate(887.756 289.498)">
      <path id="Trazado_9193" data-name="Trazado 9193" d="M578.943,334.235a2.4,2.4,0,0,1-2.169,0l-6.6-3.812a.662.662,0,0,1,0-1.253l6.6-3.813a2.407,2.407,0,0,1,2.169,0l6.6,3.813a.662.662,0,0,1,0,1.253Z" transform="translate(-529.202 -321.447)" fill="#e3def7"/>
      <path id="Trazado_9194" data-name="Trazado 9194" d="M589.891,340.556a2.4,2.4,0,0,1-2.168,0l-6.6-3.813a.662.662,0,0,1,0-1.253l6.6-3.813a2.4,2.4,0,0,1,2.168,0l6.6,3.813a.662.662,0,0,1,0,1.253Z" transform="translate(-530.044 -321.933)" fill="#e3def7"/>
      <path id="Trazado_9195" data-name="Trazado 9195" d="M600.839,346.876a2.4,2.4,0,0,1-2.169,0l-6.6-3.813a.662.662,0,0,1,0-1.252l6.6-3.813a2.407,2.407,0,0,1,2.169,0l6.6,3.813a.661.661,0,0,1,0,1.252Z" transform="translate(-530.886 -322.42)" fill="#e3def7"/>
      <path id="Trazado_9196" data-name="Trazado 9196" d="M611.788,353.2a2.4,2.4,0,0,1-2.171,0l-6.6-3.812a.662.662,0,0,1,0-1.253l6.6-3.813a2.409,2.409,0,0,1,2.17,0l6.6,3.813a.662.662,0,0,1,0,1.253Z" transform="translate(-531.728 -322.906)" fill="#e3def7"/>
      <path id="Trazado_9197" data-name="Trazado 9197" d="M622.736,359.519a2.412,2.412,0,0,1-2.17,0L613.96,355.7a.662.662,0,0,1,0-1.252l6.606-3.813a2.409,2.409,0,0,1,2.17,0l6.6,3.813a.662.662,0,0,1,0,1.252Z" transform="translate(-532.57 -323.392)" fill="#e3def7"/>
      <path id="Trazado_9198" data-name="Trazado 9198" d="M633.683,365.84a2.41,2.41,0,0,1-2.169,0l-6.6-3.812a.662.662,0,0,1,0-1.253l6.6-3.812a2.4,2.4,0,0,1,2.168,0l6.6,3.811a.662.662,0,0,1,0,1.254Z" transform="translate(-533.412 -323.878)" fill="#e3def7"/>
      <path id="Trazado_9199" data-name="Trazado 9199" d="M644.631,372.161a2.41,2.41,0,0,1-2.169,0l-6.6-3.813a.661.661,0,0,1,0-1.252l6.6-3.813a2.407,2.407,0,0,1,2.169,0l6.6,3.813a.661.661,0,0,1,0,1.252Z" transform="translate(-534.254 -324.364)" fill="#e3def7"/>
      <path id="Trazado_9200" data-name="Trazado 9200" d="M655.578,378.481a2.4,2.4,0,0,1-2.168,0l-6.6-3.813a.662.662,0,0,1,0-1.252l6.606-3.813a2.4,2.4,0,0,1,2.167,0l6.6,3.813a.661.661,0,0,1,0,1.252Z" transform="translate(-535.096 -324.85)" fill="#e3def7"/>
      <path id="Trazado_9201" data-name="Trazado 9201" d="M666.527,384.8a2.407,2.407,0,0,1-2.169,0l-6.6-3.813a.662.662,0,0,1,0-1.253l6.606-3.812a2.4,2.4,0,0,1,2.168,0l6.6,3.812a.662.662,0,0,1,0,1.253Z" transform="translate(-535.938 -325.336)" fill="#e3def7"/>
      <path id="Trazado_9202" data-name="Trazado 9202" d="M677.475,391.123a2.409,2.409,0,0,1-2.17,0l-6.6-3.812a.663.663,0,0,1,0-1.253l6.6-3.813a2.409,2.409,0,0,1,2.17,0l6.6,3.813a.662.662,0,0,1,0,1.253Z" transform="translate(-536.78 -325.822)" fill="#e3def7"/>
      <path id="Trazado_9203" data-name="Trazado 9203" d="M688.422,397.444a2.407,2.407,0,0,1-2.169,0l-6.6-3.812a.662.662,0,0,1,0-1.254l6.6-3.812a2.4,2.4,0,0,1,2.169,0l6.6,3.812a.662.662,0,0,1,0,1.253Z" transform="translate(-537.622 -326.309)" fill="#e3def7"/>
      <path id="Trazado_9204" data-name="Trazado 9204" d="M699.372,403.765a2.406,2.406,0,0,1-2.17,0l-6.6-3.812a.661.661,0,0,1,0-1.252l6.606-3.813a2.4,2.4,0,0,1,2.17,0l6.6,3.812a.662.662,0,0,1,0,1.253Z" transform="translate(-538.464 -326.795)" fill="#e3def7"/>
      <path id="Trazado_9205" data-name="Trazado 9205" d="M710.319,410.086a2.406,2.406,0,0,1-2.17,0l-6.6-3.812a.662.662,0,0,1,0-1.252l6.6-3.814a2.409,2.409,0,0,1,2.17,0l6.6,3.814a.662.662,0,0,1,0,1.253Z" transform="translate(-539.306 -327.281)" fill="#e3def7"/>
      <path id="Trazado_9206" data-name="Trazado 9206" d="M590.081,328.345a2.407,2.407,0,0,1-2.169,0l-6.92-4a.661.661,0,0,1,0-1.252l2.935-1.7a2.4,2.4,0,0,1,2.168,0l6.92,4a.662.662,0,0,1,0,1.253Z" transform="translate(-530.035 -321.143)" fill="#e3def7"/>
      <path id="Trazado_9207" data-name="Trazado 9207" d="M601.423,334.893a2.4,2.4,0,0,1-2.168,0l-6.921-4a.662.662,0,0,1,0-1.253l2.936-1.695a2.407,2.407,0,0,1,2.169,0l6.921,4a.662.662,0,0,1,0,1.253Z" transform="translate(-530.907 -321.647)" fill="#e3def7"/>
      <path id="Trazado_9208" data-name="Trazado 9208" d="M612.768,341.442a2.4,2.4,0,0,1-2.171,0l-6.919-4a.662.662,0,0,1,0-1.253l2.936-1.7a2.4,2.4,0,0,1,2.168,0l6.92,4a.662.662,0,0,1,0,1.253Z" transform="translate(-531.779 -322.15)" fill="#e3def7"/>
      <path id="Trazado_9209" data-name="Trazado 9209" d="M624.11,347.991a2.409,2.409,0,0,1-2.17,0l-6.92-4a.662.662,0,0,1,0-1.253l2.936-1.7a2.406,2.406,0,0,1,2.17,0l6.919,4a.662.662,0,0,1,0,1.253Z" transform="translate(-532.652 -322.654)" fill="#e3def7"/>
      <path id="Trazado_9210" data-name="Trazado 9210" d="M635.451,354.54a2.4,2.4,0,0,1-2.168,0l-6.921-4a.662.662,0,0,1,0-1.253L629.3,347.6a2.41,2.41,0,0,1,2.169,0l6.92,4a.661.661,0,0,1,0,1.252Z" transform="translate(-533.524 -323.158)" fill="#e3def7"/>
      <path id="Trazado_9211" data-name="Trazado 9211" d="M646.8,361.089a2.409,2.409,0,0,1-2.17,0l-6.919-4a.661.661,0,0,1,0-1.253l2.936-1.695a2.4,2.4,0,0,1,2.168,0l6.921,4a.663.663,0,0,1,0,1.253Z" transform="translate(-534.396 -323.661)" fill="#e3def7"/>
      <path id="Trazado_9212" data-name="Trazado 9212" d="M658.136,367.638a2.4,2.4,0,0,1-2.168,0l-6.92-4a.662.662,0,0,1,0-1.253l2.935-1.695a2.409,2.409,0,0,1,2.17,0l6.919,4a.661.661,0,0,1,0,1.252Z" transform="translate(-535.269 -324.165)" fill="#e3def7"/>
      <path id="Trazado_9213" data-name="Trazado 9213" d="M669.479,374.187a2.409,2.409,0,0,1-2.17,0l-6.918-4a.661.661,0,0,1,0-1.253l2.935-1.695a2.407,2.407,0,0,1,2.169,0l6.919,4a.662.662,0,0,1,0,1.253Z" transform="translate(-536.141 -324.669)" fill="#e3def7"/>
      <path id="Trazado_9214" data-name="Trazado 9214" d="M680.822,380.735a2.4,2.4,0,0,1-2.168,0l-6.921-4a.662.662,0,0,1,0-1.253l2.936-1.695a2.4,2.4,0,0,1,2.168,0l6.92,4a.662.662,0,0,1,0,1.253Z" transform="translate(-537.013 -325.172)" fill="#e3def7"/>
      <path id="Trazado_9215" data-name="Trazado 9215" d="M692.164,387.284a2.4,2.4,0,0,1-2.168,0l-6.921-4a.662.662,0,0,1,0-1.253l2.937-1.7a2.407,2.407,0,0,1,2.169,0l6.919,4a.661.661,0,0,1,0,1.252Z" transform="translate(-537.886 -325.676)" fill="#e3def7"/>
      <path id="Trazado_9216" data-name="Trazado 9216" d="M703.507,393.833a2.407,2.407,0,0,1-2.169,0l-6.92-4a.662.662,0,0,1,0-1.253l2.936-1.695a2.4,2.4,0,0,1,2.169,0l6.92,3.994a.662.662,0,0,1,0,1.253Z" transform="translate(-538.758 -326.18)" fill="#e3def7"/>
      <path id="Trazado_9217" data-name="Trazado 9217" d="M714.851,400.381a2.4,2.4,0,0,1-2.17,0l-6.92-4a.662.662,0,0,1,0-1.253l2.935-1.695a2.409,2.409,0,0,1,2.17,0l6.92,4a.662.662,0,0,1,0,1.253Z" transform="translate(-539.63 -326.683)" fill="#e3def7"/>
      <path id="Trazado_9218" data-name="Trazado 9218" d="M726.194,406.93a2.411,2.411,0,0,1-2.171,0l-6.92-4a.662.662,0,0,1,0-1.253l2.936-1.695a2.407,2.407,0,0,1,2.169,0l6.919,4a.662.662,0,0,1,0,1.253Z" transform="translate(-540.503 -327.187)" fill="#e3def7"/>
      <path id="Trazado_9219" data-name="Trazado 9219" d="M737.565,413.5a2.4,2.4,0,0,1-2.169,0l-6.92-4a.662.662,0,0,1,0-1.254l2.935-1.695a2.407,2.407,0,0,1,2.169,0l6.921,4a.662.662,0,0,1,0,1.252Z" transform="translate(-541.377 -327.692)" fill="#e3def7"/>
      <path id="Trazado_9220" data-name="Trazado 9220" d="M726.349,419.341a2.407,2.407,0,0,1-2.169,0l-11.658-6.729a.663.663,0,0,1,0-1.254l6.6-3.812a2.4,2.4,0,0,1,2.171,0l11.657,6.73a.662.662,0,0,1,0,1.253Z" transform="translate(-540.15 -327.768)" fill="#e3def7"/>
      <path id="Trazado_9221" data-name="Trazado 9221" d="M535.048,359.579a2.409,2.409,0,0,1-2.17,0l-6.6-3.813a.662.662,0,0,1,0-1.253l6.6-3.813a2.407,2.407,0,0,1,2.169,0l6.6,3.813a.662.662,0,0,1,0,1.253Z" transform="translate(-525.827 -323.396)" fill="#e3def7"/>
      <path id="Trazado_9222" data-name="Trazado 9222" d="M545.995,365.9a2.4,2.4,0,0,1-2.168,0l-6.6-3.812a.662.662,0,0,1,0-1.253l6.6-3.813a2.411,2.411,0,0,1,2.168,0l6.6,3.813a.662.662,0,0,1,0,1.253Z" transform="translate(-526.669 -323.883)" fill="#e3def7"/>
      <path id="Trazado_9223" data-name="Trazado 9223" d="M556.944,372.22a2.4,2.4,0,0,1-2.17,0l-6.6-3.812a.662.662,0,0,1,0-1.253l6.6-3.812a2.4,2.4,0,0,1,2.168,0l6.6,3.812a.662.662,0,0,1,0,1.253Z" transform="translate(-527.51 -324.369)" fill="#e3def7"/>
      <path id="Trazado_9224" data-name="Trazado 9224" d="M677.5,435.633a2.407,2.407,0,0,1-2.169,0l-6.6-3.813a.661.661,0,0,1,0-1.252l1.557-.9a2.407,2.407,0,0,1,2.169,0l6.6,3.813a.662.662,0,0,1,0,1.253Z" transform="translate(-536.782 -329.47)" fill="#e3def7"/>
      <path id="Trazado_9225" data-name="Trazado 9225" d="M660.978,432.529a2.4,2.4,0,0,1-2.168,0l-6.6-3.812a.662.662,0,0,1,0-1.253l1.555-.9a2.4,2.4,0,0,1,2.171,0l6.6,3.812a.662.662,0,0,1,0,1.253Z" transform="translate(-535.511 -329.231)" fill="#e3def7"/>
      <path id="Trazado_9226" data-name="Trazado 9226" d="M671.926,438.85a2.409,2.409,0,0,1-2.17,0l-6.6-3.813a.661.661,0,0,1,0-1.252l1.555-.9a2.4,2.4,0,0,1,2.17,0l6.6,3.812a.662.662,0,0,1,0,1.253Z" transform="translate(-536.353 -329.717)" fill="#e3def7"/>
      <path id="Trazado_9227" data-name="Trazado 9227" d="M682.874,445.171a2.4,2.4,0,0,1-2.17,0l-6.6-3.813a.662.662,0,0,1,0-1.252l1.557-.9a2.407,2.407,0,0,1,2.169,0l6.6,3.813a.662.662,0,0,1,0,1.253Z" transform="translate(-537.195 -330.203)" fill="#e3def7"/>
      <path id="Trazado_9228" data-name="Trazado 9228" d="M567.892,378.541a2.409,2.409,0,0,1-2.17,0l-6.6-3.813a.661.661,0,0,1,0-1.252l6.6-3.813a2.407,2.407,0,0,1,2.169,0l6.6,3.813a.662.662,0,0,1,0,1.252Z" transform="translate(-528.352 -324.855)" fill="#e3def7"/>
      <path id="Trazado_9229" data-name="Trazado 9229" d="M624.357,411.142a2.4,2.4,0,0,1-2.171,0l-52.121-30.093a.662.662,0,0,1,0-1.253l6.6-3.813a2.407,2.407,0,0,1,2.169,0l52.122,30.094a.662.662,0,0,1,0,1.252Z" transform="translate(-529.194 -325.341)" fill="#e3def7"/>
      <path id="Trazado_9230" data-name="Trazado 9230" d="M639.068,419.636a2.4,2.4,0,0,1-2.17,0l-6.6-3.813a.662.662,0,0,1,0-1.252l6.6-3.813a2.4,2.4,0,0,1,2.17,0l6.6,3.813a.661.661,0,0,1,0,1.252Z" transform="translate(-533.826 -328.015)" fill="#e3def7"/>
      <path id="Trazado_9231" data-name="Trazado 9231" d="M650.015,425.957a2.4,2.4,0,0,1-2.168,0l-6.6-3.813a.662.662,0,0,1,0-1.253l6.6-3.812a2.4,2.4,0,0,1,2.168,0l6.6,3.811a.662.662,0,0,1,0,1.253Z" transform="translate(-534.668 -328.501)" fill="#e3def7"/>
      <path id="Trazado_9232" data-name="Trazado 9232" d="M584.445,350.054a2.4,2.4,0,0,1-2.168,0l-6.6-3.814a.662.662,0,0,1,0-1.252l6.6-3.813a2.4,2.4,0,0,1,2.168,0l6.6,3.813a.661.661,0,0,1,0,1.252Z" transform="translate(-529.626 -322.664)" fill="#e3def7"/>
      <path id="Trazado_9233" data-name="Trazado 9233" d="M573.049,343.473a2.409,2.409,0,0,1-2.17,0l-11.657-6.73a.662.662,0,0,1,0-1.253l6.6-3.813a2.4,2.4,0,0,1,2.168,0l11.659,6.73a.663.663,0,0,1,0,1.253Z" transform="translate(-528.36 -321.933)" fill="#e3def7"/>
      <path id="Trazado_9234" data-name="Trazado 9234" d="M595.394,356.375a2.413,2.413,0,0,1-2.169,0l-6.6-3.813a.662.662,0,0,1,0-1.253l6.6-3.812a2.4,2.4,0,0,1,2.169,0l6.6,3.812a.662.662,0,0,1,0,1.253Z" transform="translate(-530.468 -323.15)" fill="#e3def7"/>
      <path id="Trazado_9235" data-name="Trazado 9235" d="M606.342,362.7a2.412,2.412,0,0,1-2.17,0l-6.6-3.813a.662.662,0,0,1,0-1.252l6.6-3.813a2.409,2.409,0,0,1,2.17,0l6.6,3.813a.662.662,0,0,1,0,1.252Z" transform="translate(-531.31 -323.636)" fill="#e3def7"/>
      <path id="Trazado_9236" data-name="Trazado 9236" d="M617.29,369.017a2.4,2.4,0,0,1-2.169,0l-6.6-3.812a.662.662,0,0,1,0-1.253l6.6-3.813a2.407,2.407,0,0,1,2.169,0l6.6,3.813a.662.662,0,0,1,0,1.253Z" transform="translate(-532.152 -324.122)" fill="#e3def7"/>
      <path id="Trazado_9237" data-name="Trazado 9237" d="M628.238,375.338a2.41,2.41,0,0,1-2.169,0l-6.6-3.812a.662.662,0,0,1,0-1.253l6.6-3.813a2.407,2.407,0,0,1,2.169,0l6.6,3.813a.662.662,0,0,1,0,1.253Z" transform="translate(-532.993 -324.608)" fill="#e3def7"/>
      <path id="Trazado_9238" data-name="Trazado 9238" d="M639.186,381.658a2.4,2.4,0,0,1-2.168,0l-6.6-3.812a.662.662,0,0,1,0-1.253l6.6-3.813a2.4,2.4,0,0,1,2.168,0l6.6,3.813a.662.662,0,0,1,0,1.253Z" transform="translate(-533.835 -325.095)" fill="#e3def7"/>
      <path id="Trazado_9239" data-name="Trazado 9239" d="M650.135,387.98a2.409,2.409,0,0,1-2.17,0l-6.6-3.813a.662.662,0,0,1,0-1.253l6.606-3.812a2.4,2.4,0,0,1,2.169,0l6.6,3.812a.662.662,0,0,1,0,1.253Z" transform="translate(-534.677 -325.581)" fill="#e3def7"/>
      <path id="Trazado_9240" data-name="Trazado 9240" d="M661.082,394.3a2.407,2.407,0,0,1-2.169,0l-6.6-3.813a.662.662,0,0,1,0-1.253l6.6-3.812a2.409,2.409,0,0,1,2.17,0l6.6,3.812a.662.662,0,0,1,0,1.253Z" transform="translate(-535.519 -326.067)" fill="#e3def7"/>
      <path id="Trazado_9241" data-name="Trazado 9241" d="M672.031,400.622a2.407,2.407,0,0,1-2.169,0l-6.6-3.813a.662.662,0,0,1,0-1.253l6.6-3.812a2.4,2.4,0,0,1,2.169,0l6.6,3.812a.662.662,0,0,1,0,1.253Z" transform="translate(-536.361 -326.553)" fill="#e3def7"/>
      <path id="Trazado_9242" data-name="Trazado 9242" d="M682.979,406.942a2.409,2.409,0,0,1-2.17,0l-6.6-3.812a.662.662,0,0,1,0-1.253l6.6-3.812a2.4,2.4,0,0,1,2.17,0l6.6,3.812a.662.662,0,0,1,0,1.253Z" transform="translate(-537.203 -327.039)" fill="#e3def7"/>
      <path id="Trazado_9243" data-name="Trazado 9243" d="M693.926,413.263a2.4,2.4,0,0,1-2.17,0l-6.6-3.812a.662.662,0,0,1,0-1.252l6.6-3.814a2.409,2.409,0,0,1,2.17,0l6.6,3.813a.663.663,0,0,1,0,1.253Z" transform="translate(-538.045 -327.525)" fill="#e3def7"/>
      <path id="Trazado_9244" data-name="Trazado 9244" d="M704.874,419.584a2.407,2.407,0,0,1-2.169,0l-6.6-3.812a.661.661,0,0,1,0-1.252l6.6-3.814a2.407,2.407,0,0,1,2.169,0l6.6,3.813a.662.662,0,0,1,0,1.253Z" transform="translate(-538.887 -328.011)" fill="#e3def7"/>
      <path id="Trazado_9245" data-name="Trazado 9245" d="M715.822,425.9a2.407,2.407,0,0,1-2.169,0l-6.6-3.812a.662.662,0,0,1,0-1.253l6.6-3.813a2.409,2.409,0,0,1,2.17,0l6.6,3.813a.662.662,0,0,1,0,1.253Z" transform="translate(-539.729 -328.497)" fill="#e3def7"/>
      <path id="Trazado_9246" data-name="Trazado 9246" d="M576.072,357.861a2.407,2.407,0,0,1-2.169,0l-6.6-3.813a.662.662,0,0,1,0-1.253l6.6-3.813a2.407,2.407,0,0,1,2.169,0l6.6,3.813a.662.662,0,0,1,0,1.253Z" transform="translate(-528.982 -323.264)" fill="#e3def7"/>
      <path id="Trazado_9247" data-name="Trazado 9247" d="M564.5,351.18a2.4,2.4,0,0,1-2.168,0l-14.06-8.118a.661.661,0,0,1,0-1.252l6.6-3.813a2.4,2.4,0,0,1,2.168,0l14.061,8.118a.663.663,0,0,1,0,1.253Z" transform="translate(-527.518 -322.42)" fill="#e3def7"/>
      <path id="Trazado_9248" data-name="Trazado 9248" d="M587.02,364.182a2.409,2.409,0,0,1-2.17,0l-6.6-3.813a.662.662,0,0,1,0-1.253l6.6-3.812a2.4,2.4,0,0,1,2.171,0l6.6,3.812a.662.662,0,0,1,0,1.253Z" transform="translate(-529.824 -323.75)" fill="#e3def7"/>
      <path id="Trazado_9249" data-name="Trazado 9249" d="M597.967,370.5a2.409,2.409,0,0,1-2.167,0l-6.606-3.813a.662.662,0,0,1,0-1.253l6.606-3.812a2.4,2.4,0,0,1,2.167,0l6.6,3.812a.662.662,0,0,1,0,1.253Z" transform="translate(-530.665 -324.237)" fill="#e3def7"/>
      <path id="Trazado_9250" data-name="Trazado 9250" d="M608.915,376.823a2.4,2.4,0,0,1-2.168,0l-6.6-3.813a.661.661,0,0,1,0-1.252l6.6-3.813a2.4,2.4,0,0,1,2.168,0l6.606,3.813a.662.662,0,0,1,0,1.252Z" transform="translate(-531.507 -324.723)" fill="#e3def7"/>
      <path id="Trazado_9251" data-name="Trazado 9251" d="M619.865,383.145a2.409,2.409,0,0,1-2.17,0l-6.6-3.813a.663.663,0,0,1,0-1.254l6.6-3.812a2.406,2.406,0,0,1,2.17,0l6.6,3.811a.663.663,0,0,1,0,1.254Z" transform="translate(-532.35 -325.209)" fill="#e3def7"/>
      <path id="Trazado_9252" data-name="Trazado 9252" d="M630.812,389.465a2.4,2.4,0,0,1-2.169,0l-6.6-3.813a.661.661,0,0,1,0-1.252l6.6-3.813a2.409,2.409,0,0,1,2.17,0l6.6,3.813a.662.662,0,0,1,0,1.252Z" transform="translate(-533.192 -325.695)" fill="#e3def7"/>
      <path id="Trazado_9253" data-name="Trazado 9253" d="M641.761,395.787a2.407,2.407,0,0,1-2.169,0l-6.6-3.813a.662.662,0,0,1,0-1.252l6.6-3.813a2.407,2.407,0,0,1,2.169,0l6.6,3.813a.662.662,0,0,1,0,1.252Z" transform="translate(-534.033 -326.181)" fill="#e3def7"/>
      <path id="Trazado_9254" data-name="Trazado 9254" d="M652.708,402.108a2.4,2.4,0,0,1-2.168,0l-6.6-3.813a.661.661,0,0,1,0-1.252l6.6-3.813a2.4,2.4,0,0,1,2.167,0l6.606,3.813a.661.661,0,0,1,0,1.252Z" transform="translate(-534.875 -326.667)" fill="#e3def7"/>
      <path id="Trazado_9255" data-name="Trazado 9255" d="M663.657,408.429a2.409,2.409,0,0,1-2.17,0l-6.6-3.813a.661.661,0,0,1,0-1.252l6.6-3.813a2.409,2.409,0,0,1,2.17,0l6.6,3.813a.661.661,0,0,1,0,1.252Z" transform="translate(-535.717 -327.153)" fill="#e3def7"/>
      <path id="Trazado_9256" data-name="Trazado 9256" d="M674.6,414.75a2.4,2.4,0,0,1-2.168,0l-6.6-3.813a.662.662,0,0,1,0-1.253l6.6-3.812a2.4,2.4,0,0,1,2.168,0l6.6,3.812a.662.662,0,0,1,0,1.253Z" transform="translate(-536.559 -327.639)" fill="#e3def7"/>
      <path id="Trazado_9257" data-name="Trazado 9257" d="M685.552,421.071a2.4,2.4,0,0,1-2.168,0l-6.6-3.813a.662.662,0,0,1,0-1.253l6.6-3.812a2.4,2.4,0,0,1,2.168,0l6.6,3.812a.662.662,0,0,1,0,1.253Z" transform="translate(-537.401 -328.126)" fill="#e3def7"/>
      <path id="Trazado_9258" data-name="Trazado 9258" d="M704.23,431.854a2.407,2.407,0,0,1-2.169,0l-14.334-8.276a.662.662,0,0,1,0-1.253l6.6-3.813a2.409,2.409,0,0,1,2.17,0l14.334,8.276a.662.662,0,0,1,0,1.253Z" transform="translate(-538.243 -328.612)" fill="#e3def7"/>
      <path id="Trazado_9259" data-name="Trazado 9259" d="M570.7,367.4a2.4,2.4,0,0,1-2.167,0l-6.6-3.813a.662.662,0,0,1,0-1.253l6.6-3.813a2.411,2.411,0,0,1,2.168,0l6.6,3.813a.662.662,0,0,1,0,1.253Z" transform="translate(-528.569 -323.998)" fill="#e3def7"/>
      <path id="Trazado_9260" data-name="Trazado 9260" d="M558.687,360.465a2.407,2.407,0,0,1-2.169,0l-19.192-11.081a.662.662,0,0,1,0-1.253l6.606-3.813a2.4,2.4,0,0,1,2.168,0L565.292,355.4a.662.662,0,0,1,0,1.253Z" transform="translate(-526.677 -322.906)" fill="#e3def7"/>
      <path id="Trazado_9261" data-name="Trazado 9261" d="M581.654,373.726a2.407,2.407,0,0,1-2.169,0l-6.6-3.813a.662.662,0,0,1,0-1.253l6.6-3.813a2.413,2.413,0,0,1,2.169,0l6.606,3.813a.662.662,0,0,1,0,1.252Z" transform="translate(-529.411 -324.484)" fill="#e3def7"/>
      <path id="Trazado_9262" data-name="Trazado 9262" d="M592.6,380.047a2.4,2.4,0,0,1-2.168,0l-6.6-3.813a.662.662,0,0,1,0-1.253l6.6-3.813a2.407,2.407,0,0,1,2.169,0l6.6,3.813a.661.661,0,0,1,0,1.252Z" transform="translate(-530.253 -324.971)" fill="#e3def7"/>
      <path id="Trazado_9263" data-name="Trazado 9263" d="M603.55,386.367a2.4,2.4,0,0,1-2.168,0l-6.6-3.812a.662.662,0,0,1,0-1.253l6.6-3.812a2.4,2.4,0,0,1,2.168,0l6.6,3.812a.662.662,0,0,1,0,1.253Z" transform="translate(-531.095 -325.457)" fill="#e3def7"/>
      <path id="Trazado_9264" data-name="Trazado 9264" d="M614.5,392.689a2.4,2.4,0,0,1-2.169,0l-6.6-3.813a.661.661,0,0,1,0-1.252l6.6-3.812a2.4,2.4,0,0,1,2.169,0l6.6,3.812a.662.662,0,0,1,0,1.252Z" transform="translate(-531.937 -325.943)" fill="#e3def7"/>
      <path id="Trazado_9265" data-name="Trazado 9265" d="M625.447,399.01a2.4,2.4,0,0,1-2.169,0l-6.6-3.812a.662.662,0,0,1,0-1.253l6.6-3.812a2.4,2.4,0,0,1,2.169,0l6.6,3.812a.662.662,0,0,1,0,1.253Z" transform="translate(-532.779 -326.429)" fill="#e3def7"/>
      <path id="Trazado_9266" data-name="Trazado 9266" d="M636.4,405.331a2.409,2.409,0,0,1-2.17,0l-6.6-3.813a.662.662,0,0,1,0-1.252l6.6-3.813a2.4,2.4,0,0,1,2.17,0l6.6,3.813a.662.662,0,0,1,0,1.252Z" transform="translate(-533.621 -326.915)" fill="#e3def7"/>
      <path id="Trazado_9267" data-name="Trazado 9267" d="M647.344,411.652a2.406,2.406,0,0,1-2.17,0l-6.6-3.812a.663.663,0,0,1,0-1.253l6.6-3.812a2.409,2.409,0,0,1,2.17,0l6.6,3.812a.662.662,0,0,1,0,1.253Z" transform="translate(-534.463 -327.401)" fill="#e3def7"/>
      <path id="Trazado_9268" data-name="Trazado 9268" d="M658.291,417.973a2.4,2.4,0,0,1-2.168,0l-6.6-3.812a.662.662,0,0,1,0-1.253l6.6-3.812a2.4,2.4,0,0,1,2.168,0l6.6,3.812a.662.662,0,0,1,0,1.253Z" transform="translate(-535.305 -327.887)" fill="#e3def7"/>
      <path id="Trazado_9269" data-name="Trazado 9269" d="M669.239,424.293a2.4,2.4,0,0,1-2.169,0l-6.6-3.812a.661.661,0,0,1,0-1.252l6.6-3.813a2.407,2.407,0,0,1,2.169,0l6.6,3.813a.661.661,0,0,1,0,1.252Z" transform="translate(-536.147 -328.373)" fill="#e3def7"/>
      <path id="Trazado_9270" data-name="Trazado 9270" d="M692.869,437.937a2.4,2.4,0,0,1-2.169,0L671.413,426.8a.662.662,0,0,1,0-1.253l6.606-3.812a2.4,2.4,0,0,1,2.168,0l19.287,11.134a.663.663,0,0,1,0,1.254Z" transform="translate(-536.989 -328.86)" fill="#e3def7"/>
    </g>
    <path id="Trazado_9271" data-name="Trazado 9271" d="M558.252,320.021l9.87,5.674,23.613-13.835-9.622-5.555Z" transform="translate(359.436 -30.504)" opacity="0.15" style="mix-blend-mode: multiply;isolation: isolate"/>
    <path id="Trazado_9272" data-name="Trazado 9272" d="M827.844,436.767l-70.531-40.719V273.888l70.531,40.72Z" transform="translate(344.127 -28.011)" opacity="0.1" style="mix-blend-mode: multiply;isolation: isolate"/>
    <path id="Trazado_9273" data-name="Trazado 9273" d="M748.087,390.768l-70.53-40.72,0-122.16,70.53,40.72Z" transform="translate(350.261 -24.474)" opacity="0.1" style="mix-blend-mode: multiply;isolation: isolate"/>
    <path id="Trazado_9274" data-name="Trazado 9274" d="M588.618,298.764l-70.53-40.72,0-122.16,70.53,40.72Z" transform="translate(362.525 -17.398)" opacity="0.1" style="mix-blend-mode: multiply;isolation: isolate"/>
    <path id="Trazado_9275" data-name="Trazado 9275" d="M668.375,344.639l-70.529-40.72V181.759l70.531,40.72Z" transform="translate(356.391 -20.926)" opacity="0.1" style="mix-blend-mode: multiply;isolation: isolate"/>
    <path id="Trazado_9276" data-name="Trazado 9276" d="M767.053,412.958l-11.662-6.733-23.077,14.32,10.823,6.221Z" transform="translate(346.05 -38.188)" opacity="0.15" style="mix-blend-mode: multiply;isolation: isolate"/>
    <path id="Trazado_9277" data-name="Trazado 9277" d="M746.166,401l-70.531-40.719L652.559,374.6l69.994,40.235Z" transform="translate(352.183 -34.655)" opacity="0.15" style="mix-blend-mode: multiply;isolation: isolate"/>
    <path id="Trazado_9278" data-name="Trazado 9278" d="M666.454,354.649,595.924,313.93l-23.076,14.319,69.994,40.235Z" transform="translate(358.314 -31.091)" opacity="0.15" style="mix-blend-mode: multiply;isolation: isolate"/>
    <g id="Grupo_9918" data-name="Grupo 9918" transform="translate(1086.644 254.479)">
      <path id="Trazado_9279" data-name="Trazado 9279" d="M811.815,446.086l-70.531-40.719V283.207l70.531,40.72Z" transform="translate(-741.284 -283.207)" fill="#fbfbfb"/>
      <g id="Grupo_9916" data-name="Grupo 9916" transform="translate(13.707 25.286)">
        <path id="Trazado_9280" data-name="Trazado 9280" d="M799.962,351.547c0-13.974-9.812-30.968-21.913-37.955s-21.914-1.323-21.914,12.652,9.811,30.968,21.913,37.955S799.962,365.521,799.962,351.547Z" transform="translate(-756.134 -310.599)" fill="#77d2ff"/>
        <path id="Trazado_9281" data-name="Trazado 9281" d="M787.18,351.59c.106-3.239.485-11.086.3-12.475s-1.252-7.8-1.728-8.54-4.61-5.569-7.051-6.35-5.145.368-5.851,1.455-3.259,4.747-3.243,5.743.05,9.03,0,10.22a27.684,27.684,0,0,1-.594,3.546l-2.9,3.438a32.672,32.672,0,0,0,6.473,5.079c4.764,3.093,18.7,9.3,18.7,9.3S787.075,354.83,787.18,351.59Z" transform="translate(-756.902 -311.627)" fill="#951578"/>
        <path id="Trazado_9282" data-name="Trazado 9282" d="M785.095,357.308c-1.556-2.557-.581-8.305-.581-8.305l-11.169-6.448s.978,6.875-.58,7.634-7.778-.222-7.778-.222v3.453l27.57,15.918v-3.454S786.651,359.864,785.095,357.308Z" transform="translate(-756.815 -313.057)" fill="#d8a681"/>
        <path id="Trazado_9283" data-name="Trazado 9283" d="M779.146,348.568c1.693.978,3,.567,4.533.177s2.6-1.54,3.4-5.148.306-5.271.55-6.438a20.305,20.305,0,0,0-1.868-12.188,17.265,17.265,0,0,0-6.617-7c-1.23-.709-4.243-2.29-6.619-.637-2.766,1.927-2.114,8.579-1.868,10.029s-.246,2.547.55,7.076,1.869,6.916,3.4,9.075S777.447,347.588,779.146,348.568Z" transform="translate(-757.232 -311.061)" fill="#ffcca7"/>
        <path id="Trazado_9284" data-name="Trazado 9284" d="M787.68,343.951c-1.122.8-2.179,1.372-2.674,2.764a44.448,44.448,0,0,1-1.357,4.3c.342-.077.69-.169,1.049-.259,1.532-.39,2.6-1.54,3.4-5.148a20.183,20.183,0,0,0,.429-2.844A3.243,3.243,0,0,1,787.68,343.951Z" transform="translate(-758.25 -313.073)" fill="#d8a681" opacity="0.2"/>
        <path id="Trazado_9285" data-name="Trazado 9285" d="M781.6,322.814l-8.522-5.768a3.9,3.9,0,0,0-.55.319c-2.766,1.927-2.114,8.579-1.868,10.029s-.246,2.547.55,7.076,1.869,6.916,3.4,9.075c1.458,2.053,2.71,3.892,4.292,4.909a52.634,52.634,0,0,1-.22-7.655,20.742,20.742,0,0,0-.516-3.349c-.155-.661.558-2.292.515-4.264,1.7.024,5-.21,6.625-2.245C787.561,328.128,781.6,322.814,781.6,322.814Z" transform="translate(-757.232 -311.095)" fill="#d8a681" opacity="0.4"/>
        <path id="Trazado_9286" data-name="Trazado 9286" d="M771.594,334.447a12.313,12.313,0,0,1-.765-1.909c.065.821.187,1.833.413,3.123.8,4.529,1.869,6.916,3.4,9.075.329.461.645.91.957,1.344-.657-2.263-.986-4.414-1.331-5.781A26.81,26.81,0,0,0,771.594,334.447Z" transform="translate(-757.264 -312.286)" fill="#d8a681" opacity="0.2"/>
        <path id="Trazado_9287" data-name="Trazado 9287" d="M786.666,360.013c-.963.846-3.3,1.872-8.1-.9a22.005,22.005,0,0,1-8.319-8.377,66.985,66.985,0,0,1-7.434-.282c3.984,7.057,9.565,13.241,15.749,16.81s11.79,3.831,15.776,1.357C793.176,367.378,788.589,362.44,786.666,360.013Z" transform="translate(-756.648 -313.664)" fill="#fe61ca"/>
        <path id="Trazado_9288" data-name="Trazado 9288" d="M766.115,348c5.287-.323,6.261-5.226,5.143-10.261s1.217-8.093,2.93-7.508c9.03,3.079,9.916-1.3,9.916-1.3-.653,3.729-5.251,3.317-5.251,3.317s5.505.667,6.249-1.686c-.659,1.627.531,4.688,1.208,6.289.838,1.973.734,6.564-.6,9.828s2.321,11.855,5.577,15.706c0,0-2.818-9.763-2.253-16.526s1.583-8.322-1.49-17.7c-1.446-4.406-4.711-8.962-8.569-11.19s-8.416-1.318-9.868,3.2c-2.577,8.013-.574,13.784-.574,18.7C768.537,341.428,767.037,347.056,766.115,348Z" transform="translate(-756.902 -310.999)" fill="#c747aa"/>
      </g>
      <path id="Trazado_9289" data-name="Trazado 9289" d="M806.862,408.645l-57.3-33.081v-1.979l57.3,33.082Z" transform="translate(-741.921 -290.158)" fill="#d6d1ea"/>
      <path id="Trazado_9290" data-name="Trazado 9290" d="M806.862,414.643l-57.3-33.081v-1.979l57.3,33.082Z" transform="translate(-741.921 -290.619)" fill="#d6d1ea"/>
      <path id="Trazado_9291" data-name="Trazado 9291" d="M806.862,420.642l-57.3-33.081v-1.979l57.3,33.082Z" transform="translate(-741.921 -291.08)" fill="#d6d1ea"/>
      <path id="Trazado_9292" data-name="Trazado 9292" d="M806.862,426.641l-57.3-33.081v-1.979l57.3,33.081Z" transform="translate(-741.921 -291.542)" fill="#d6d1ea"/>
      <path id="Trazado_9293" data-name="Trazado 9293" d="M782.329,418.476l-32.767-18.917V397.58L782.329,416.5Z" transform="translate(-741.921 -292.003)" fill="#d6d1ea"/>
      <g id="Grupo_9917" data-name="Grupo 9917" transform="translate(17.908 76.844)">
        <path id="Trazado_9294" data-name="Trazado 9294" d="M763.6,366.453l.9,2.624,2.011,1.5-1.456.8.344,2.512-1.8-2.131-1.8.053.343-2.115-1.456-2.479,2.011.824Z" transform="translate(-760.684 -366.453)" fill="#d81159"/>
        <path id="Trazado_9295" data-name="Trazado 9295" d="M771.977,371.291l.9,2.624,2.011,1.5-1.456.8.344,2.511-1.8-2.131-1.8.053.344-2.114-1.455-2.479,2.011.824Z" transform="translate(-761.329 -366.825)" fill="#d81159"/>
        <path id="Trazado_9296" data-name="Trazado 9296" d="M780.357,376.13l.9,2.625,2.011,1.5-1.456.8.344,2.511-1.8-2.13-1.8.053.344-2.115-1.456-2.478,2.012.824Z" transform="translate(-761.973 -367.198)" fill="#d81159"/>
        <path id="Trazado_9297" data-name="Trazado 9297" d="M788.738,380.968l.9,2.624,2.011,1.5-1.456.8.344,2.512-1.8-2.131-1.8.053.343-2.116-1.456-2.478,2.012.824Z" transform="translate(-762.618 -367.57)" fill="#d81159"/>
        <path id="Trazado_9298" data-name="Trazado 9298" d="M797.118,385.806l.9,2.624,2.012,1.5-1.456.8.343,2.512-1.8-2.131-1.8.054.344-2.116-1.456-2.478,2.011.824Z" transform="translate(-763.262 -367.942)" fill="#d6d1ea"/>
      </g>
    </g>
    <g id="Grupo_9921" data-name="Grupo 9921" transform="translate(1013.021 212.017)">
      <path id="Trazado_9299" data-name="Trazado 9299" d="M732.057,400.087l-70.53-40.72,0-122.16,70.53,40.72Z" transform="translate(-661.527 -237.207)" fill="#fbfbfb"/>
      <g id="Grupo_9919" data-name="Grupo 9919" transform="translate(13.577 25.263)">
        <path id="Trazado_9300" data-name="Trazado 9300" d="M720.325,305.769c0-14.059-9.869-31.154-22.045-38.184s-22.044-1.33-22.044,12.728,9.87,31.154,22.044,38.184S720.324,319.828,720.325,305.769Z" transform="translate(-676.235 -264.575)" fill="#77d2ff"/>
        <path id="Trazado_9301" data-name="Trazado 9301" d="M706.926,314.133c-1.074-2.186,0-10.624,0-10.624l-15.107-8.722s1.074,9.678,0,10.623c0,0,3.177,6.745,7.047,9.086S706.926,314.133,706.926,314.133Z" transform="translate(-677.433 -266.898)" fill="#d9a782"/>
        <path id="Trazado_9302" data-name="Trazado 9302" d="M690.058,285.085a4.057,4.057,0,0,0-.99-2c-.684-.5-1.4.084-.934,2.973a22.1,22.1,0,0,0,1.115,4.3c.18.749.882,2.151,1.511.976Z" transform="translate(-677.138 -265.986)" fill="#f2a983"/>
        <path id="Trazado_9303" data-name="Trazado 9303" d="M690.058,285.085a4.057,4.057,0,0,0-.99-2c-.684-.5-1.4.084-.934,2.973a22.1,22.1,0,0,0,1.115,4.3c.18.749.882,2.151,1.511.976Z" transform="translate(-677.138 -265.986)" fill="#d88f69" opacity="0.5"/>
        <path id="Trazado_9304" data-name="Trazado 9304" d="M690.058,285.085a4.057,4.057,0,0,0-.99-2c-.684-.5-1.4.084-.934,2.973a22.1,22.1,0,0,0,1.115,4.3c.18.749.882,2.151,1.511.976Z" transform="translate(-677.138 -265.986)" fill="#d9a782" opacity="0.5"/>
        <path id="Trazado_9305" data-name="Trazado 9305" d="M709.535,296.369s.307-1.153.99-.862,1.4,1.7.934,4.052a7.99,7.99,0,0,1-1.115,3.015c-.179.541-.882,1.133-1.512-.77Z" transform="translate(-678.742 -266.95)" fill="#ffcda8"/>
        <path id="Trazado_9306" data-name="Trazado 9306" d="M699.2,272.721a20.739,20.739,0,0,1,8.556,10.971,19.148,19.148,0,0,1,.81,8.76,48.81,48.81,0,0,1-.586,5.021c-.292,1.585-.378,4.591-.963,6.293s-1.75,1.718-3.247,2.118a7.686,7.686,0,0,1-4.57-.7,20.076,20.076,0,0,1-4.571-4.576c-1.495-2.127-2.663-3.493-3.248-5.868s-.669-5.48-.961-7.4-.5-4.282-.584-5.7-.67-4.828.808-7.826S695.81,270.766,699.2,272.721Z" transform="translate(-677.266 -265.099)" fill="#ffcda8"/>
        <path id="Trazado_9307" data-name="Trazado 9307" d="M697.809,304.823h0A16.472,16.472,0,0,1,693.294,294c-.082-1.927-1.463-4.126-2.263-5.984s-.827-6.794-.827-6.794l-.5-.4c.043.628.1,1.158.127,1.539.085,1.414.293,3.776.584,5.7s.378,5.028.961,7.4,1.754,3.741,3.248,5.868A21.615,21.615,0,0,0,697.809,304.823Z" transform="translate(-677.271 -265.825)" fill="#d88f69" opacity="0.5"/>
        <path id="Trazado_9308" data-name="Trazado 9308" d="M704.651,307.5c1.5-.4,2.663-.416,3.247-2.118s.671-4.708.963-6.293a48.81,48.81,0,0,0,.586-5.021c.022-.361.084-.832.129-1.421l-.631-.224s-.027,4.906-.828,5.84-2.18,1.538-2.262,3.372-.559,6.068-4.517,5.608c-.069-.009-.134-.015-.2-.018A7.046,7.046,0,0,0,704.651,307.5Z" transform="translate(-678.15 -266.717)" fill="#ffcda8" opacity="0.2"/>
        <path id="Trazado_9309" data-name="Trazado 9309" d="M698.9,295.411a4.765,4.765,0,0,1-.664-1.691c0-.6.319-2.993.386-4.9s-.392-2.1-1.666-3.4a44.439,44.439,0,0,0-4.932-3.979c-.765-.529-.246-3.01.2-4.482a23.753,23.753,0,0,0,5.295,4.6,13.206,13.206,0,0,0,9.158,2.56l-14.632-9.269-.071.572-1.344-1.39c-1.466,2.993-.884,6.4-.8,7.807s.293,3.776.584,5.7.378,5.028.961,7.4,1.754,3.741,3.248,5.868a20.135,20.135,0,0,0,4.563,4.571c-.035-2.313-.18-7.524-.18-7.524Z" transform="translate(-677.266 -265.302)" fill="#d9a782" opacity="0.5"/>
        <path id="Trazado_9310" data-name="Trazado 9310" d="M708.931,288.631c.4-2.366.376-11.446-9.781-17.183-10.156-5.99-10.181,3.062-9.78,5.889.251,1.778-.389,4.239-.086,4.776a1.782,1.782,0,0,1,.538.873c.1.507.274,2.035.274,2.035s.343-3.624.51-4.676a20.659,20.659,0,0,0,.393-2.959c.118-1.747.6-2.681,1.815-2.776s4.664,3.075,5.851,3.951l.994.575c1.187.494,4.636,1.305,5.851,2.8a7.967,7.967,0,0,1,1.815,4.871,31.7,31.7,0,0,0,.392,3.414c.166,1.243.5,5.256.5,5.256s.159-1.339.264-1.723.538-.251.538-.251C709.319,293.317,708.679,290.118,708.931,288.631Z" transform="translate(-677.232 -264.949)" fill="#3f02a8"/>
        <path id="Trazado_9311" data-name="Trazado 9311" d="M702.748,278.833l-8.889-5.131-3.193.825c12.006,12.679,17.194,9.207,17.194,9.207Z" transform="translate(-677.345 -265.277)" fill="#3f02a8"/>
        <path id="Trazado_9312" data-name="Trazado 9312" d="M690.231,304.451v9.56a38.634,38.634,0,0,0,9.126,7.553,20.4,20.4,0,0,0,9.38,3v-9.427l-9.528-1.716Z" transform="translate(-677.311 -267.642)" fill="#d6d1ea"/>
        <path id="Trazado_9313" data-name="Trazado 9313" d="M699.678,314.188l-3.891-.062,2.758,5.883-.131,1.455c.453.293.907.578,1.369.844.305.176.608.34.912.5l-.069-1.6,2.94-2.783Z" transform="translate(-677.739 -268.386)" fill="#c747aa"/>
        <path id="Trazado_9314" data-name="Trazado 9314" d="M699.149,313.224,691.9,301.575l-2.985,2.543,6.628,12.227Z" transform="translate(-677.21 -267.42)" fill="#f0ebff"/>
        <path id="Trazado_9315" data-name="Trazado 9315" d="M699.956,313.895l7.246-3.282,2.986,5.99-6.628,4.574Z" transform="translate(-678.059 -268.115)" fill="#f0ebff"/>
        <path id="Trazado_9316" data-name="Trazado 9316" d="M680.294,299.351a52.76,52.76,0,0,0,10.149,15.313c-1.2-8.432-.374-12.9-.374-12.9Z" transform="translate(-676.547 -267.249)" fill="#535fe9"/>
        <path id="Trazado_9317" data-name="Trazado 9317" d="M718.916,321.6,708.6,312.215a44.829,44.829,0,0,1-.385,12.758C712.593,325.676,716.324,324.456,718.916,321.6Z" transform="translate(-678.695 -268.239)" fill="#535fe9"/>
      </g>
      <path id="Trazado_9318" data-name="Trazado 9318" d="M727.106,363.1l-57.3-33.081v-1.979l57.3,33.082Z" transform="translate(-662.164 -244.193)" fill="#d6d1ea"/>
      <path id="Trazado_9319" data-name="Trazado 9319" d="M727.106,369.1l-57.3-33.081v-1.979l57.3,33.081Z" transform="translate(-662.164 -244.654)" fill="#d6d1ea"/>
      <path id="Trazado_9320" data-name="Trazado 9320" d="M727.105,375.1l-57.3-33.082v-1.979l57.3,33.082Z" transform="translate(-662.164 -245.115)" fill="#d6d1ea"/>
      <path id="Trazado_9321" data-name="Trazado 9321" d="M727.105,381.1l-57.3-33.081V346.04l57.3,33.081Z" transform="translate(-662.164 -245.577)" fill="#d6d1ea"/>
      <path id="Trazado_9322" data-name="Trazado 9322" d="M702.572,372.935l-32.766-18.917v-1.979l32.766,18.917Z" transform="translate(-662.164 -246.038)" fill="#d6d1ea"/>
      <g id="Grupo_9920" data-name="Grupo 9920" transform="translate(17.908 77.267)">
        <path id="Trazado_9323" data-name="Trazado 9323" d="M683.838,320.912l.9,2.624,2.012,1.5-1.456.8.343,2.512-1.8-2.131-1.8.054.343-2.115-1.456-2.479,2.011.823Z" transform="translate(-680.927 -320.912)" fill="#d81159"/>
        <path id="Trazado_9324" data-name="Trazado 9324" d="M692.219,325.75l.9,2.624,2.013,1.5-1.456.8.343,2.512-1.8-2.131-1.8.054.342-2.116-1.455-2.478,2.012.823Z" transform="translate(-681.572 -321.284)" fill="#d81159"/>
        <path id="Trazado_9325" data-name="Trazado 9325" d="M700.6,330.589l.9,2.624,2.013,1.5-1.456.8.344,2.512-1.8-2.131-1.8.053.343-2.115-1.454-2.479,2.011.824Z" transform="translate(-682.216 -321.656)" fill="#d81159"/>
        <path id="Trazado_9326" data-name="Trazado 9326" d="M708.981,335.427l.9,2.624,2.012,1.5-1.456.8.345,2.512-1.8-2.131-1.8.053.344-2.115-1.456-2.478,2.011.823Z" transform="translate(-682.861 -322.028)" fill="#d6d1ea"/>
        <path id="Trazado_9327" data-name="Trazado 9327" d="M717.361,340.265l.9,2.625,2.011,1.5-1.456.8.344,2.512-1.8-2.131-1.8.053.344-2.115-1.456-2.478,2.011.824Z" transform="translate(-683.505 -322.4)" fill="#d6d1ea"/>
      </g>
    </g>
    <g id="Grupo_9924" data-name="Grupo 9924" transform="translate(865.817 127.089)">
      <path id="Trazado_9328" data-name="Trazado 9328" d="M572.589,308.083l-70.529-40.72V145.2l70.53,40.719Z" transform="translate(-502.06 -145.203)" fill="#fbfbfb"/>
      <path id="Trazado_9329" data-name="Trazado 9329" d="M567.638,271.1l-57.3-33.082v-1.979l57.3,33.082Z" transform="translate(-502.696 -152.189)" fill="#d6d1ea"/>
      <path id="Trazado_9330" data-name="Trazado 9330" d="M567.637,277.1l-57.3-33.082v-1.978l57.3,33.081Z" transform="translate(-502.696 -152.65)" fill="#d6d1ea"/>
      <path id="Trazado_9331" data-name="Trazado 9331" d="M567.637,283.1l-57.3-33.081v-1.979l57.3,33.081Z" transform="translate(-502.696 -153.112)" fill="#d6d1ea"/>
      <path id="Trazado_9332" data-name="Trazado 9332" d="M567.637,289.1l-57.3-33.081v-1.979l57.3,33.081Z" transform="translate(-502.696 -153.573)" fill="#d6d1ea"/>
      <path id="Trazado_9333" data-name="Trazado 9333" d="M543.1,280.93l-32.766-18.917v-1.979L543.1,278.951Z" transform="translate(-502.696 -154.034)" fill="#d6d1ea"/>
      <g id="Grupo_9922" data-name="Grupo 9922" transform="translate(13.545 25.558)">
        <path id="Trazado_9334" data-name="Trazado 9334" d="M560.337,213.63c0-13.9-9.759-30.81-21.8-37.763s-21.8-1.314-21.8,12.588,9.762,30.811,21.8,37.763S560.337,227.533,560.337,213.63Z" transform="translate(-516.733 -172.89)" fill="#77d2ff"/>
        <path id="Trazado_9335" data-name="Trazado 9335" d="M547.248,221.994c-1.063-2.162,0-10.506,0-10.506l-14.942-8.627s1.062,9.572,0,10.507c0,0,3.141,6.669,6.968,8.984S547.248,221.994,547.248,221.994Z" transform="translate(-517.931 -175.195)" fill="#d9a782"/>
        <path id="Trazado_9336" data-name="Trazado 9336" d="M530.564,193.266a4.015,4.015,0,0,0-.979-1.983c-.677-.494-1.387.082-.925,2.939a21.918,21.918,0,0,0,1.1,4.255c.179.741.872,2.129,1.5.966Z" transform="translate(-517.639 -174.292)" fill="#f2a983"/>
        <path id="Trazado_9337" data-name="Trazado 9337" d="M530.564,193.266a4.015,4.015,0,0,0-.979-1.983c-.677-.494-1.387.082-.925,2.939a21.918,21.918,0,0,0,1.1,4.255c.179.741.872,2.129,1.5.966Z" transform="translate(-517.639 -174.292)" fill="#d88f69" opacity="0.5"/>
        <path id="Trazado_9338" data-name="Trazado 9338" d="M530.564,193.266a4.015,4.015,0,0,0-.979-1.983c-.677-.494-1.387.082-.925,2.939a21.918,21.918,0,0,0,1.1,4.255c.179.741.872,2.129,1.5.966Z" transform="translate(-517.639 -174.292)" fill="#d9a782" opacity="0.5"/>
        <path id="Trazado_9339" data-name="Trazado 9339" d="M539.6,181.038a20.5,20.5,0,0,1,8.462,10.849,18.88,18.88,0,0,1,.8,8.664,48.148,48.148,0,0,1-.577,4.966c-.29,1.567-.375,4.54-.953,6.223s-1.733,1.7-3.212,2.094a7.6,7.6,0,0,1-4.519-.694,19.845,19.845,0,0,1-4.52-4.525c-1.479-2.1-2.635-3.455-3.211-5.8s-.663-5.42-.953-7.321-.492-4.235-.577-5.634-.663-4.776.8-7.741S536.253,179.1,539.6,181.038Z" transform="translate(-517.765 -173.415)" fill="#ffcca7"/>
        <path id="Trazado_9340" data-name="Trazado 9340" d="M538.231,212.787h0a16.294,16.294,0,0,1-4.466-10.7c-.082-1.908-1.447-4.082-2.237-5.918s-.82-6.72-.82-6.72l-.489-.392c.042.62.1,1.145.125,1.522.085,1.4.29,3.733.577,5.634s.375,4.972.953,7.321,1.733,3.7,3.211,5.8A21.38,21.38,0,0,0,538.231,212.787Z" transform="translate(-517.77 -174.133)" fill="#d88f69" opacity="0.5"/>
        <path id="Trazado_9341" data-name="Trazado 9341" d="M544.995,215.435c1.48-.4,2.635-.413,3.212-2.094s.663-4.655.953-6.223a48.148,48.148,0,0,0,.577-4.966c.024-.357.084-.822.129-1.4l-.625-.222s-.026,4.853-.819,5.775-2.156,1.521-2.237,3.335-.552,6-4.466,5.546c-.068-.008-.133-.015-.2-.018A6.977,6.977,0,0,0,544.995,215.435Z" transform="translate(-518.64 -175.015)" fill="#d88f69" opacity="0.2"/>
        <path id="Trazado_9342" data-name="Trazado 9342" d="M539.308,203.269a4.716,4.716,0,0,1-.657-1.674c0-.6.317-2.959.381-4.843s-.388-2.072-1.647-3.359a43.974,43.974,0,0,0-4.88-3.935c-.756-.523-.716-4.2.065-5.288,1.3-1.818,3.942,1.474,7.166,3.712,4.765,3.307,8.39,2.906,8.39,2.906L534.7,180.115l-1.792-.509-1.781,2.521c-1.45,2.96-.875,6.325-.79,7.722s.29,3.733.577,5.634.375,4.972.953,7.321,1.733,3.7,3.211,5.8a19.9,19.9,0,0,0,4.512,4.52c-.033-2.287-.178-7.441-.178-7.441Z" transform="translate(-517.765 -173.407)" fill="#d88f69" opacity="0.5"/>
        <path id="Trazado_9343" data-name="Trazado 9343" d="M549.228,196.773c.4-2.34.373-11.32-9.672-16.993-10.044-5.924-10.07,3.027-9.673,5.824.248,1.758-.384,4.192-.084,4.723a1.76,1.76,0,0,1,.532.863c.1.5.271,2.014.271,2.014s.34-3.585.5-4.625a20.456,20.456,0,0,0,.387-2.928c.117-1.728.6-2.65,1.8-2.744s4.615,3.041,5.788,3.907l.982.568c1.174.488,4.585,1.291,5.786,2.773a7.869,7.869,0,0,1,1.795,4.818,31.607,31.607,0,0,0,.389,3.376c.164,1.23.492,5.2.492,5.2s.157-1.326.261-1.7.532-.249.532-.249C549.612,201.408,548.979,198.243,549.228,196.773Z" transform="translate(-517.732 -173.267)" fill="#3f02a8"/>
        <path id="Trazado_9344" data-name="Trazado 9344" d="M530.735,212.419v9.53a38.03,38.03,0,0,0,8.877,7.309,20.056,20.056,0,0,0,9.424,2.973v-9.247l-9.424-1.7Z" transform="translate(-517.81 -175.93)" fill="#d6d1ea"/>
        <path id="Trazado_9345" data-name="Trazado 9345" d="M540.077,222.049l-3.847-.063,2.728,5.819-.418,1.259c.495.325.992.639,1.5.93q.6.348,1.2.653l-.22-1.653,2.908-2.753Z" transform="translate(-518.232 -176.666)" fill="#535fe9"/>
        <path id="Trazado_9346" data-name="Trazado 9346" d="M539.555,221.095l-7.166-11.521-2.952,2.515,6.554,12.091Z" transform="translate(-517.71 -175.711)" fill="#f0ebff"/>
        <path id="Trazado_9347" data-name="Trazado 9347" d="M540.352,221.758l7.167-3.245,2.953,5.924-6.556,4.522Z" transform="translate(-518.549 -176.399)" fill="#f0ebff"/>
        <path id="Trazado_9348" data-name="Trazado 9348" d="M521.021,207.887A51.808,51.808,0,0,0,531.413,223.1a35.75,35.75,0,0,1-.829-13.294Z" transform="translate(-517.063 -175.582)" fill="#1b6c7f"/>
        <path id="Trazado_9349" data-name="Trazado 9349" d="M558.872,229.339,548.864,220.1s1.016,6.682-.873,12.468C552.443,233.378,556.243,232.2,558.872,229.339Z" transform="translate(-519.137 -176.521)" fill="#1b6c7f"/>
        <path id="Trazado_9350" data-name="Trazado 9350" d="M539.642,205.039c.483.235,2.959,1.961,3.346,2.774a19.9,19.9,0,0,0,1.807,2.588c.487.668.954.756,1.783.058a11.777,11.777,0,0,0,.837-2.044c.162-.5,1.079-5.012,1.079-5.012l.27.339a21.769,21.769,0,0,0-.637,4.243c.14.923-.009,5.329-1.437,6.6s-.448,4.972-7.048,1.161-5.619-6.38-7.047-9.3a19.281,19.281,0,0,1-1.437-8.258,35.119,35.119,0,0,0-.636-4.977l.269-.03s.918,5.575,1.08,6.26.673,2.683.837,3.009c.828,1.656,1.294,2.107,1.783,2s1.422-.134,1.807-.5S539.161,204.718,539.642,205.039Z" transform="translate(-517.793 -174.451)" fill="#3f02a8"/>
        <path id="Trazado_9351" data-name="Trazado 9351" d="M539.7,210.174c1.114.618,1.756,2.138,2.209,2.53s1.245.353,1.45-.078-.364-1.6-.862-2.329a12.432,12.432,0,0,0-2.8-2.111c-.628-.31-2.3-1.275-2.8-1.118a1.129,1.129,0,0,0-.861,1.332,3.32,3.32,0,0,0,1.449,1.754C537.94,210.285,538.582,209.5,539.7,210.174Z" transform="translate(-518.214 -175.517)" fill="#f2a983"/>
      </g>
      <g id="Grupo_9923" data-name="Grupo 9923" transform="translate(17.908 77.267)">
        <path id="Trazado_9352" data-name="Trazado 9352" d="M524.37,228.908l.9,2.624,2.011,1.5-1.456.8.343,2.512-1.8-2.131-1.8.053.343-2.115-1.456-2.479,2.011.824Z" transform="translate(-521.459 -228.908)" fill="#d81159"/>
        <path id="Trazado_9353" data-name="Trazado 9353" d="M532.751,233.746l.9,2.624,2.012,1.5-1.456.8.345,2.512-1.8-2.131-1.8.053.343-2.116-1.455-2.478,2.011.824Z" transform="translate(-522.104 -229.28)" fill="#d81159"/>
        <path id="Trazado_9354" data-name="Trazado 9354" d="M541.132,238.584l.9,2.624,2.011,1.5-1.456.8.344,2.512-1.8-2.131-1.8.053.344-2.115-1.456-2.479,2.012.824Z" transform="translate(-522.748 -229.652)" fill="#d81159"/>
        <path id="Trazado_9355" data-name="Trazado 9355" d="M549.512,243.423l.9,2.624,2.011,1.5-1.456.8.345,2.512-1.8-2.131-1.8.053.344-2.115-1.455-2.479,2.01.824Z" transform="translate(-523.393 -230.024)" fill="#d81159"/>
        <path id="Trazado_9356" data-name="Trazado 9356" d="M557.893,248.262l.9,2.624,2.011,1.5-1.456.8.344,2.512-1.8-2.131-1.8.053.344-2.115-1.456-2.479,2.011.824Z" transform="translate(-524.037 -230.396)" fill="#d81159"/>
      </g>
      <path id="Trazado_9357" data-name="Trazado 9357" d="M550.1,204.105s.307-1.153.99-.862,1.4,1.7.935,4.052a8,8,0,0,1-1.116,3.016c-.179.54-.882,1.133-1.511-.77Z" transform="translate(-505.7 -149.663)" fill="#ffcda8"/>
    </g>
    <g id="Grupo_9927" data-name="Grupo 9927" transform="translate(939.44 169.435)">
      <path id="Trazado_9358" data-name="Trazado 9358" d="M652.346,353.957l-70.53-40.72V191.077l70.531,40.72Z" transform="translate(-581.816 -191.077)" fill="#fbfbfb"/>
      <g id="Grupo_9925" data-name="Grupo 9925" transform="translate(13.707 25.71)">
        <path id="Trazado_9359" data-name="Trazado 9359" d="M640.492,259.877c0-13.975-9.812-30.968-21.912-37.955s-21.915-1.323-21.915,12.652,9.812,30.968,21.914,37.955S640.492,273.85,640.492,259.877Z" transform="translate(-596.665 -218.929)" fill="#77d2ff"/>
        <path id="Trazado_9360" data-name="Trazado 9360" d="M632,253.512s.634,5.908-1.974,8.3l-.234-1.653s-.936,2.62-5.452,1.162-11.718-7.482-12.611-10.647a17.11,17.11,0,0,0,.8,2.557s-3.914-6.364-3.78-9.324,3.312-6.872,3.312-6.872l7.527-5.1,4.506,1.912s5.139,5.176,5.2,5.416S632,253.512,632,253.512Z" transform="translate(-597.594 -219.93)" fill="#00005c"/>
        <path id="Trazado_9361" data-name="Trazado 9361" d="M626.008,265.857c-1.556-2.556-.581-8.3-.581-8.3L614.26,251.1s.977,6.876-.581,7.635-7.779-.223-7.779-.223l2.966,6.962,21.065,12.162,3.54-3.206S627.566,268.413,626.008,265.857Z" transform="translate(-597.375 -221.404)" fill="#d8a681"/>
        <path id="Trazado_9362" data-name="Trazado 9362" d="M620.058,257.118c1.694.978,3,.567,4.535.177s2.6-1.54,3.4-5.148.305-5.271.55-6.439a20.3,20.3,0,0,0-1.869-12.186,17.245,17.245,0,0,0-6.617-7c-1.229-.709-4.242-2.29-6.617-.637-2.768,1.926-2.114,8.578-1.869,10.028s-.245,2.547.552,7.075,1.867,6.917,3.4,9.075S618.361,256.137,620.058,257.118Z" transform="translate(-597.792 -219.408)" fill="#ffcca7"/>
        <path id="Trazado_9363" data-name="Trazado 9363" d="M628.594,252.5c-1.122.8-2.179,1.372-2.674,2.763a44.658,44.658,0,0,1-1.358,4.3c.343-.076.69-.167,1.05-.258,1.531-.39,2.6-1.54,3.4-5.148a20.346,20.346,0,0,0,.43-2.844A3.242,3.242,0,0,1,628.594,252.5Z" transform="translate(-598.81 -221.42)" fill="#d8a681" opacity="0.2"/>
        <path id="Trazado_9364" data-name="Trazado 9364" d="M626.928,235.18s-8.694-6.713-12.937-9.584a3.747,3.747,0,0,0-.549.319c-2.768,1.926-2.114,8.578-1.869,10.028s-.245,2.547.552,7.075,1.867,6.917,3.4,9.075c1.458,2.054,2.71,3.893,4.292,4.91a52.779,52.779,0,0,1-.22-7.656,20.745,20.745,0,0,0-.516-3.348c-.155-.661.558-2.292.514-4.265-.384-4.586.527-5.557,1.143-6.433,1.228-1.745,3.018-.4,5.484,4.189C629.04,244.736,626.928,235.18,626.928,235.18Z" transform="translate(-597.792 -219.442)" fill="#d8a681" opacity="0.4"/>
        <path id="Trazado_9365" data-name="Trazado 9365" d="M612.508,243a12.161,12.161,0,0,1-.766-1.908c.065.821.187,1.832.414,3.122.8,4.53,1.867,6.917,3.4,9.075.329.461.645.911.959,1.344-.658-2.263-.987-4.413-1.333-5.78A26.826,26.826,0,0,0,612.508,243Z" transform="translate(-597.825 -220.633)" fill="#d8a681" opacity="0.2"/>
        <path id="Trazado_9366" data-name="Trazado 9366" d="M627.561,268.562c-.964.846-3.3,6.176-8.1,3.4-4.76-2.748-7.248-10.717-8.319-12.681a71.1,71.1,0,0,1-7.642-.3v.072c3.974,6.95,9.5,13.027,15.606,16.554,6.249,3.608,11.885,3.835,15.877,1.292C633.52,275.331,629.369,270.841,627.561,268.562Z" transform="translate(-597.191 -222.009)" fill="#535fe9"/>
        <path id="Trazado_9367" data-name="Trazado 9367" d="M611.665,238.262a3.772,3.772,0,0,0-.919-1.866c-.638-.463-1.307.078-.87,2.767a20.674,20.674,0,0,0,1.038,4c.168.7.82,2,1.406.908Z" transform="translate(-597.67 -220.261)" fill="#d8a681"/>
        <path id="Trazado_9368" data-name="Trazado 9368" d="M629.787,248.761s.285-1.073.923-.8,1.3,1.586.87,3.771a7.47,7.47,0,0,1-1.038,2.8c-.167.5-.821,1.054-1.406-.716Z" transform="translate(-599.162 -221.158)" fill="#ffcca7"/>
        <path id="Trazado_9369" data-name="Trazado 9369" d="M620.316,272.5l-8.3-13.677H609.94l5.514,13.918q.845.674,1.711,1.288Z" transform="translate(-597.686 -221.997)" fill="#7a86ff"/>
        <path id="Trazado_9370" data-name="Trazado 9370" d="M620.835,273.1l3.05,4.954a21.165,21.165,0,0,0,2.044.692l5.281-7.343-2.074-2.4Z" transform="translate(-598.524 -222.781)" fill="#7a86ff"/>
        <path id="Trazado_9371" data-name="Trazado 9371" d="M623.535,234.174c-.088-.006,3.861,3.5,4.931,8.352S630.51,234.6,623.535,234.174Z" transform="translate(-598.731 -220.101)" fill="#00005c"/>
        <path id="Trazado_9372" data-name="Trazado 9372" d="M623.886,235.146s-2.226-3.633-3.714-.832c-.923,1.737-2.3,6.455-6.38,5.863,0,0-4.081,2.693-1.506,8.818,0,0-2.407-2.622-2.675-5.157a3.958,3.958,0,0,0-.2,3.086s-2.107-3.557-1.537-6.923.5-11.216,2.708-13.689,9.066-4.508,13.515,2.739c0,0,4.082,2.11,5.887,8.243s1.639,6.036,1.906,8.2-.467,9.5,1.772,11.408a9.514,9.514,0,0,1-2.174-3.225s-.033,5.153-3.345,4.185a5.576,5.576,0,0,0,1.739-4.661c-.3-2.965-2.642-7.764-2.575-10.476S627.164,233.919,623.886,235.146Z" transform="translate(-597.519 -219.321)" fill="#190082"/>
      </g>
      <path id="Trazado_9373" data-name="Trazado 9373" d="M647.393,316.974l-57.3-33.081v-1.979L647.394,315Z" transform="translate(-582.453 -198.063)" fill="#d6d1ea"/>
      <path id="Trazado_9374" data-name="Trazado 9374" d="M647.393,322.973l-57.3-33.081v-1.978l57.3,33.082Z" transform="translate(-582.453 -198.524)" fill="#d6d1ea"/>
      <path id="Trazado_9375" data-name="Trazado 9375" d="M647.393,328.972l-57.3-33.081v-1.979l57.3,33.082Z" transform="translate(-582.453 -198.986)" fill="#d6d1ea"/>
      <path id="Trazado_9376" data-name="Trazado 9376" d="M647.393,334.971l-57.3-33.082V299.91l57.3,33.082Z" transform="translate(-582.453 -199.447)" fill="#d6d1ea"/>
      <path id="Trazado_9377" data-name="Trazado 9377" d="M622.86,326.805l-32.767-18.918v-1.979l32.767,18.917Z" transform="translate(-582.453 -199.908)" fill="#d6d1ea"/>
      <g id="Grupo_9926" data-name="Grupo 9926" transform="translate(17.908 77.268)">
        <path id="Trazado_9378" data-name="Trazado 9378" d="M604.127,274.783l.9,2.624,2.011,1.5-1.455.8.343,2.512-1.8-2.131-1.8.054.344-2.115-1.456-2.479,2.011.824Z" transform="translate(-601.216 -274.783)" fill="#d81159"/>
        <path id="Trazado_9379" data-name="Trazado 9379" d="M612.508,279.621l.9,2.624,2.011,1.5-1.456.8.344,2.512-1.8-2.131-1.8.053.344-2.115-1.455-2.478,2.011.823Z" transform="translate(-601.86 -275.155)" fill="#d81159"/>
        <path id="Trazado_9380" data-name="Trazado 9380" d="M620.889,284.46l.9,2.624,2.012,1.5-1.456.8.343,2.512-1.8-2.131-1.8.053.343-2.115-1.456-2.478,2.013.824Z" transform="translate(-602.505 -275.527)" fill="#d81159"/>
        <path id="Trazado_9381" data-name="Trazado 9381" d="M629.269,289.3l.9,2.624,2.012,1.5-1.456.8.344,2.512-1.8-2.131-1.8.053.344-2.115-1.455-2.478,2.011.823Z" transform="translate(-603.149 -275.899)" fill="#d81159"/>
        <path id="Trazado_9382" data-name="Trazado 9382" d="M637.649,294.136l.9,2.624,2.012,1.5-1.456.8.343,2.511-1.8-2.131-1.8.053.344-2.115-1.455-2.479,2.011.823Z" transform="translate(-603.794 -276.271)" fill="#d81159"/>
      </g>
    </g>
    <g id="Grupo_9942" data-name="Grupo 9942" transform="translate(961.456 111.501)">
      <g id="Grupo_9930" data-name="Grupo 9930" transform="translate(124.89 71.675)">
        <g id="Grupo_9928" data-name="Grupo 9928">
          <path id="Trazado_9383" data-name="Trazado 9383" d="M740.961,228.831a9.581,9.581,0,0,0,4.32,7.484l15.465,8.928c2.376,1.373,4.321.249,4.321-2.5V224.893a9.584,9.584,0,0,0-4.321-7.486l-15.465-8.927c-2.378-1.372-4.32-.25-4.32,2.5Z" transform="translate(-740.961 -206.112)" fill="#ffd22e"/>
          <path id="Trazado_9384" data-name="Trazado 9384" d="M765.2,242.6V224.744a9.584,9.584,0,0,0-4.321-7.486l-15.465-8.927a3.229,3.229,0,0,0-2.756-.436h0l2.608-1.6a2.983,2.983,0,0,1,3.124.254l15.465,8.927a9.6,9.6,0,0,1,4.323,7.485l0,17.855a2.991,2.991,0,0,1-1.328,2.825l-2.861,1.712v0A3.062,3.062,0,0,0,765.2,242.6Z" transform="translate(-741.091 -205.963)" fill="#ebac08"/>
        </g>
        <g id="Grupo_9929" data-name="Grupo 9929" transform="translate(3.975 9.748)">
          <path id="Trazado_9385" data-name="Trazado 9385" d="M759.881,224.347l-.854-1.479L757.061,224a13.66,13.66,0,0,1,.957,1.422Z" transform="translate(-746.174 -217.012)" fill="#fff"/>
          <path id="Trazado_9386" data-name="Trazado 9386" d="M750.092,219.927l-1.965-3.4-.854.493,1.864,3.228A2.833,2.833,0,0,1,750.092,219.927Z" transform="translate(-745.421 -216.524)" fill="#fff"/>
          <path id="Trazado_9387" data-name="Trazado 9387" d="M754.248,221.112V217.7l-1.208-.7v3.412a6.2,6.2,0,0,1,.6.277C753.851,220.811,754.047,220.97,754.248,221.112Z" transform="translate(-745.865 -216.561)" fill="#fff"/>
          <path id="Trazado_9388" data-name="Trazado 9388" d="M745.267,222.887l2.027,1.169a5.6,5.6,0,0,1,.194-1.284l-2.221-1.281Z" transform="translate(-745.267 -216.906)" fill="#fff"/>
          <path id="Trazado_9389" data-name="Trazado 9389" d="M759.716,229.832a9.642,9.642,0,0,1,.195,1.506l2.025,1.17v-1.394Z" transform="translate(-746.378 -217.547)" fill="#fff"/>
          <path id="Trazado_9390" data-name="Trazado 9390" d="M753.326,222.672c-2.43-1.4-4.4-.265-4.4,2.544a11.116,11.116,0,0,0,1.158,4.107c.606,1.412,1.386,2.285,1.386,3.516v2.624a2.034,2.034,0,0,0,.917,1.589l1.891,1.094c.5.29.917.052.917-.532,0,0,0-1.8,0-2.625,0-1.23.782-1.2,1.383-1.917a3.951,3.951,0,0,0,1.162-2.769A9.743,9.743,0,0,0,753.326,222.672Zm2.377,7.316s.55-2.058-2.022-6.225a8.608,8.608,0,0,1,3.368,7Z" transform="translate(-745.548 -216.951)" fill="#fff"/>
        </g>
      </g>
      <g id="Grupo_9933" data-name="Grupo 9933" transform="translate(0 0)">
        <g id="Grupo_9931" data-name="Grupo 9931">
          <path id="Trazado_9391" data-name="Trazado 9391" d="M605.666,151.183a9.579,9.579,0,0,0,4.321,7.485l15.464,8.928c2.377,1.372,4.323.249,4.323-2.5V147.246a9.586,9.586,0,0,0-4.323-7.485l-15.464-8.928c-2.378-1.372-4.321-.249-4.321,2.5Z" transform="translate(-605.666 -128.465)" fill="#77d2ff"/>
          <path id="Trazado_9392" data-name="Trazado 9392" d="M629.9,164.953V147.1a9.586,9.586,0,0,0-4.323-7.485l-15.464-8.928a3.234,3.234,0,0,0-2.756-.437h0l2.606-1.6a2.984,2.984,0,0,1,3.126.253l15.465,8.927a9.593,9.593,0,0,1,4.322,7.485l0,17.855A3,3,0,0,1,631.549,166l-2.861,1.712v0A3.062,3.062,0,0,0,629.9,164.953Z" transform="translate(-605.796 -128.317)" fill="#51acd9"/>
        </g>
        <g id="Grupo_9932" data-name="Grupo 9932" transform="translate(6.197 10.325)">
          <path id="Trazado_9393" data-name="Trazado 9393" d="M622.144,155.622l-3.3,1.9-3.3-5.717c-1.894.209-3.163,1.862-3.163,4.591l12.929,7.463A14.105,14.105,0,0,0,622.144,155.622Z" transform="translate(-612.379 -140.448)" fill="#f5f5f5"/>
          <path id="Trazado_9394" data-name="Trazado 9394" d="M618.989,151.036c2.6,1.5,4.715.283,4.715-2.722a10.425,10.425,0,0,0-4.715-8.168c-2.6-1.5-4.715-.284-4.715,2.723A10.422,10.422,0,0,0,618.989,151.036Z" transform="translate(-612.525 -139.502)" fill="#f5f5f5"/>
        </g>
      </g>
      <g id="Grupo_9935" data-name="Grupo 9935" transform="translate(93.909 53.872)">
        <g id="Grupo_9934" data-name="Grupo 9934">
          <path id="Trazado_9395" data-name="Trazado 9395" d="M707.4,209.544a9.582,9.582,0,0,0,4.321,7.484l15.465,8.928c2.376,1.372,4.322.248,4.322-2.5V205.606a9.587,9.587,0,0,0-4.322-7.485l-15.465-8.928c-2.377-1.372-4.321-.249-4.321,2.5Z" transform="translate(-707.399 -186.825)" fill="#9013b9"/>
          <path id="Trazado_9396" data-name="Trazado 9396" d="M731.637,223.313V205.457a9.587,9.587,0,0,0-4.322-7.485l-15.465-8.928a3.226,3.226,0,0,0-2.755-.436h0l2.605-1.6a2.986,2.986,0,0,1,3.125.253l15.465,8.928a9.6,9.6,0,0,1,4.324,7.485l0,17.855a2.994,2.994,0,0,1-1.328,2.825l-2.862,1.712v0A3.061,3.061,0,0,0,731.637,223.313Z" transform="translate(-707.529 -186.676)" fill="#6a0093"/>
        </g>
        <path id="Trazado_9397" data-name="Trazado 9397" d="M726.245,207.289l-2.869-1.657v-2.247a1.074,1.074,0,0,0-.486-.84L716.75,199c-.267-.154-.485-.028-.485.281v2.245l-2.737-1.579c-.266-.155-.484-.029-.484.281v11.2a1.079,1.079,0,0,0,.485.842l12.717,7.342c.269.153.486.027.486-.282v-11.2A1.074,1.074,0,0,0,726.245,207.289Zm-9.023-6.929,5.2,3v1.718l-5.2-3Zm7.88,15.449-10.681-6.167v-.636l10.681,6.166Zm0-2.453-10.681-6.168v-.636L725.1,212.72Zm0-2.454-10.681-6.167V204.1l10.681,6.167Z" transform="translate(-707.833 -187.619)" fill="#f5f5f5"/>
      </g>
      <g id="Grupo_9938" data-name="Grupo 9938" transform="translate(62.144 35.631)">
        <g id="Grupo_9936" data-name="Grupo 9936">
          <path id="Trazado_9398" data-name="Trazado 9398" d="M672.988,189.783a9.581,9.581,0,0,0,4.32,7.484l15.465,8.929c2.377,1.372,4.323.248,4.323-2.5V185.845a9.586,9.586,0,0,0-4.323-7.485l-15.465-8.927c-2.377-1.373-4.32-.25-4.32,2.5Z" transform="translate(-672.988 -167.065)" fill="#27e0c0"/>
          <path id="Trazado_9399" data-name="Trazado 9399" d="M697.226,203.552V185.7a9.586,9.586,0,0,0-4.323-7.485l-15.465-8.927a3.226,3.226,0,0,0-2.755-.436h0l2.6-1.6a2.988,2.988,0,0,1,3.126.253l15.465,8.927a9.593,9.593,0,0,1,4.322,7.486l0,17.854a2.991,2.991,0,0,1-1.329,2.825l-2.86,1.713v0A3.064,3.064,0,0,0,697.226,203.552Z" transform="translate(-673.118 -166.916)" fill="#01ba9a"/>
        </g>
        <g id="Grupo_9937" data-name="Grupo 9937" transform="translate(2.915 12.977)">
          <path id="Trazado_9400" data-name="Trazado 9400" d="M680.445,187.907v3.056a5.81,5.81,0,0,0,1.514,3.311c2.02,2.511,5.293,4.4,7.312,4.221a1.474,1.474,0,0,0,1.513-1.564v-3.055l-5.169.462Z" transform="translate(-676.476 -181.508)" fill="#f5f5f5"/>
          <path id="Trazado_9401" data-name="Trazado 9401" d="M694.423,192.343l-9.139-11.368-9.139.817,9.139,11.368Z" transform="translate(-676.145 -180.975)" fill="#f5f5f5"/>
        </g>
      </g>
      <g id="Grupo_9941" data-name="Grupo 9941" transform="translate(31.039 17.331)">
        <g id="Grupo_9939" data-name="Grupo 9939">
          <path id="Trazado_9402" data-name="Trazado 9402" d="M639.291,169.958a9.577,9.577,0,0,0,4.32,7.484l15.465,8.929c2.377,1.372,4.321.248,4.321-2.5V166.02a9.587,9.587,0,0,0-4.321-7.485l-15.465-8.927c-2.378-1.372-4.32-.25-4.32,2.5Z" transform="translate(-639.291 -147.24)" fill="#591bc2"/>
          <path id="Trazado_9403" data-name="Trazado 9403" d="M663.527,183.728V165.871a9.587,9.587,0,0,0-4.321-7.485l-15.465-8.927a3.228,3.228,0,0,0-2.755-.437h0l2.606-1.6a2.988,2.988,0,0,1,3.126.253l15.464,8.927a9.6,9.6,0,0,1,4.323,7.485l0,17.855a2.994,2.994,0,0,1-1.327,2.826l-2.862,1.712v0A3.058,3.058,0,0,0,663.527,183.728Z" transform="translate(-639.421 -147.091)" fill="#26008f"/>
        </g>
        <g id="Grupo_9940" data-name="Grupo 9940" transform="translate(4.595 11.518)">
          <path id="Trazado_9404" data-name="Trazado 9404" d="M659.185,168.181l-14.916-8.612,7.634,8.744Z" transform="translate(-644.269 -159.569)" fill="#f5f5f5"/>
          <path id="Trazado_9405" data-name="Trazado 9405" d="M651.9,170.044l-7.634-10.475V171.3l14.916,8.611V168.181Z" transform="translate(-644.269 -159.569)" fill="#f5f5f5"/>
        </g>
      </g>
    </g>
    <g id="Grupo_9944" data-name="Grupo 9944" transform="translate(904.282 327.227)">
      <path id="Trazado_9406" data-name="Trazado 9406" d="M723.08,492.167l10.452-5.908L699.7,466.768l4.555-2-60.567-34.9c9.118-6.128,13.693-13.735,13.693-21.347V398.258c0-8.4-5.548-16.794-16.644-23.2s-25.639-9.61-40.185-9.61-29.087,3.2-40.181,9.61-16.645,14.8-16.645,23.2v10.264c0,8.4,5.548,16.794,16.644,23.2s25.641,9.611,40.183,9.61c11.939,0,23.874-2.163,33.905-6.479l22.1,12.733-5.928,3.35s-1.26,1.095,1.048,2.425l67.337,38.8A4.737,4.737,0,0,0,723.08,492.167ZM550.842,398.257c0-7.345,4.854-14.691,14.562-20.3s22.429-8.407,35.151-8.408,25.449,2.8,35.156,8.408,14.559,12.952,14.559,20.3-4.854,14.691-14.559,20.294-22.431,8.408-35.155,8.408l-34.643-10.606Z" transform="translate(-543.729 -362.28)" opacity="0.1" style="mix-blend-mode: multiply;isolation: isolate"/>
      <path id="Trazado_9407" data-name="Trazado 9407" d="M645.834,371.625c-11.1-6.406-25.64-9.609-40.185-9.609s-29.087,3.2-40.181,9.609-16.645,14.8-16.645,23.2V405.09c0,8.4,5.549,16.794,16.643,23.2s25.642,9.61,40.186,9.61,29.086-3.2,40.182-9.61,16.645-14.8,16.645-23.2V394.827C662.479,386.43,656.931,378.034,645.834,371.625Zm-5.029,43.5c-9.709,5.607-22.431,8.408-35.153,8.408s-25.447-2.8-35.155-8.408-14.56-12.95-14.56-20.3,4.853-14.691,14.56-20.3,22.429-8.4,35.152-8.407,25.448,2.8,35.156,8.407,14.56,12.952,14.56,20.3S650.509,409.518,640.8,415.122Z" transform="translate(-544.121 -362.016)" fill="#51acd9"/>
      <path id="Trazado_9408" data-name="Trazado 9408" d="M571.089,381.044c9.708-5.605,22.429-8.407,35.152-8.407s25.448,2.8,35.156,8.407c8.346,4.819,13.092,10.926,14.264,17.21a16.835,16.835,0,0,0,.3-3.085c0-7.346-4.853-14.692-14.56-20.3s-22.431-8.407-35.156-8.407-25.444,2.8-35.152,8.407-14.56,12.952-14.56,20.3a16.917,16.917,0,0,0,.3,3.086C558,391.968,562.743,385.863,571.089,381.044Z" transform="translate(-544.713 -362.358)" fill="#91ecff"/>
      <path id="Trazado_9409" data-name="Trazado 9409" d="M606.241,368.076c-12.723,0-25.444,2.8-35.152,8.407s-14.56,12.951-14.56,20.3,4.853,14.691,14.56,20.3,22.432,8.408,35.155,8.407,25.444-2.8,35.153-8.407,14.56-12.95,14.56-20.3-4.853-14.691-14.56-20.3S618.966,368.075,606.241,368.076Z" transform="translate(-544.713 -362.482)" fill="#77d2ff" opacity="0.3"/>
      <path id="Trazado_9410" data-name="Trazado 9410" d="M640.923,416.623c-9.3,4.567-21.493,6.852-33.684,6.851s-24.38-2.284-33.682-6.851a33.387,33.387,0,0,1-9.314-6.465,32.28,32.28,0,0,0,9.7,8.2c9.083,5.245,20.987,7.866,32.892,7.866s23.806-2.621,32.889-7.866a36.067,36.067,0,0,0,7.083-5.251A39.2,39.2,0,0,1,640.923,416.623Z" transform="translate(-545.307 -365.718)" fill="#fff" opacity="0.5"/>
      <path id="Trazado_9411" data-name="Trazado 9411" d="M645.834,371.625c-11.1-6.406-25.64-9.609-40.185-9.609s-29.087,3.2-40.181,9.609-16.645,14.8-16.645,23.2,5.549,16.794,16.643,23.2,25.642,9.61,40.186,9.609,29.086-3.2,40.182-9.609,16.645-14.8,16.645-23.2S656.931,378.034,645.834,371.625Zm-5.029,43.5c-9.709,5.607-22.431,8.408-35.153,8.408s-25.447-2.8-35.155-8.408-14.56-12.95-14.56-20.3,4.853-14.691,14.56-20.3,22.429-8.4,35.152-8.407,25.448,2.8,35.156,8.407,14.56,12.952,14.56,20.3S650.509,409.518,640.8,415.122Z" transform="translate(-544.121 -362.016)" fill="#91ecff"/>
      <path id="Trazado_9412" data-name="Trazado 9412" d="M641.4,376.483c-9.708-5.606-22.431-8.408-35.156-8.407s-25.444,2.8-35.152,8.407c-9.43,5.445-14.266,12.535-14.535,19.668a17.4,17.4,0,0,0,.27,2.227c1.172-6.286,5.919-12.392,14.265-17.21,9.708-5.605,22.429-8.407,35.152-8.407s25.448,2.8,35.156,8.407c8.346,4.819,13.092,10.926,14.264,17.21a17.4,17.4,0,0,0,.271-2.227C655.665,389.017,650.83,381.928,641.4,376.483Z" transform="translate(-544.715 -362.482)" fill="#3893c0"/>
      <path id="Trazado_9413" data-name="Trazado 9413" d="M644.947,371.792c-10.82-6.246-25-9.368-39.18-9.368s-28.357,3.124-39.175,9.37-16.228,14.432-16.228,22.618,5.41,16.374,16.228,22.619,25,9.371,39.178,9.37,28.357-3.123,39.177-9.37,16.225-14.432,16.225-22.619S655.764,378.04,644.947,371.792Zm-4.024,43.36c-9.709,5.607-22.431,8.408-35.153,8.408s-25.447-2.8-35.155-8.408-14.56-12.95-14.56-20.3,4.853-14.691,14.56-20.3,22.429-8.4,35.152-8.407,25.448,2.8,35.156,8.407,14.56,12.952,14.56,20.3S650.628,409.55,640.923,415.153Z" transform="translate(-544.239 -362.047)" fill="#77d2ff"/>
      <path id="Trazado_9414" data-name="Trazado 9414" d="M641.4,376.483c-9.708-5.606-22.431-8.408-35.156-8.407s-25.444,2.8-35.152,8.407-14.56,12.951-14.56,20.3c0,7.088,4.532,14.172,13.571,19.7,6.219-8.213,16.616-18.78,33.043-27.423,13.33-7.013,29.467-9.46,41.915-10.2A43.139,43.139,0,0,0,641.4,376.483Z" transform="translate(-544.713 -362.482)" fill="#fff" opacity="0.3"/>
      <g id="Grupo_9943" data-name="Grupo 9943" transform="translate(19.994 7.674)" opacity="0.7">
        <path id="Trazado_9415" data-name="Trazado 9415" d="M601.1,370.54c-9.8.716-19.281,3.24-26.806,7.585a33.124,33.124,0,0,0-8.9,7.224,43.182,43.182,0,0,1,5.743-3.285c7.533-3.6,16.839-5.838,26.574-6.708A49.659,49.659,0,0,1,601.1,370.54Z" transform="translate(-565.389 -370.345)" fill="#fff"/>
        <path id="Trazado_9416" data-name="Trazado 9416" d="M642.942,378.109c-8.572-4.95-19.679-7.539-30.911-7.78a30.472,30.472,0,0,0-2.656,4.6c.373,0,.745-.013,1.117-.013,13.023,0,26.045,2.377,35.98,7.128a44.776,44.776,0,0,1,4.866,2.7A33.884,33.884,0,0,0,642.942,378.109Z" transform="translate(-568.772 -370.329)" fill="#fff"/>
      </g>
      <path id="Trazado_9417" data-name="Trazado 9417" d="M675.383,437.139l-21.613-12.373a3.191,3.191,0,0,0-3.2.322,10.032,10.032,0,0,0-4.539,7.862,3.177,3.177,0,0,0,1.344,2.947l21.614,12.375a3.2,3.2,0,0,0,3.195-.327,10.033,10.033,0,0,0,4.539-7.862A3.183,3.183,0,0,0,675.383,437.139Z" transform="translate(-551.597 -366.819)" fill="#77d2ff"/>
      <path id="Trazado_9418" data-name="Trazado 9418" d="M678.526,441.114a10.033,10.033,0,0,1-4.539,7.862,2.767,2.767,0,0,1-4.54-2.621,10.033,10.033,0,0,1,4.54-7.861,2.767,2.767,0,0,1,4.539,2.62Z" transform="translate(-553.398 -367.85)" fill="#b8bfc3"/>
      <path id="Trazado_9419" data-name="Trazado 9419" d="M646.666,430.377a8.385,8.385,0,0,0-.633,3.028,3.177,3.177,0,0,0,1.344,2.947l21.614,12.375a3.2,3.2,0,0,0,3.195-.327,8.322,8.322,0,0,0,2.249-1.991Z" transform="translate(-551.597 -367.273)" fill="#51acd9"/>
      <path id="Trazado_9420" data-name="Trazado 9420" d="M746.969,472.723l-66.6-37.343c-1.53-.87-3.635-.738-5.961.606a15.612,15.612,0,0,0-7.558,13.387c0,2.715.959,4.617,2.508,5.493l65.694,38.61c1.529.867,3.631.731,5.953-.609,4.672-2.7,8.461-9.258,8.461-14.654C749.47,475.5,748.515,473.6,746.969,472.723Z" transform="translate(-553.198 -367.616)" fill="#591bc2"/>
      <path id="Trazado_9421" data-name="Trazado 9421" d="M667.6,445.449a15.668,15.668,0,0,0-.749,4.74c0,2.715.959,4.617,2.508,5.493l65.694,38.61c1.529.867,3.631.731,5.953-.609a15.36,15.36,0,0,0,4.043-3.521Z" transform="translate(-553.198 -368.433)" fill="#3f02a8"/>
      <path id="Trazado_9422" data-name="Trazado 9422" d="M754.943,481.324c0,5.4-3.789,11.956-8.461,14.654-2.322,1.34-4.424,1.476-5.953.609-1.549-.877-2.507-2.779-2.507-5.493,0-5.4,3.787-11.956,8.46-14.655,2.326-1.342,4.433-1.475,5.96-.6C753.988,476.713,754.943,478.613,754.943,481.324Z" transform="translate(-558.671 -370.727)" fill="#7334dc"/>
      <path id="Trazado_9423" data-name="Trazado 9423" d="M755.3,482.151a17.349,17.349,0,0,1-7.848,13.594c-2.154,1.242-4.1,1.367-5.523.564-1.435-.812-2.325-2.577-2.325-5.1a17.347,17.347,0,0,1,7.848-13.594c2.157-1.245,4.111-1.368,5.529-.561S755.3,479.639,755.3,482.151Z" transform="translate(-558.793 -370.824)" fill="#3f02a8"/>
    </g>
    <g id="Grupo_9951" data-name="Grupo 9951" transform="translate(826.639 244.283)">
      <path id="Trazado_9424" data-name="Trazado 9424" d="M465.26,467.677c-11.127,6.424-5.289,20.209,13.039,30.791S520.5,512.419,531.63,506s5.288-20.209-13.04-30.792S476.388,461.253,465.26,467.677Z" transform="translate(-459.617 -286.947)" opacity="0.1" style="mix-blend-mode: multiply;isolation: isolate"/>
      <g id="Grupo_9950" data-name="Grupo 9950" transform="translate(13.648 0)">
        <path id="Trazado_9425" data-name="Trazado 9425" d="M522.424,433.837c-1.343,6.717-2.745,20.679-3.912,26.812s-1.636,10.864-1.109,14.778a60.375,60.375,0,0,0,2.26,9.078s2.178,3.08.372,3.931-3.293-.8-5.046-3.348-7.358-7.622-8.394-8.659c.569-.568,1.051-.885,1.288-3.807s-2.338-16-3.1-21.262,3.563-16.181,4.5-19.438-.466-8.075-1.868-12.924-2.046-20.036-2.046-20.036-2.861-16.882-.7-21.671,19.977-2.571,22.606.594,2.981,15.7,2.044,24.7S523.769,427.119,522.424,433.837Z" transform="translate(-476.668 -280.033)" fill="#cc9a75"/>
        <path id="Trazado_9426" data-name="Trazado 9426" d="M487.09,459.677l-.426,4.463s2.178.212,1.646,1.964-2.284.585-2.55-.85a4.869,4.869,0,0,0-2.6-2.973c-.955-.532-4.993-2.6-4.993-2.6a24.357,24.357,0,0,0,1.611-4.194c.438-1.843-.9-12.757-1.418-19.35s5.352-15.275,7.376-20.628-.85-17.429-1.633-28.592,3.4-17.494,3.4-17.494l17.821,7.639v11.1s-1.927,10.417-3.852,19.388-6.07,16.581-7.311,19.583-4.831,16.712-5.848,21.607A76.146,76.146,0,0,0,487.09,459.677Z" transform="translate(-474.692 -279.641)" fill="#cc9a75"/>
        <path id="Trazado_9427" data-name="Trazado 9427" d="M512.382,450.117c1.8-6.625,4.417-20.5,2.554-29.882s2.49-45.528,2.49-45.528h0c4.7.45,9.224,1.719,10.447,3.194,2.629,3.165,2.981,15.7,2.044,24.7s-5.548,24.534-6.893,31.251-2.745,20.679-3.912,26.812-1.636,10.864-1.11,14.778a60.38,60.38,0,0,0,2.26,9.078s2.178,3.08.372,3.931-3.293-.8-5.046-3.348a31.743,31.743,0,0,0-3.182-3.617c.094-.388.219-.831.387-1.348.966-2.968-.069-4.625,0-5.177S510.588,456.743,512.382,450.117Z" transform="translate(-477.271 -280.047)" fill="#b3815c"/>
        <path id="Trazado_9428" data-name="Trazado 9428" d="M483.912,446.812c.519-9.33,1.85-17.252,3.111-20.287s4.811-7.7,5.256-15.179c.315-5.311,1.4-26.844,2.007-38.875l11.249,4.821v11.1s-1.927,10.417-3.852,19.388-6.07,16.581-7.311,19.583-4.831,16.712-5.848,21.607a76.144,76.144,0,0,0-1.218,10.945l-.426,4.463s2.179.212,1.646,1.964-2.284.585-2.55-.85a4.869,4.869,0,0,0-2.6-2.973c-.414-.231-1.407-.75-2.4-1.266A53.945,53.945,0,0,0,483.912,446.812Z" transform="translate(-474.908 -279.875)" fill="#b3815c"/>
        <path id="Trazado_9429" data-name="Trazado 9429" d="M507.2,308.561l.144.217,5.794,2.978L514.7,316.5l-9.337-4.214Z" transform="translate(-476.784 -274.96)" fill="#fff"/>
        <path id="Trazado_9430" data-name="Trazado 9430" d="M536,353.887l-13.317-6.366,2.936-5.239Z" transform="translate(-478.115 -277.554)" fill="#c747aa"/>
        <path id="Trazado_9431" data-name="Trazado 9431" d="M541.3,341.492s.3-4.639,0-4.941-7.169-1.807-7.169-1.807Z" transform="translate(-478.996 -276.974)" fill="#ffcda8"/>
        <path id="Trazado_9432" data-name="Trazado 9432" d="M541.591,336.637a.379.379,0,0,1,.107.059c.3.3,0,4.941,0,4.941l-2.4-2.256C540.1,338.363,540.894,337.432,541.591,336.637Z" transform="translate(-479.394 -277.12)" fill="#d9a782"/>
        <path id="Trazado_9433" data-name="Trazado 9433" d="M506.463,484.92s-3.293,1.541-4.117,4.118,1.037,4.753,1.673,7.145.638,8.659.638,8.659l1.116-.321s-.106-5.842.69-7.171,2.815-1.274,4.462,0,6.376,5.9,9.083,5.9,11.421-7.383,11-9.455-11.475-.8-11.475-.8,2.178,3.08.372,3.931-3.293-.8-5.046-3.348S507.5,485.957,506.463,484.92Z" transform="translate(-476.536 -288.524)" fill="#190082"/>
        <path id="Trazado_9434" data-name="Trazado 9434" d="M477.877,467.13s4.038,2.072,4.993,2.6a4.869,4.869,0,0,1,2.6,2.973c.266,1.435,2.019,2.6,2.55.85s-1.646-1.964-1.646-1.964l.426-4.463s2.708-1.062,3.187-.743.265,9.614-1.648,11.527c-2.656,2.657-6.641-.478-7.7-.425a4.359,4.359,0,0,0-3.028,3.027c-.849,2.6-1.328,4.727-1.328,4.727l-1.062-.318s1.38-5.154.69-7.385-1.806-4.088-1.434-5.895S477.877,467.13,477.877,467.13Z" transform="translate(-474.403 -287.094)" fill="#190082"/>
        <path id="Trazado_9435" data-name="Trazado 9435" d="M527.242,379.593s1.163,4.2,1.454,15.552-4.86,26.4-4.86,26.4-4.831,3.007-12.543,2.044c-3.59-.45-22.939-8.5-25.061-13.839,0,0-2.408-22.016-2.408-28.956s5.591-15.615,5.591-15.615S523.815,365,527.242,379.593Z" transform="translate(-475.127 -279.314)" fill="#9088f1"/>
        <path id="Trazado_9436" data-name="Trazado 9436" d="M527.242,379.593s1.163,4.2,1.454,15.552-4.86,26.4-4.86,26.4a19.291,19.291,0,0,1-9.461,2.231c.734-9.706.018-22.154-.768-25.388-.972-3.988-9.7-5.281-18.539-8.3a27.587,27.587,0,0,1-11.2-7.435c-.028-.7-.042-1.326-.042-1.862,0-6.941,5.591-15.615,5.591-15.615S523.815,365,527.242,379.593Z" transform="translate(-475.127 -279.314)" fill="#766ed7"/>
        <path id="Trazado_9437" data-name="Trazado 9437" d="M521.112,321.534s4.231,12.1,3.807,15.994-2.593,12.608-1.888,16.415,5.188,24.286,5.951,29.108c0,0-1.9,3.455-13.94,4.217S487.251,380.8,482.85,375.13c0,0,3.059-10.271,5.6-15.094s7.448-10.324,6.092-14.724-13.452-24.454-13.792-29.362,1.354-9.14,3.977-10.239,12.129.592,12.129.592a83.26,83.26,0,0,1,12.993,6.228C514.245,315.143,519.541,319.2,521.112,321.534Z" transform="translate(-474.887 -274.713)" fill="#fe61ca"/>
        <path id="Trazado_9438" data-name="Trazado 9438" d="M511,338.244c.164-5.261,7.623-10.556,12.961-13.68,1.12,3.391,3.616,11.409,3.285,14.442-.423,3.892-2.593,12.608-1.888,16.415s5.188,24.286,5.951,29.108c0,0-1.9,3.455-13.94,4.217a39.661,39.661,0,0,1-4.545.01C518.111,370.561,510.757,346.153,511,338.244Z" transform="translate(-477.217 -276.191)" fill="#c747aa"/>
        <path id="Trazado_9439" data-name="Trazado 9439" d="M517.107,318.388c1.669-.438,8.419,3.681,11.89,8.927s13.327,14.338,14.6,16.965,1.5,8.168-.677,9.563c-3.161,2.029-9.866-3-13.42-6.043s-13.066-10.289-16.029-17.313S513.554,319.319,517.107,318.388Z" transform="translate(-477.315 -275.714)" fill="#fe61ca"/>
        <g id="Grupo_9949" data-name="Grupo 9949" transform="translate(7.296)">
          <path id="Trazado_9440" data-name="Trazado 9440" d="M505.248,315.713s-.431-6.939.6-9.506,1.93-2.992,3.1-3.262c.9-.211,2.757.307,4.85-3.87s1.305-5.957,1.659-7.735.888-3.021.586-4.743-.873-8.136-5.921-10.323-11.213-1.81-14.584.138-6.029,6.491-6,11.216,2.6,7.673,2.64,10.892-1.942,7.176-3.868,9.668,2.082,6,4.823,7.281A16,16,0,0,0,505.248,315.713Z" transform="translate(-482.729 -272.363)" fill="#ffcda8"/>
          <path id="Trazado_9441" data-name="Trazado 9441" d="M509.68,300.221a59.958,59.958,0,0,1-.152-6.464l-5.84,4.395s.445,11.91-2.971,17.083a3.159,3.159,0,0,0-.371,3.026,16.3,16.3,0,0,0,5.851-1.089s-.431-6.939.6-9.506,1.93-2.992,3.1-3.262a6.407,6.407,0,0,0,1.915-.418A5.626,5.626,0,0,1,509.68,300.221Z" transform="translate(-483.676 -273.822)" fill="#d9a782"/>
          <path id="Trazado_9442" data-name="Trazado 9442" d="M511.512,315.439c-1.435-9.356-4.579-16.161-1.263-19.506l.776-1.149c.069-.015.433,1.291,1.486,1.006.528-.143,1.219-2.984,1.839-4.61.15-.391.363-.9.6-1.446a49.336,49.336,0,0,1-4.16,3.875l-.279-.3s4.92-4.11,6.616-7.47c0,0-3.5,4.365-5.669,5.589s-4.741,2.607-3.794,9c.75,5.058,3.728,13.5,3.535,19.2A10.077,10.077,0,0,0,511.512,315.439Z" transform="translate(-484.241 -273.213)" fill="#6d2d3d"/>
          <path id="Trazado_9443" data-name="Trazado 9443" d="M513.306,276.528c-1.967-2.391-5.383-5.036-13.148-4.214-3.742.4-6.763,3.271-8.262,5.327-1.678,2.3-3.207,5.608-2.817,12.228s.04,12.219-4.247,16.488c-2.387,2.375-3.553,9.1-1.373,13.178a12.18,12.18,0,0,1,.217-8.606c.026-.065.042-.1.042-.1-.016.033-.028.066-.042.1a12.65,12.65,0,0,0,.746,9.975,5.586,5.586,0,0,0,1.566,1.209c5.622,2.9,12.86,5.066,14.472,4.913a9.261,9.261,0,0,0,4.584-2.376,15.208,15.208,0,0,1-1.853,1.951c3.366-1.466,5.116-5.316,5.838-7.378a20.483,20.483,0,0,1-1.354,4.591s2.213-3.59,2.353-6.462-1.3-7.564-1.3-7.564v0c-1.474-7-3.157-12.141-.411-14.911l.776-1.149c.069-.015.433,1.29,1.486,1.006.528-.143,1.219-2.984,1.839-4.61.15-.39.363-.9.6-1.446C519.623,283.2,513.306,276.528,513.306,276.528Z" transform="translate(-482.306 -272.161)" fill="#9013b9"/>
          <path id="Trazado_9444" data-name="Trazado 9444" d="M514.776,286.478c-1.434,2.411-3.962,3.006-6.908,5.8s-2.888,9.46-1.081,15.536a37.868,37.868,0,0,1,1.619,11.03,26.439,26.439,0,0,0-2.474-9.662s2.288,6.383,1.055,10.72a11.2,11.2,0,0,1-5.113,6.351,19.156,19.156,0,0,0,2.755-4.65,11.1,11.1,0,0,1-5.338,4.8,19.11,19.11,0,0,0,4.841-17.126c.363,15.853-9.6,16.46-9.6,16.46l.807-1.552c-.551.594-1.864,1.6-2.764.993a6.512,6.512,0,0,1-1.569-2.652l-.083,2.194c-.967-.542-2.177-2.851-2.177-2.851l-.069,1.843c-3.23-4.719-.446-14.583-.446-14.583-3.312,7.668-1.32,13.682-1.32,13.682-2.549-2.338-2.35-7.6-2.35-7.6a7.874,7.874,0,0,0-.146,3.861c-.522-1.294-1.3-4.706,1.646-9.824s3.309-8.443,3.309-8.443a19.991,19.991,0,0,1-1.605,3.631,18.3,18.3,0,0,0,1.435-9.787h0c-.006,5.035-.9,9.363-4.369,12.821-2.387,2.375-3.553,9.1-1.373,13.178a12.18,12.18,0,0,1,.217-8.606c.026-.065.042-.1.042-.1-.016.033-.028.066-.042.1a12.65,12.65,0,0,0,.746,9.975,5.586,5.586,0,0,0,1.566,1.209c5.622,2.9,12.86,5.066,14.472,4.913a9.261,9.261,0,0,0,4.584-2.376,15.208,15.208,0,0,1-1.853,1.951c3.366-1.466,5.116-5.316,5.838-7.378a20.483,20.483,0,0,1-1.354,4.591s2.213-3.59,2.353-6.462-1.3-7.564-1.3-7.564v0c-1.474-7-3.157-12.141-.411-14.911l.776-1.149c.069-.015.433,1.29,1.486,1.006.528-.143,1.219-2.984,1.839-4.61.15-.39.363-.9.6-1.446l-2.1,1.012A13.366,13.366,0,0,0,514.776,286.478Z" transform="translate(-482.306 -273.262)" fill="#7700a0"/>
          <path id="Trazado_9445" data-name="Trazado 9445" d="M510.966,300.593c-.188.3-2.359.486-2-3.255s2.87-4.616,2.809-1.88A20.854,20.854,0,0,1,510.966,300.593Z" transform="translate(-484.354 -273.83)" fill="#ffcda8"/>
          <path id="Trazado_9446" data-name="Trazado 9446" d="M500.718,272.314c-3.742.4-6.763,3.271-8.262,5.327-1.678,2.3-3.207,5.608-2.817,12.228.078,1.3.125,2.558.12,3.775a29.943,29.943,0,0,1,.786,2.95c.438,2.606-.643,8.725-.643,8.725a29.066,29.066,0,0,0,1.2-5.757c.536,2.342-1.009,10.17-1.009,10.17,1.6-2.747,3.041-9.385,2.719-18.574a19.557,19.557,0,0,1,8.036-16.472,11.986,11.986,0,0,1,8.429-1.545A17.946,17.946,0,0,0,500.718,272.314Z" transform="translate(-482.866 -272.161)" fill="#7700a0"/>
          <g id="Grupo_9945" data-name="Grupo 9945" transform="translate(8.819 9.194)">
            <path id="Trazado_9447" data-name="Trazado 9447" d="M498.812,282.121a7.711,7.711,0,0,0-.967,1.12,12.165,12.165,0,0,0-1.748,3.478,13.471,13.471,0,0,0-.546,2.553,21.514,21.514,0,0,0-.087,2.929c.033,2.048.107,4.243.1,6.454a45.086,45.086,0,0,1-1.318,11.954,15.086,15.086,0,0,1-1.523,3.619,9.408,9.408,0,0,1-.858,1.209,9.639,9.639,0,0,0,.826-1.256,15.573,15.573,0,0,0,1.413-3.68,33.571,33.571,0,0,0,.882-5.491c.177-2.027.238-4.195.247-6.355s-.039-4.331-.044-6.375a22.155,22.155,0,0,1,.131-2.956,13.31,13.31,0,0,1,.6-2.592,11.951,11.951,0,0,1,1.869-3.5A7.678,7.678,0,0,1,498.812,282.121Z" transform="translate(-491.86 -282.121)" fill="#7700a0"/>
          </g>
          <g id="Grupo_9946" data-name="Grupo 9946" transform="translate(13.435 14.251)">
            <path id="Trazado_9448" data-name="Trazado 9448" d="M496.861,319.682a43.684,43.684,0,0,0,1.726-4.772,34.131,34.131,0,0,0,1.143-5.095,18.864,18.864,0,0,0,.184-2.941c-.032-1-.141-2.037-.213-3.068a82.329,82.329,0,0,1-.376-11.3,15.784,15.784,0,0,1,.591-3.641,5.071,5.071,0,0,1,.574-1.268,5.087,5.087,0,0,0-.531,1.306,16.338,16.338,0,0,0-.474,3.674,104.163,104.163,0,0,0,.542,11.2c.075,1.016.174,2.022.2,3.04a18.2,18.2,0,0,1-.215,2.964,31.606,31.606,0,0,1-1.251,5.114A40.078,40.078,0,0,1,496.861,319.682Z" transform="translate(-496.861 -287.599)" fill="#7700a0"/>
          </g>
          <g id="Grupo_9947" data-name="Grupo 9947" transform="translate(14.098 4.323)">
            <path id="Trazado_9449" data-name="Trazado 9449" d="M509.16,276.85a7.847,7.847,0,0,0-2.816.66,10.78,10.78,0,0,0-2.558,1.514,13.487,13.487,0,0,0-2.386,2.467,21.383,21.383,0,0,0-2.966,5.7c-.586,1.652-.847,2.789-.855,2.785a27.189,27.189,0,0,1,.711-2.872,18.822,18.822,0,0,1,2.847-5.811,12.548,12.548,0,0,1,2.445-2.464,10.337,10.337,0,0,1,2.67-1.458A7.515,7.515,0,0,1,509.16,276.85Z" transform="translate(-497.579 -276.844)" fill="#7700a0"/>
          </g>
          <g id="Grupo_9948" data-name="Grupo 9948" transform="translate(18.07 7.717)">
            <path id="Trazado_9450" data-name="Trazado 9450" d="M512.281,280.521a8.391,8.391,0,0,0-1.462.664,12.373,12.373,0,0,0-3.286,2.651,13.312,13.312,0,0,0-2.807,5.258,17.721,17.721,0,0,0-.58,3.353c-.1,1.166-.16,2.356-.182,3.549-.055,2.39.1,4.764.117,6.993a28.477,28.477,0,0,1-.542,6.043,34.988,34.988,0,0,1-1.119,4.113c-.328.972-.542,1.516-.538,1.517s.2-.562.5-1.558a35.781,35.781,0,0,0,1.011-4.174,29.5,29.5,0,0,0,.411-6.018c-.054-2.206-.221-4.565-.166-6.921.021-1.178.088-2.357.193-3.515a17.305,17.305,0,0,1,.611-3.379,13.319,13.319,0,0,1,2.922-5.316,12.257,12.257,0,0,1,3.41-2.628A8.4,8.4,0,0,1,512.281,280.521Z" transform="translate(-501.882 -280.521)" fill="#7700a0"/>
          </g>
        </g>
      </g>
    </g>
    <path id="Trazado_9451" data-name="Trazado 9451" d="M690.892,507.571c1.815,1.048,1.815,2.763,0,3.811l-13.943,8.05a7.317,7.317,0,0,1-6.6,0l-13.943-8.05c-1.815-1.048-1.816-2.763,0-3.811l13.944-8.05a7.317,7.317,0,0,1,6.6,0Z" transform="translate(351.992 -45.303)" fill="#e3def7"/>
    <path id="Trazado_9452" data-name="Trazado 9452" d="M442.3,412.99c1.815,1.049,1.815,2.764,0,3.811l-13.943,8.05a7.322,7.322,0,0,1-6.6,0L407.81,416.8c-1.815-1.048-1.816-2.763,0-3.811l13.944-8.049a7.317,7.317,0,0,1,6.6,0Z" transform="translate(371.111 -38.029)" fill="#e3def7"/>
    <path id="Trazado_9453" data-name="Trazado 9453" d="M782.013,462.423c1.293.748,1.293,1.97,0,2.716l-9.935,5.735a5.219,5.219,0,0,1-4.7,0l-9.936-5.735c-1.292-.746-1.293-1.968,0-2.716l9.936-5.736a5.219,5.219,0,0,1,4.7,0Z" transform="translate(344.192 -42.026)" fill="#e3def7"/>
    <path id="Trazado_9454" data-name="Trazado 9454" d="M816.87,476.889a.919.919,0,0,1,0,1.739l-6.362,3.672a3.34,3.34,0,0,1-3.011,0l-6.362-3.672a.919.919,0,0,1,0-1.739l6.362-3.673a3.345,3.345,0,0,1,3.011,0Z" transform="translate(340.805 -43.313)" fill="#e3def7"/>
    <path id="Trazado_9455" data-name="Trazado 9455" d="M592.906,493.023c1.362.786,1.362,2.072,0,2.858l-10.453,6.034a5.49,5.49,0,0,1-4.949,0l-10.453-6.034c-1.36-.786-1.362-2.071,0-2.858l10.453-6.035a5.491,5.491,0,0,1,4.949,0Z" transform="translate(358.838 -44.354)" fill="#e3def7"/>
    <path id="Trazado_9456" data-name="Trazado 9456" d="M442.73,449.3a.919.919,0,0,1,0,1.739l-6.361,3.672a3.342,3.342,0,0,1-3.012,0L427,451.034a.919.919,0,0,1,0-1.739l6.361-3.673a3.342,3.342,0,0,1,3.012,0Z" transform="translate(369.578 -41.191)" fill="#e3def7"/>
  </g>
</svg>
