<svg xmlns="http://www.w3.org/2000/svg" width="374.799" height="383.653" viewBox="0 0 374.799 383.653">
  <g id="Grupo_10463" data-name="Grupo 10463" transform="translate(676.024 -78.371)">
    <path id="Trazado_10428" data-name="Trazado 10428" d="M-542.945,300.078l106.826-61.94Z" transform="translate(134.894 161.946)" fill="#e6eef3"/>
    <g id="Grupo_10454" data-name="Grupo 10454" transform="translate(-634.887 78.371)">
      <g id="Grupo_10413" data-name="Grupo 10413" transform="translate(188.2 73.537)">
        <path id="Trazado_10429" data-name="Trazado 10429" d="M-504.132,141.277s-.65,26.326-.65,32.25.824,18.3-9.6,22.7-25.178,10.159-25.178,10.159l13.977,9s14.1-6.132,21.339-10.6c10.191-6.283,9.124-23.447,9.124-34.355a235.346,235.346,0,0,0-1.86-25.128Z" transform="translate(585.012 -88.143)" fill="#1b151f"/>
        <path id="Trazado_10430" data-name="Trazado 10430" d="M-536.752,233.576h0A5.594,5.594,0,0,1-542.33,228V176.52a5.6,5.6,0,0,1,5.578-5.58h0a5.6,5.6,0,0,1,5.58,5.58V228A5.6,5.6,0,0,1-536.752,233.576Z" transform="translate(582.204 -58.076)" fill="#3f3b44"/>
        <g id="Grupo_10405" data-name="Grupo 10405" transform="translate(10.157 89.494)">
          <ellipse id="Elipse_626" data-name="Elipse 626" cx="35.295" cy="18.774" rx="35.295" ry="18.774" transform="translate(0 12.641)" fill="#e8e8e8"/>
          <rect id="Rectángulo_2700" data-name="Rectángulo 2700" width="70.59" height="4.086" transform="translate(0 27.874)" fill="#e8e8e8"/>
          <path id="Trazado_10431" data-name="Trazado 10431" d="M-486.5,182.628c0,10.368-15.8,18.773-35.3,18.773s-35.3-8.4-35.3-18.773,15.8-18.775,35.3-18.775S-486.5,172.258-486.5,182.628Z" transform="translate(557.088 -154.753)" fill="#fff"/>
          <ellipse id="Elipse_627" data-name="Elipse 627" cx="33.628" cy="17.888" rx="33.628" ry="17.888" transform="translate(1.668 7.949)" fill="#3f3b44"/>
          <path id="Trazado_10432" data-name="Trazado 10432" d="M-554.477,166.459l-1.783,11.49H-489l-1.786-11.49Z" transform="translate(557.928 -152.112)" fill="#3f3b44"/>
          <path id="Trazado_10433" data-name="Trazado 10433" d="M-490.988,176.518c0,9.492-14.466,17.186-32.309,17.186s-32.307-7.694-32.307-17.186,14.464-17.184,32.307-17.184S-490.988,167.028-490.988,176.518Z" transform="translate(558.592 -159.334)" fill="#302a35"/>
        </g>
        <g id="Grupo_10406" data-name="Grupo 10406" transform="translate(2.968 197.932)">
          <path id="Trazado_10434" data-name="Trazado 10434" d="M-551.262,217.3c0,3.461-2.1,7.481-4.7,8.979s-4.7-.093-4.7-3.552,2.1-7.479,4.7-8.977S-551.262,213.841-551.262,217.3Z" transform="translate(560.658 -213.186)" fill="#3f3b44"/>
          <path id="Trazado_10435" data-name="Trazado 10435" d="M-550.309,215.415l-3.625-2.128-5.912,13.141,3.775,2.177Z" transform="translate(561.481 -213.083)" fill="#3f3b44"/>
          <path id="Trazado_10436" data-name="Trazado 10436" d="M-549.377,218.391c0,3.459-2.1,7.479-4.7,8.977s-4.7-.093-4.7-3.552,2.1-7.479,4.7-8.977S-549.377,214.931-549.377,218.391Z" transform="translate(562.569 -212.082)" fill="#1b151f"/>
        </g>
        <g id="Grupo_10407" data-name="Grupo 10407" transform="translate(4.426 151.207)">
          <path id="Trazado_10437" data-name="Trazado 10437" d="M-559.409,238.692h0a3.912,3.912,0,0,1,1.432-5.344l74.227-42.842a3.914,3.914,0,0,1,5.344,1.432h0a3.912,3.912,0,0,1-1.432,5.344l-74.229,42.842A3.909,3.909,0,0,1-559.409,238.692Z" transform="translate(559.934 -189.982)" fill="#3f3b44"/>
        </g>
        <g id="Grupo_10408" data-name="Grupo 10408" transform="translate(4.426 151.207)">
          <path id="Trazado_10438" data-name="Trazado 10438" d="M-483.75,240.124l-74.227-42.842a3.911,3.911,0,0,1-1.432-5.344h0a3.911,3.911,0,0,1,5.342-1.432l74.229,42.842a3.912,3.912,0,0,1,1.432,5.344h0A3.912,3.912,0,0,1-483.75,240.124Z" transform="translate(559.934 -189.982)" fill="#3f3b44"/>
        </g>
        <g id="Grupo_10409" data-name="Grupo 10409" transform="translate(75.741 155.056)">
          <path id="Trazado_10439" data-name="Trazado 10439" d="M-515.12,196.009c0,3.459-2.1,7.479-4.7,8.977s-4.7-.093-4.7-3.552,2.1-7.479,4.7-8.977S-515.12,192.549-515.12,196.009Z" transform="translate(524.518 -191.893)" fill="#3f3b44"/>
          <path id="Trazado_10440" data-name="Trazado 10440" d="M-514.167,194.122l-3.626-2.128-5.912,13.141,3.776,2.176Z" transform="translate(525.342 -191.79)" fill="#3f3b44"/>
          <path id="Trazado_10441" data-name="Trazado 10441" d="M-513.236,197.1c0,3.459-2.1,7.479-4.7,8.977s-4.7-.093-4.7-3.552,2.1-7.479,4.7-8.977S-513.236,193.638-513.236,197.1Z" transform="translate(526.43 -190.789)" fill="#1b151f"/>
        </g>
        <g id="Grupo_10410" data-name="Grupo 10410" transform="translate(71.164 199.028)">
          <path id="Trazado_10442" data-name="Trazado 10442" d="M-517.4,217.846c0,3.459-2.1,7.479-4.7,8.977s-4.7-.093-4.7-3.552,2.1-7.479,4.7-8.977S-517.4,214.386-517.4,217.846Z" transform="translate(526.791 -213.73)" fill="#3f3b44"/>
          <path id="Trazado_10443" data-name="Trazado 10443" d="M-516.441,215.96l-3.625-2.128-5.912,13.141,3.775,2.176Z" transform="translate(527.615 -213.627)" fill="#3f3b44"/>
          <path id="Trazado_10444" data-name="Trazado 10444" d="M-515.509,218.936c0,3.459-2.1,7.479-4.7,8.975s-4.7-.091-4.7-3.552,2.1-7.477,4.7-8.975S-515.509,215.475-515.509,218.936Z" transform="translate(528.703 -212.626)" fill="#1b151f"/>
        </g>
        <g id="Grupo_10411" data-name="Grupo 10411" transform="translate(0 157.497)">
          <path id="Trazado_10445" data-name="Trazado 10445" d="M-552.734,197.221c0,3.459-2.1,7.479-4.7,8.977s-4.7-.091-4.7-3.552,2.1-7.479,4.7-8.977S-552.734,193.761-552.734,197.221Z" transform="translate(562.132 -193.105)" fill="#3f3b44"/>
          <path id="Trazado_10446" data-name="Trazado 10446" d="M-551.782,195.335l-3.626-2.128-5.912,13.141,3.775,2.176Z" transform="translate(562.956 -193.002)" fill="#3f3b44"/>
          <path id="Trazado_10447" data-name="Trazado 10447" d="M-550.85,198.311c0,3.459-2.1,7.479-4.7,8.977s-4.7-.093-4.7-3.552,2.1-7.479,4.7-8.977S-550.85,194.851-550.85,198.311Z" transform="translate(564.044 -192)" fill="#1b151f"/>
        </g>
        <g id="Grupo_10412" data-name="Grupo 10412" transform="translate(54.329)">
          <path id="Trazado_10448" data-name="Trazado 10448" d="M-483.537,223.858l-45.651-26.489s-4.253-31.224-2.948-48.412c1.524-20.092,1.691-44.568,28.064-29.28,23.513,13.628,23.3,21.075,21.31,44.584C-485.023,190.977-483.537,223.858-483.537,223.858Z" transform="translate(537.956 -114.89)" fill="#1b151f"/>
          <path id="Trazado_10449" data-name="Trazado 10449" d="M-521.121,115.038s-7.624,2.886-10.181,5.819c-3.161,3.629,9.847,6.985,10.181,7.09S-521.121,115.038-521.121,115.038Z" transform="translate(538.552 -114.74)" fill="#1b151f"/>
          <path id="Trazado_10450" data-name="Trazado 10450" d="M-503.136,172.662l-5.571,3.183-4.343-7.158,4.987-3.289Z" transform="translate(557.555 -63.693)" fill="#1b151f"/>
          <path id="Trazado_10451" data-name="Trazado 10451" d="M-486.3,225.439l-45.651-26.489s-4.253-31.224-2.948-48.412c1.524-20.092,1.692-44.568,28.066-29.28,23.511,13.628,23.3,21.075,21.308,44.584C-487.79,192.556-486.3,225.439-486.3,225.439Z" transform="translate(535.152 -113.287)" fill="#3f3b44"/>
          <path id="Trazado_10452" data-name="Trazado 10452" d="M-531.993,154.513l38.14,22.019v2.418l-37.736-21.786Q-531.782,155.842-531.993,154.513Z" transform="translate(538.353 -74.727)" fill="#1b151f"/>
          <path id="Trazado_10453" data-name="Trazado 10453" d="M-532.576,150.973l39.314,22.7v2.418l-38.867-22.438Q-532.352,152.313-532.576,150.973Z" transform="translate(537.762 -78.315)" fill="#1b151f"/>
          <path id="Trazado_10454" data-name="Trazado 10454" d="M-533.173,147.15l40.516,23.392v2.418l-40.13-23.167C-532.921,148.912-533.048,148.032-533.173,147.15Z" transform="translate(537.157 -82.19)" fill="#1b151f"/>
          <path id="Trazado_10455" data-name="Trazado 10455" d="M-492.322,167.619v2.419l-40.853-23.586-.329-2.609Z" transform="translate(536.822 -85.543)" fill="#1b151f"/>
          <path id="Trazado_10456" data-name="Trazado 10456" d="M-533.706,141.555c-.006-.344,0-.691,0-1.035l41.6,24.017v2.42l-41.332-23.864Z" transform="translate(536.613 -88.91)" fill="#1b151f"/>
          <path id="Trazado_10457" data-name="Trazado 10457" d="M-533.442,137.138l41.264,23.823v2.42l-41.467-23.942C-533.591,138.67-533.528,137.9-533.442,137.138Z" transform="translate(536.679 -92.339)" fill="#1b151f"/>
        </g>
      </g>
      <g id="Grupo_10417" data-name="Grupo 10417" transform="translate(157.079 48.263)">
        <g id="Grupo_10414" data-name="Grupo 10414" transform="translate(0 30.669)">
          <path id="Trazado_10458" data-name="Trazado 10458" d="M-516.006,117.579c-.441-.358-12.311,9.77-17.023,17.73s-10.682,19.476-10.682,19.476-7.056-9.162-10.674-13.687a49.3,49.3,0,0,0-6.877-7.12,18.99,18.99,0,0,1-3.256,3.252,10.714,10.714,0,0,0-2.638,2.823s8.524,19.55,14.494,26.606,10.05,6.228,14.029,3.814c3.451-2.092,14.241-15.082,14.241-15.082S-506.209,125.539-516.006,117.579Z" transform="translate(588.161 -117.569)" fill="#f478be"/>
          <path id="Trazado_10459" data-name="Trazado 10459" d="M-550.689,132.862a63.269,63.269,0,0,0-4.885-6.218c-1.989-2.04-2.531-1.78-8.683-2.9s-6.875-3.84-10.674-4.925-3.8,4.162,1.808,9.226,11.58,5.066,13.57,6.967a15.291,15.291,0,0,1,2.97,3.929S-551.593,137.5-550.689,132.862Z" transform="translate(577.587 -116.453)" fill="#ffd0ca"/>
        </g>
        <path id="Trazado_10460" data-name="Trazado 10460" d="M-552.889,170.334s-1.812,3-3.9,5.725-5.691,6.629-5.493,10.58c.274,5.475.624,11.027,1.49,17.821.818,6.4,1.158,32.869.791,41.3-.149,3.4-6.323,6.323-11.331,9.571-3.9,2.529,2.729,6.8,1.492,8.56-2.072,2.95,6.361-.664,9.047-1.927s14.47-6.218,12.722-12.96,1.365-22.468,2.94-34.069a114.809,114.809,0,0,0,1.26-20.1c-.062-4.2,13.9-16.216,14.482-17.563C-527.934,173.9-552.889,170.334-552.889,170.334Z" transform="translate(582.661 -33.417)" fill="#ffd0ca"/>
        <path id="Trazado_10461" data-name="Trazado 10461" d="M-550.041,188.089a16.191,16.191,0,0,0-4.341,13.9,92.256,92.256,0,0,1,1.939,16.971c.032,6.458,1.236,31.284.87,39.711s-2.322,14.037-2.894,17.6c-1.075,6.689,1.23,23.131,6.085,18.918s3.637-6.836,6.325-8.1,3.431-16.953,1.683-23.694,3.51-22.575,4.555-34.234c1.1-12.315-1.973-25.825.381-28.642,4.752-5.691,14.689-10.632,15.028-16.4.423-7.175-6.738-19-13.83-15.779C-536.606,169.416-541.193,179.221-550.041,188.089Z" transform="translate(600.759 -35.989)" fill="#ffd0ca"/>
        <path id="Trazado_10462" data-name="Trazado 10462" d="M-495.739,156.241s9.285,18.576,2.964,29.985c-5.213,9.412-32.025,30.289-32.025,30.289s-4.134-8.572-16.069-11.2a106.74,106.74,0,0,1,7.664-12.73c-4.74,4.5-6.6,8.534-13.83,13.88-6.4-9.8-18.187-10.612-18.187-10.612l32.255-43.841S-517.8,168.935-495.739,156.241Z" transform="translate(590.121 -51.984)" fill="#1b151f"/>
        <path id="Trazado_10463" data-name="Trazado 10463" d="M-502.028,141.424c-.455-2.275-3.363-6.168-6.788-9.21a18.166,18.166,0,0,0-5.334-3.554s-7.654,5.517-10.35,7.426a66.67,66.67,0,0,0-7.346,7.032l-.062-.01a56.371,56.371,0,0,1,3.832-14.289c.918-2.173,0-8.7,0-8.7s-1.021-.306-2.5-.644c-2.364,2.374-7.094,8.757-9.617,11.373-2.437,2.525-11.8,10.324-9.692,18.96a70.316,70.316,0,0,0,2.634,8.008c1.333,3.588,1.877,10.451,1.508,14.077-.423,4.168-4.742,16.407-4.742,16.407s8.022,9.15,18.288,10.042c16.169,1.406,24.168-2.871,24.168-2.871s-5.284-24.091-1.764-30.732C-506.919,159.307-499.146,155.835-502.028,141.424Z" transform="translate(605.058 -84.975)" fill="#fa96cc"/>
        <g id="Grupo_10416" data-name="Grupo 10416" transform="translate(57.822)">
          <path id="Trazado_10464" data-name="Trazado 10464" d="M-529.979,112.124s3.721,2.251,6.659,16.423c2.908,14.025,2.737,14.263,2.737,14.263s-3.9-3.51-6.254-5.576c-2.4-2.11-4.2-1.242-7.213-4.609C-538.591,127.548-529.979,112.124-529.979,112.124Z" transform="translate(562.555 -92.42)" fill="#1b151f"/>
          <g id="Grupo_10415" data-name="Grupo 10415" transform="translate(4.302 6.437)">
            <path id="Trazado_10465" data-name="Trazado 10465" d="M-536.045,127.556s.858,5-3.961,11.015c-1.178,1.661-5.8,10.938-1.881,13.634,4.891,3.363,11.137-3.357,13.53-5.423,2.893-2.5,11.665-7.459,11.665-7.459s-4.988-6.22-6.079-11.077a66.233,66.233,0,0,1-1.082-15.171Z" transform="translate(550.081 -97.892)" fill="#f9b4af"/>
            <path id="Trazado_10466" data-name="Trazado 10466" d="M-524.226,108.207c-5.07-3.864-17.086-5.1-21.469,7.309-4.6,13.018,7.181,29.276,13.459,26.516,3.516-1.549,10.906-7.042,12.988-13.9C-516.907,120.421-520.285,111.207-524.226,108.207Z" transform="translate(546.735 -105.536)" fill="#ffd0ca"/>
          </g>
          <path id="Trazado_10467" data-name="Trazado 10467" d="M-533.774,119.958s8.794,10.175,18.147,12.46c4.4-9.935,5.266-12.674,3.165-18.964-2.439-7.31-9.966-7.1-9.966-7.1s-7.62-8.5-18.395-.757c-15.644,11.246-3.669,24.534-3.669,24.534S-543.945,123.563-533.774,119.958Z" transform="translate(548.872 -102.339)" fill="#1b151f"/>
          <path id="Trazado_10468" data-name="Trazado 10468" d="M-536.278,118a12.2,12.2,0,0,1,2.181-2.358c.971-.745,2.819-.967,3.349,1.855a4.726,4.726,0,0,1-2.35,5.3Z" transform="translate(561.638 -89.348)" fill="#ffd0ca"/>
        </g>
        <path id="Trazado_10469" data-name="Trazado 10469" d="M-517.015,125.693l2.7,2.424s-5.205,4.5-10.1,9.22-11.756,11.446-18.022,7.408c-4.68-3.014-1.875-9.063-.9-11.582s5.443-9.653,5.443-9.653l2,.612s-4.428,6.685-5.481,12.317c-.9,4.837,1.12,6.5,5.312,5.413,4.891-1.263,8.419-5.473,10.954-8.274C-523.2,131.476-517.015,125.693-517.015,125.693Z" transform="translate(610.555 -80.879)" fill="#f478be"/>
        <path id="Trazado_10470" data-name="Trazado 10470" d="M-567.664,215.727a35.383,35.383,0,0,0-7.583,6.476c-2.787,3.484.677,9.245,8.2,8.111,3.975-.6,8.991-5.411,11.129-7,3-2.225,8.254-4.752,10.61-6.776s.9-7.142.9-7.142a11.023,11.023,0,0,1-3.707,5.135,46.491,46.491,0,0,1-9.2,5.437c-4.668,1.635-7.946,2.789-9.758.592C-568.785,218.482-567.664,215.727-567.664,215.727Z" transform="translate(578.989 6.182)" fill="#f478be"/>
        <path id="Trazado_10471" data-name="Trazado 10471" d="M-553.333,228.411s-.089,5.745,1.752,8.326,6.9,3.739,9.162-1.834a48.225,48.225,0,0,0,2.966-13.236,46.313,46.313,0,0,0-.161-6.4s2.31,1.73,1.432,5.664.236,9.728.04,12.694c-.463,7.054-2.29,12.259-7.362,14.536-4.08,1.832-10.062.489-9.972-6.345A51.375,51.375,0,0,1-553.333,228.411Z" transform="translate(600 12.134)" fill="#f478be"/>
      </g>
      <g id="Grupo_10418" data-name="Grupo 10418" transform="translate(0 89.009)">
        <path id="Trazado_10472" data-name="Trazado 10472" d="M-650.783,255.466l-4.811-2.778V149.817l4.811,2.778Z" transform="translate(655.595 -94.96)" fill="#e8e8e8"/>
        <path id="Trazado_10473" data-name="Trazado 10473" d="M-648.84,149.935l-4.365,2.54V255.346l4.365-2.529Z" transform="translate(658.017 -94.84)" fill="#c1c1c1"/>
        <path id="Trazado_10474" data-name="Trazado 10474" d="M-541.122,319.265l-4.812-2.778V213.616l4.812,2.778Z" transform="translate(766.752 -30.29)" fill="#e8e8e8"/>
        <path id="Trazado_10475" data-name="Trazado 10475" d="M-539.179,213.734l-4.365,2.54V319.146l4.365-2.529Z" transform="translate(769.174 -30.17)" fill="#c1c1c1"/>
        <path id="Trazado_10476" data-name="Trazado 10476" d="M-496.063,293.15l-4.812-2.778V187.5l4.812,2.778Z" transform="translate(812.425 -56.761)" fill="#e8e8e8"/>
        <path id="Trazado_10477" data-name="Trazado 10477" d="M-494.12,187.62l-4.365,2.54V293.03l4.365-2.529Z" transform="translate(814.848 -56.641)" fill="#c1c1c1"/>
        <path id="Trazado_10478" data-name="Trazado 10478" d="M-655.595,151.875v10.783l225.708,130.517V282.392Z" transform="translate(655.595 -92.873)" fill="#e8e8e8"/>
        <path id="Trazado_10479" data-name="Trazado 10479" d="M-448.485,189.638l-95.02,54.476V254.9l95.02-54.476Z" transform="translate(769.213 -54.595)" fill="#c1c1c1"/>
        <path id="Trazado_10480" data-name="Trazado 10480" d="M-429.887,285.7-655.595,154.805v-5.136l225.708,130.893Z" transform="translate(655.595 -95.11)" fill="#3f3b44"/>
        <path id="Trazado_10481" data-name="Trazado 10481" d="M-543.505,242.374l94.909-55.031.111,5.357-95.02,54.811Z" transform="translate(769.213 -56.921)" fill="#302a35"/>
        <path id="Trazado_10482" data-name="Trazado 10482" d="M-560.608,122.574l-94.987,54.559,225.708,130.893L-334.978,253Z" transform="translate(655.595 -122.574)" fill="#4a464f"/>
      </g>
      <g id="Grupo_10424" data-name="Grupo 10424" transform="translate(131.092 158.239)">
        <path id="Trazado_10483" data-name="Trazado 10483" d="M-495.781,174.062h-3.274v.133L-524.5,159.5c-2.485-1.436-6.862-1.252-9.73.4l-53.524,30.9h-2.731v3.5h0a2.921,2.921,0,0,0,1.663,2.326l27.045,15.614c2.485,1.434,6.862,1.253,9.73-.4l53.893-31.115c1.566-.9,2.342-2.066,2.346-3.169h.028Z" transform="translate(590.499 -155.352)" fill="#1b151f"/>
        <path id="Trazado_10484" data-name="Trazado 10484" d="M-524.5,157.92l27.045,15.616c2.485,1.434,2.169,3.963-.7,5.618l-53.893,31.115c-2.868,1.655-7.245,1.836-9.73.4l-27.045-15.614c-2.483-1.434-2.169-3.963.7-5.618l53.893-31.115C-531.359,156.67-526.981,156.488-524.5,157.92Z" transform="translate(590.493 -156.954)" fill="#302a35"/>
        <g id="Grupo_10423" data-name="Grupo 10423" transform="translate(3.287 2.161)">
          <path id="Trazado_10485" data-name="Trazado 10485" d="M-531.192,158.028l30.017,17.331-57.669,33.3-30.017-17.331Z" transform="translate(588.861 -158.028)" fill="#fff"/>
          <path id="Trazado_10486" data-name="Trazado 10486" d="M-565.31,176.3l7.4,4.27-12.267,7.083-7.4-4.271Z" transform="translate(600.298 -139.503)" fill="#e8e8e8"/>
          <path id="Trazado_10487" data-name="Trazado 10487" d="M-560.879,163.061l7.4,4.271-12.267,7.082-7.4-4.27Z" transform="translate(604.789 -152.926)" fill="#e8e8e8"/>
          <g id="Grupo_10419" data-name="Grupo 10419" transform="translate(4.089 26.467)">
            <path id="Trazado_10488" data-name="Trazado 10488" d="M-575.444,181.538l1.673-.966L-585.157,174l-1.673.966Z" transform="translate(586.83 -168.306)" fill="#e8e8e8"/>
            <path id="Trazado_10489" data-name="Trazado 10489" d="M-573.812,180.6l1.673-.966-11.386-6.574-1.673.966Z" transform="translate(588.484 -169.261)" fill="#e8e8e8"/>
            <path id="Trazado_10490" data-name="Trazado 10490" d="M-572.18,179.653l1.673-.966-11.386-6.574-1.673.966Z" transform="translate(590.139 -170.216)" fill="#e8e8e8"/>
            <path id="Trazado_10491" data-name="Trazado 10491" d="M-570.547,178.711l1.673-.966-11.386-6.574-1.673.966Z" transform="translate(591.793 -171.172)" fill="#e8e8e8"/>
          </g>
          <g id="Grupo_10420" data-name="Grupo 10420" transform="translate(18.233 18.301)">
            <path id="Trazado_10492" data-name="Trazado 10492" d="M-553.778,185.937l1.673-.966-26.029-15.027-1.673.966Z" transform="translate(579.806 -164.25)" fill="#e8e8e8"/>
            <path id="Trazado_10493" data-name="Trazado 10493" d="M-552.145,184.995l1.673-.966L-576.5,169l-1.673.966Z" transform="translate(581.461 -165.206)" fill="#e8e8e8"/>
            <path id="Trazado_10494" data-name="Trazado 10494" d="M-550.513,184.052l1.673-.966-26.028-15.028-1.673.966Z" transform="translate(583.115 -166.161)" fill="#e8e8e8"/>
            <path id="Trazado_10495" data-name="Trazado 10495" d="M-548.88,183.11l1.673-.966-26.028-15.028-1.673.966Z" transform="translate(584.77 -167.116)" fill="#e8e8e8"/>
          </g>
          <g id="Grupo_10421" data-name="Grupo 10421" transform="translate(45.787 2.392)">
            <path id="Trazado_10496" data-name="Trazado 10496" d="M-540.094,178.036l1.673-.966-26.028-15.027-1.673.966Z" transform="translate(566.122 -156.35)" fill="#e8e8e8"/>
            <path id="Trazado_10497" data-name="Trazado 10497" d="M-538.462,177.094l1.673-.966L-562.817,161.1l-1.673.966Z" transform="translate(567.777 -157.305)" fill="#e8e8e8"/>
            <path id="Trazado_10498" data-name="Trazado 10498" d="M-536.829,176.152l1.673-.966-26.028-15.027-1.673.966Z" transform="translate(569.431 -158.26)" fill="#e8e8e8"/>
            <path id="Trazado_10499" data-name="Trazado 10499" d="M-535.2,175.21l1.673-.966-26.028-15.027-1.673.966Z" transform="translate(571.086 -159.216)" fill="#e8e8e8"/>
          </g>
          <g id="Grupo_10422" data-name="Grupo 10422" transform="translate(40.98 15.526)">
            <path id="Trazado_10500" data-name="Trazado 10500" d="M-568.509,169.532l17.058,9.848,1.673-.966-17.058-9.849Z" transform="translate(568.509 -162.872)" fill="#e8e8e8"/>
            <path id="Trazado_10501" data-name="Trazado 10501" d="M-566.877,168.589l17.058,9.848,1.673-.966-17.058-9.848Z" transform="translate(570.164 -163.828)" fill="#e8e8e8"/>
            <path id="Trazado_10502" data-name="Trazado 10502" d="M-565.245,167.647l17.058,9.848,1.673-.966-17.058-9.848Z" transform="translate(571.818 -164.783)" fill="#e8e8e8"/>
            <path id="Trazado_10503" data-name="Trazado 10503" d="M-563.612,166.7l17.057,9.849,1.673-.966-17.058-9.848Z" transform="translate(573.473 -165.738)" fill="#e8e8e8"/>
          </g>
        </g>
      </g>
      <g id="Grupo_10425" data-name="Grupo 10425" transform="translate(189.704 101.281)">
        <path id="Trazado_10504" data-name="Trazado 10504" d="M-535.62,162.371c-2.936,2.068-6.822,2.36-12.042,4.414s-8.413,5.584-11.431,8.169-2.485,3.826-1.6,3.826,4.635-1.832,6.4-3.4l1.764-1.569s4.525,4.261,7.5,4.97,5.9-3.218,7.279-4.182,8.866-4.907,8.866-4.907S-531.593,159.534-535.62,162.371Z" transform="translate(561.385 -95.013)" fill="#ffd0ca"/>
        <path id="Trazado_10505" data-name="Trazado 10505" d="M-504.307,128.668c-10.97,7.6-14.593,42.194-15.886,45.927-2.821,3.254-7.956,6.768-13.83,11.1-5.06,3.735-15.5,11.081-15.5,11.081s3.848.262,5.429,2.988a17.682,17.682,0,0,1,2.016,5.06s15.541-7.789,23.984-12.9c8.051-4.873,11.232-9.188,12.809-16.975s8.7-24.444,7.271-34.216S-504.307,128.668-504.307,128.668Z" transform="translate(573.405 -128.668)" fill="#f478be"/>
      </g>
      <g id="Grupo_10430" data-name="Grupo 10430" transform="translate(196.9 201.182)">
        <path id="Trazado_10506" data-name="Trazado 10506" d="M-500.143,178.28l30.017,17.331-57.668,33.3-30.017-17.331Z" transform="translate(557.811 -178.28)" fill="#f9f9f9"/>
        <path id="Trazado_10507" data-name="Trazado 10507" d="M-534.261,196.556l7.4,4.27-12.268,7.083-7.4-4.271Z" transform="translate(569.248 -159.756)" fill="#e8e8e8"/>
        <path id="Trazado_10508" data-name="Trazado 10508" d="M-529.83,183.313l7.4,4.271-12.267,7.082-7.4-4.271Z" transform="translate(573.74 -173.179)" fill="#e8e8e8"/>
        <g id="Grupo_10426" data-name="Grupo 10426" transform="translate(4.089 26.467)">
          <path id="Trazado_10509" data-name="Trazado 10509" d="M-544.395,201.791l1.673-.966-11.386-6.574-1.673.966Z" transform="translate(555.781 -188.558)" fill="#e8e8e8"/>
          <path id="Trazado_10510" data-name="Trazado 10510" d="M-542.763,200.848l1.673-.966-11.386-6.574-1.673.966Z" transform="translate(557.435 -189.514)" fill="#e8e8e8"/>
          <path id="Trazado_10511" data-name="Trazado 10511" d="M-541.13,199.906l1.673-.966-11.386-6.574-1.673.966Z" transform="translate(559.09 -190.469)" fill="#e8e8e8"/>
          <path id="Trazado_10512" data-name="Trazado 10512" d="M-539.5,198.964l1.673-.966-11.386-6.574-1.673.966Z" transform="translate(560.744 -191.424)" fill="#e8e8e8"/>
        </g>
        <g id="Grupo_10427" data-name="Grupo 10427" transform="translate(18.233 18.301)">
          <path id="Trazado_10513" data-name="Trazado 10513" d="M-522.728,206.19l1.673-.966L-547.083,190.2l-1.673.966Z" transform="translate(548.757 -184.503)" fill="#e8e8e8"/>
          <path id="Trazado_10514" data-name="Trazado 10514" d="M-521.1,205.247l1.673-.966-26.028-15.028-1.673.966Z" transform="translate(550.411 -185.458)" fill="#e8e8e8"/>
          <path id="Trazado_10515" data-name="Trazado 10515" d="M-519.464,204.3l1.673-.966-26.029-15.028-1.673.966Z" transform="translate(552.066 -186.414)" fill="#e8e8e8"/>
          <path id="Trazado_10516" data-name="Trazado 10516" d="M-517.831,203.362l1.673-.966-26.028-15.027-1.673.966Z" transform="translate(553.72 -187.369)" fill="#e8e8e8"/>
        </g>
        <g id="Grupo_10428" data-name="Grupo 10428" transform="translate(45.787 2.392)">
          <path id="Trazado_10517" data-name="Trazado 10517" d="M-509.044,198.289l1.673-.966L-533.4,182.3l-1.673.966Z" transform="translate(535.073 -176.603)" fill="#e8e8e8"/>
          <path id="Trazado_10518" data-name="Trazado 10518" d="M-507.413,197.347l1.673-.966-26.028-15.027-1.673.966Z" transform="translate(536.728 -177.558)" fill="#e8e8e8"/>
          <path id="Trazado_10519" data-name="Trazado 10519" d="M-505.78,196.4l1.673-.966-26.028-15.027-1.673.966Z" transform="translate(538.382 -178.513)" fill="#e8e8e8"/>
          <path id="Trazado_10520" data-name="Trazado 10520" d="M-504.148,195.462l1.673-.966L-528.5,179.468l-1.673.966Z" transform="translate(540.037 -179.468)" fill="#e8e8e8"/>
        </g>
        <g id="Grupo_10429" data-name="Grupo 10429" transform="translate(40.98 15.526)">
          <path id="Trazado_10521" data-name="Trazado 10521" d="M-537.46,189.784l17.058,9.848,1.673-.966-17.058-9.848Z" transform="translate(537.46 -183.125)" fill="#e8e8e8"/>
          <path id="Trazado_10522" data-name="Trazado 10522" d="M-535.828,188.842l17.058,9.848,1.673-.966-17.058-9.848Z" transform="translate(539.114 -184.08)" fill="#e8e8e8"/>
          <path id="Trazado_10523" data-name="Trazado 10523" d="M-534.2,187.9l17.058,9.849,1.673-.966-17.058-9.848Z" transform="translate(540.769 -185.035)" fill="#e8e8e8"/>
          <path id="Trazado_10524" data-name="Trazado 10524" d="M-532.563,186.957l17.058,9.848,1.673-.966-17.058-9.848Z" transform="translate(542.424 -185.991)" fill="#e8e8e8"/>
        </g>
      </g>
      <g id="Grupo_10435" data-name="Grupo 10435" transform="translate(195.626 186.271)">
        <path id="Trazado_10525" data-name="Trazado 10525" d="M-500.776,170.875l30.018,17.331-57.669,33.3-30.017-17.331Z" transform="translate(558.444 -170.875)" fill="#fff"/>
        <path id="Trazado_10526" data-name="Trazado 10526" d="M-534.894,189.151l7.4,4.271-12.267,7.082-7.4-4.271Z" transform="translate(569.882 -152.351)" fill="#e8e8e8"/>
        <path id="Trazado_10527" data-name="Trazado 10527" d="M-530.463,175.908l7.4,4.271-12.267,7.082-7.4-4.271Z" transform="translate(574.373 -165.773)" fill="#e8e8e8"/>
        <g id="Grupo_10431" data-name="Grupo 10431" transform="translate(4.089 26.467)">
          <path id="Trazado_10528" data-name="Trazado 10528" d="M-545.028,194.386l1.673-.966-11.386-6.574-1.673.966Z" transform="translate(556.414 -181.153)" fill="#e8e8e8"/>
          <path id="Trazado_10529" data-name="Trazado 10529" d="M-543.4,193.443l1.673-.966-11.386-6.574-1.673.966Z" transform="translate(558.068 -182.108)" fill="#e8e8e8"/>
          <path id="Trazado_10530" data-name="Trazado 10530" d="M-541.763,192.5l1.673-.966-11.386-6.574-1.673.966Z" transform="translate(559.723 -183.064)" fill="#e8e8e8"/>
          <path id="Trazado_10531" data-name="Trazado 10531" d="M-540.131,191.559l1.673-.966-11.386-6.574-1.673.966Z" transform="translate(561.377 -184.019)" fill="#e8e8e8"/>
        </g>
        <g id="Grupo_10432" data-name="Grupo 10432" transform="translate(18.233 18.301)">
          <path id="Trazado_10532" data-name="Trazado 10532" d="M-523.361,198.784l1.673-.966-26.028-15.027-1.673.966Z" transform="translate(549.39 -177.098)" fill="#e8e8e8"/>
          <path id="Trazado_10533" data-name="Trazado 10533" d="M-521.729,197.842l1.673-.966-26.028-15.028-1.673.966Z" transform="translate(551.044 -178.053)" fill="#e8e8e8"/>
          <path id="Trazado_10534" data-name="Trazado 10534" d="M-520.1,196.9l1.673-.966-26.028-15.027-1.673.966Z" transform="translate(552.699 -179.008)" fill="#e8e8e8"/>
          <path id="Trazado_10535" data-name="Trazado 10535" d="M-518.465,195.957l1.673-.966-26.028-15.028-1.673.966Z" transform="translate(554.353 -179.964)" fill="#e8e8e8"/>
        </g>
        <g id="Grupo_10433" data-name="Grupo 10433" transform="translate(45.787 2.393)">
          <path id="Trazado_10536" data-name="Trazado 10536" d="M-509.678,190.884l1.673-.966-26.028-15.028-1.673.966Z" transform="translate(535.706 -169.198)" fill="#e8e8e8"/>
          <path id="Trazado_10537" data-name="Trazado 10537" d="M-508.045,189.941l1.673-.966L-532.4,173.948l-1.673.966Z" transform="translate(537.361 -170.153)" fill="#e8e8e8"/>
          <path id="Trazado_10538" data-name="Trazado 10538" d="M-506.413,189l1.673-.966-26.028-15.028-1.673.966Z" transform="translate(539.015 -171.108)" fill="#e8e8e8"/>
          <path id="Trazado_10539" data-name="Trazado 10539" d="M-504.781,188.057l1.674-.966-26.029-15.027-1.673.966Z" transform="translate(540.67 -172.063)" fill="#e8e8e8"/>
        </g>
        <g id="Grupo_10434" data-name="Grupo 10434" transform="translate(40.981 15.526)">
          <path id="Trazado_10540" data-name="Trazado 10540" d="M-538.093,182.379l17.058,9.848,1.673-.966-17.058-9.848Z" transform="translate(538.093 -175.72)" fill="#e8e8e8"/>
          <path id="Trazado_10541" data-name="Trazado 10541" d="M-536.461,181.436l17.058,9.848,1.673-.966-17.058-9.849Z" transform="translate(539.747 -176.675)" fill="#e8e8e8"/>
          <path id="Trazado_10542" data-name="Trazado 10542" d="M-534.828,180.494l17.058,9.848,1.673-.966-17.058-9.848Z" transform="translate(541.402 -177.63)" fill="#e8e8e8"/>
          <path id="Trazado_10543" data-name="Trazado 10543" d="M-533.2,179.552l17.058,9.848,1.673-.966-17.058-9.848Z" transform="translate(543.057 -178.586)" fill="#e8e8e8"/>
        </g>
      </g>
      <g id="Grupo_10439" data-name="Grupo 10439" transform="translate(52.296 46.539)">
        <g id="Grupo_10438" data-name="Grupo 10438">
          <g id="Grupo_10436" data-name="Grupo 10436" transform="translate(22.864 60.851)">
            <path id="Trazado_10544" data-name="Trazado 10544" d="M-589.906,162.739s-11.5-6.3-14.647-8.506c-2.271-1.593-1.563-2.956-.169-7.491s4.438-12.839,4.438-12.839l-2.8-.449s-3.266,10.012-4.43,13.844-1.661,6.54,1.83,8.741c4.748,2.994,15.781,9.378,15.781,9.378Z" transform="translate(628.29 -129.925)" fill="#fff"/>
            <path id="Trazado_10545" data-name="Trazado 10545" d="M-591.3,159.744c-2.559-1.573-5.4-2.529-6.274-5.938-.852-3.322.914-6.758,2.156-9.814,1.708-4.2,1.818-8.214,3.808-12.289-9.289.924-18.556,7.873-19.212,8.7-.7.884-5.846,19.985-6.542,22.476s.012,3.967,4.3,6.536,12.708,6.494,12.708,6.494l19.124-10.809C-584.288,163.284-588.18,161.655-591.3,159.744Z" transform="translate(618.954 -131.702)" fill="#fff"/>
            <path id="Trazado_10546" data-name="Trazado 10546" d="M-599.67,168.5s-11.729-6.625-14.8-8.554c-2.35-1.476-1.41-3.117-.014-7.654s4.438-12.837,4.438-12.837l-2.8-.451s-3.266,10.012-4.428,13.844-1.957,6.808,1.534,9.011c4.748,2.994,16.075,9.319,16.075,9.319Z" transform="translate(618.27 -124.295)" fill="#c1c1c1"/>
            <path id="Trazado_10547" data-name="Trazado 10547" d="M-609.033,159.392v2.679l19.783-11.395V148Z" transform="translate(627.633 -115.184)" fill="#e8e8e8"/>
          </g>
          <g id="Grupo_10437" data-name="Grupo 10437">
            <path id="Trazado_10548" data-name="Trazado 10548" d="M-558.629,104.015l-2.88-1.667-.026.016a4.909,4.909,0,0,0-5.266-.217l-60.335,34.834a4.979,4.979,0,0,0-2.489,4.311v51.271a4.927,4.927,0,0,0,2.457,4.289l0,.018,3.341,1.931,2.058-2.153,59.944-34.606a4.98,4.98,0,0,0,2.489-4.313V106.457a4.9,4.9,0,0,0-.64-2.42Z" transform="translate(629.624 -101.483)" fill="#1b151f"/>
            <path id="Trazado_10549" data-name="Trazado 10549" d="M-628.023,142.232v51.273a4.977,4.977,0,0,0,7.467,4.309l60.335-34.832a4.979,4.979,0,0,0,2.489-4.311V107.4a4.978,4.978,0,0,0-7.466-4.311l-60.335,34.834A4.979,4.979,0,0,0-628.023,142.232Z" transform="translate(631.247 -100.539)" fill="#302a35"/>
            <path id="Trazado_10550" data-name="Trazado 10550" d="M-627.423,141.77v50.172c0,3.7,4.005,5.348,7.211,3.5l58.26-33.636a4.812,4.812,0,0,0,2.4-4.164V107.186c0-3.7-4.005-5.066-7.209-3.216l-58.261,33.636A4.809,4.809,0,0,0-627.423,141.77Z" transform="translate(631.855 -99.793)" fill="#4a464f"/>
            <path id="Trazado_10551" data-name="Trazado 10551" d="M-604.008,139.423l-5.2,2.962c-.63.36-1.178.165-1.214-.435h0a2.142,2.142,0,0,1,1.079-1.742l5.2-2.964c.632-.358,1.18-.163,1.216.437h0A2.143,2.143,0,0,1-604.008,139.423Z" transform="translate(649.082 -65.415)" fill="#fff"/>
          </g>
        </g>
        <path id="Trazado_10552" data-name="Trazado 10552" d="M-562.282,104.013v49.8l-64.444,37.247v-49.8Z" transform="translate(632.562 -98.917)" fill="#999eff"/>
        <path id="Trazado_10553" data-name="Trazado 10553" d="M-572.894,109.566V152l-49.8,28.786V138.352Z" transform="translate(636.644 -93.289)" fill="#fff"/>
        <path id="Trazado_10554" data-name="Trazado 10554" d="M-572.894,111.564v3.94l-49.8,28.786V140.35Z" transform="translate(636.644 -91.263)" fill="#f478be"/>
        <path id="Trazado_10555" data-name="Trazado 10555" d="M-613.787,132.509l28.534-16.492v2.295L-613.787,134.8Z" transform="translate(645.677 -86.75)" fill="#e8e8e8"/>
        <path id="Trazado_10556" data-name="Trazado 10556" d="M-613.787,134.718l28.534-16.492v2.295l-28.534,16.492Z" transform="translate(645.677 -84.51)" fill="#e8e8e8"/>
        <path id="Trazado_10557" data-name="Trazado 10557" d="M-613.787,136.928l28.534-16.492v2.3l-28.534,16.492Z" transform="translate(645.677 -82.27)" fill="#e8e8e8"/>
        <path id="Trazado_10558" data-name="Trazado 10558" d="M-621.8,132.712l13.7-7.917v27.457l-13.7,7.917Z" transform="translate(637.551 -77.852)" fill="#e8e8e8"/>
        <path id="Trazado_10559" data-name="Trazado 10559" d="M-613.787,139.077l28.534-16.492v2.3l-28.534,16.492Z" transform="translate(645.677 -80.092)" fill="#e8e8e8"/>
        <path id="Trazado_10560" data-name="Trazado 10560" d="M-613.787,141.287l28.534-16.492v2.295l-28.534,16.492Z" transform="translate(645.677 -77.852)" fill="#e8e8e8"/>
        <path id="Trazado_10561" data-name="Trazado 10561" d="M-613.787,143.57l28.534-16.492v2.295l-28.534,16.492Z" transform="translate(645.677 -75.538)" fill="#e8e8e8"/>
        <path id="Trazado_10562" data-name="Trazado 10562" d="M-609.813,143.107v12.138l-13.911,8.474V151.346Z" transform="translate(635.604 -59.291)" fill="#ffdcf1"/>
        <path id="Trazado_10563" data-name="Trazado 10563" d="M-582.145,102.789v13.549L-593.9,123.5V109.75Z" transform="translate(665.838 -100.158)" fill="#fa96cc"/>
      </g>
      <g id="Grupo_10451" data-name="Grupo 10451" transform="translate(125.865 130.794)">
        <g id="Grupo_10440" data-name="Grupo 10440">
          <path id="Trazado_10564" data-name="Trazado 10564" d="M-541.765,165l-37.457-21.679-13.868,7.992,37.526,21.675Z" transform="translate(593.089 -143.325)" fill="#fff"/>
          <path id="Trazado_10565" data-name="Trazado 10565" d="M-574.453,164.044l13.8-8.011v-1.942l-13.8,7.988Z" transform="translate(611.979 -132.412)" fill="#c1c1c1"/>
          <path id="Trazado_10566" data-name="Trazado 10566" d="M-555.563,168.969v1.965l-37.526-21.794v-1.847Z" transform="translate(593.089 -139.302)" fill="#e8e8e8"/>
        </g>
        <g id="Grupo_10441" data-name="Grupo 10441" transform="translate(31.964 18.476)">
          <path id="Trazado_10567" data-name="Trazado 10567" d="M-576.513,160.889l-.7-.4L-563.4,152.5l.71.4Z" transform="translate(577.215 -152.5)" fill="#e8e8e8"/>
        </g>
        <g id="Grupo_10442" data-name="Grupo 10442" transform="translate(26.499 15.319)">
          <path id="Trazado_10568" data-name="Trazado 10568" d="M-579.226,159.321l-.7-.406,13.817-7.983.71.4Z" transform="translate(579.929 -150.932)" fill="#e8e8e8"/>
        </g>
        <g id="Grupo_10443" data-name="Grupo 10443" transform="translate(21.044 12.161)">
          <path id="Trazado_10569" data-name="Trazado 10569" d="M-581.935,157.754l-.7-.405,13.818-7.984.71.4Z" transform="translate(582.638 -149.364)" fill="#e8e8e8"/>
        </g>
        <g id="Grupo_10444" data-name="Grupo 10444" transform="translate(15.629 9.012)">
          <path id="Trazado_10570" data-name="Trazado 10570" d="M-584.625,156.19l-.7-.406,13.817-7.984.71.4Z" transform="translate(585.327 -147.8)" fill="#e8e8e8"/>
        </g>
        <g id="Grupo_10445" data-name="Grupo 10445" transform="translate(11.133 1.141)">
          <path id="Trazado_10571" data-name="Trazado 10571" d="M-550.036,165.973l.7-.4-37.517-21.676-.709.4Z" transform="translate(587.56 -143.892)" fill="#e8e8e8"/>
        </g>
        <g id="Grupo_10446" data-name="Grupo 10446" transform="translate(8.36 2.764)">
          <path id="Trazado_10572" data-name="Trazado 10572" d="M-551.36,166.807l.694-.4L-588.226,144.7l-.711.41Z" transform="translate(588.937 -144.697)" fill="#e8e8e8"/>
        </g>
        <g id="Grupo_10447" data-name="Grupo 10447" transform="translate(5.565 4.372)">
          <path id="Trazado_10573" data-name="Trazado 10573" d="M-552.8,167.583l.7-.4L-589.609,145.5l-.716.407Z" transform="translate(590.325 -145.496)" fill="#e8e8e8"/>
        </g>
        <g id="Grupo_10448" data-name="Grupo 10448" transform="translate(2.681 6.041)">
          <path id="Trazado_10574" data-name="Trazado 10574" d="M-554.172,168.451l.759-.372-37.641-21.754-.7.4Z" transform="translate(591.757 -146.325)" fill="#e8e8e8"/>
        </g>
        <g id="Grupo_10449" data-name="Grupo 10449" transform="translate(10.307 5.922)">
          <path id="Trazado_10575" data-name="Trazado 10575" d="M-587.267,154.655l-.7-.405,13.817-7.984.709.4Z" transform="translate(587.97 -146.266)" fill="#e8e8e8"/>
        </g>
        <g id="Grupo_10450" data-name="Grupo 10450" transform="translate(5.044 2.888)">
          <path id="Trazado_10576" data-name="Trazado 10576" d="M-589.881,153.149l-.7-.406,13.817-7.984.709.4Z" transform="translate(590.584 -144.759)" fill="#e8e8e8"/>
        </g>
      </g>
      <g id="Grupo_10452" data-name="Grupo 10452" transform="translate(33.152 15.059)">
        <path id="Trazado_10577" data-name="Trazado 10577" d="M-594.861,90.813l1.218-.634-4.275-2.535h0l-.014-.008h0c-4.267-2.783-10.716-2.4-17.935,1.766-12.849,7.418-23.263,24.019-23.263,37.079,0,6.075,2.273,10.284,5.974,12.336l-4.426,18.01,3.77,2.177,6.826-18.757a23.791,23.791,0,0,0,11.119-3.546c12.847-7.418,23.262-24.019,23.262-37.079A16.159,16.159,0,0,0-594.861,90.813Z" transform="translate(639.131 -85.849)" fill="#eceffe"/>
        <path id="Trazado_10578" data-name="Trazado 10578" d="M-614,90.481c-12.847,7.418-23.264,24.019-23.264,37.081,0,6.073,2.273,10.282,5.974,12.334l-4.426,18.012,9.335-16.633c3.588.23,7.825-.866,12.38-3.5,12.847-7.416,23.262-24.019,23.262-37.079S-601.148,83.065-614,90.481Z" transform="translate(641.029 -84.754)" fill="#eceffe"/>
      </g>
      <g id="Grupo_10453" data-name="Grupo 10453" transform="translate(153.302)">
        <path id="Trazado_10579" data-name="Trazado 10579" d="M-541.284,115.082c5.1-7.281,8.347-15.672,8.347-22.96a16.955,16.955,0,0,0-1.76-8l.328-1.726-4.607-2.674-.026.014c-4.257-2.3-10.374-1.772-17.2,2.167-12.847,7.418-23.264,24.019-23.264,37.079,0,5.924,2.159,10.08,5.7,12.185l4.1,2.384,1.357-.844c3.53.159,7.666-.94,12.108-3.506a44.826,44.826,0,0,0,10.31-8.425l8.354,5.239,3.772,2.175Z" transform="translate(579.463 -78.371)" fill="#eceffe"/>
        <path id="Trazado_10580" data-name="Trazado 10580" d="M-539.413,116.171c5.1-7.281,8.349-15.67,8.349-22.96,0-13.06-10.417-17.635-23.264-10.219s-23.262,24.019-23.262,37.081,10.414,17.635,23.262,10.217a44.825,44.825,0,0,0,10.31-8.425l8.357,5.239Z" transform="translate(581.362 -77.286)" fill="#eceffe"/>
      </g>
    </g>
    <g id="Grupo_10462" data-name="Grupo 10462" transform="translate(-676.024 196.024)">
      <g id="Grupo_10458" data-name="Grupo 10458" transform="translate(0 32.679)">
        <g id="Grupo_10456" data-name="Grupo 10456" transform="translate(14.516)">
          <g id="Grupo_10455" data-name="Grupo 10455">
            <path id="Trazado_10581" data-name="Trazado 10581" d="M-614.215,154.061c-2.646-1.526-5.848-1.357-9.019.471l-35.039,20.229c-5.912,3.413-10.541,12.136-10.541,19.859v79.307h6.313V194.62c0-5.489,3.383-12.08,7.384-14.389L-620.079,160a4.333,4.333,0,0,1,1.967-.654,1.433,1.433,0,0,1,.739.181c.7.4,1.52,1.828,1.52,4.515v81.975a38.694,38.694,0,0,1,6.313-2.463V164.043C-609.539,159.414-611.245,155.777-614.215,154.061Z" transform="translate(668.815 -153.028)" fill="#e8e8e8"/>
          </g>
          <path id="Trazado_10582" data-name="Trazado 10582" d="M-611.765,158.547l-5.584-2.906c-1.536-.765-3.465-.683-5.594.546l-35.039,20.231c-4.949,2.857-8.963,10.523-8.963,17.122v28.652l5.431,2.894,47.532-33.473V163.827Z" transform="translate(670.71 -150.878)" fill="#f478be"/>
          <path id="Trazado_10583" data-name="Trazado 10583" d="M-611.285,193.068v-28.65c0-6.6-4.013-9.633-8.963-6.776l-35.039,20.231c-4.95,2.857-8.961,10.523-8.961,17.122v28.652Z" transform="translate(673.444 -149.44)" fill="#fa96cc"/>
        </g>
        <path id="Trazado_10584" data-name="Trazado 10584" d="M-574.168,228.239c-1.031-7.285-5.435-14.5-10.706-17.545l-32.782-18.924c-2.894-1.671-5.884-1.991-8.417-.892-2.551,1.105-4.38,3.53-5.149,6.828l-10.231,43.726-1.891,8.395a1.041,1.041,0,0,0-.121.348c.012.958,1.4,1.72,3.105,1.7s3.075-.813,3.065-1.772l12.021-51.009a3.626,3.626,0,0,1,1.627-2.612,3.492,3.492,0,0,1,2.938.578l32.78,18.924c3.635,2.1,6.953,7.736,7.712,13.111l8.353,62.753c.01.958,1.4,1.72,3.1,1.7s3.075-.814,3.065-1.772Z" transform="translate(709.027 -115.313)" fill="#e8e8e8"/>
        <g id="Grupo_10457" data-name="Grupo 10457" transform="translate(14.577 82.355)">
          <path id="Trazado_10585" data-name="Trazado 10585" d="M-554.918,218.469c-1.794-2.165-4.243.675-5.539,2.551L-599.4,198.534c-3.914-2.261-10.817-1.975-15.34.636L-661.8,226.34c-1.426-1.9-3.794-4.37-5.286-2.177-2.354,3.455-2.291,8.61.391,11.135a11.917,11.917,0,0,0,1.536,1.2l42.709,24.659c3.916,2.261,10.819,1.975,15.34-.636l49.318-28.473a10.387,10.387,0,0,0,3.578-3.482A8.964,8.964,0,0,0-554.918,218.469Z" transform="translate(668.785 -190.802)" fill="#f478be"/>
          <path id="Trazado_10586" data-name="Trazado 10586" d="M-622.946,258.076l-42.709-24.659c-3.917-2.261-3.421-6.246,1.1-8.856l49.316-28.475c4.523-2.61,11.425-2.9,15.34-.636l42.711,24.659c3.914,2.261,3.419,6.246-1.1,8.856l-49.318,28.475C-612.126,260.05-619.029,260.336-622.946,258.076Z" transform="translate(669.279 -193.926)" fill="#fa96cc"/>
        </g>
        <path id="Trazado_10587" data-name="Trazado 10587" d="M-606.727,246.722c-1.033-7.287-5.435-14.5-10.706-17.547l-32.782-18.924a9.275,9.275,0,0,0-8.419-.89c-2.549,1.1-4.378,3.53-5.147,6.828l-10.234,43.726-1.889,8.395a1.015,1.015,0,0,0-.121.346c.012.961,1.4,1.72,3.1,1.7s3.075-.814,3.063-1.772l12.021-51.008a3.627,3.627,0,0,1,1.629-2.612,3.484,3.484,0,0,1,2.936.576l32.782,18.924c3.635,2.1,6.951,7.738,7.712,13.113l8.351,62.753c.012.958,1.4,1.72,3.1,1.7s3.075-.814,3.065-1.772Z" transform="translate(676.024 -96.578)" fill="#e8e8e8"/>
      </g>
      <g id="Grupo_10459" data-name="Grupo 10459" transform="translate(40.768 109.742)">
        <path id="Trazado_10588" data-name="Trazado 10588" d="M-591.157,251.434c3.89,3.8,5.1,4.887,8.707,8.411,2.108,2.058.373,3.949-3.647,3.8a72.143,72.143,0,0,1-16.008-3.465,81.188,81.188,0,0,1-11.985-6.246,7.94,7.94,0,0,1-3.558-4.5V243.1l19.14.811S-595.361,247.337-591.157,251.434Z" transform="translate(694.428 -138.787)" fill="#302a35"/>
        <path id="Trazado_10589" data-name="Trazado 10589" d="M-607.882,263.8c3.891,3.8,5.1,4.885,8.707,8.409,2.108,2.058.372,3.951-3.647,3.8a72.011,72.011,0,0,1-16.008-3.464,81.2,81.2,0,0,1-11.985-6.246,7.94,7.94,0,0,1-3.558-4.5V250.624l19.14,5.652S-612.086,259.7-607.882,263.8Z" transform="translate(677.475 -131.163)" fill="#302a35"/>
        <path id="Trazado_10590" data-name="Trazado 10590" d="M-654.54,206.008-616.3,191.3a108.477,108.477,0,0,0,17.789,12.99c6.73,4.06,25.259,14.955,31.193,19.148,3.657,2.581,5.3,8.157,6.724,20.71,2.352,20.734,4.076,49.544,4.076,49.544s-4.134,5.789-13.512,5.753a36.448,36.448,0,0,1-12.577-2.263l-1.458-52.85-29.544-18.638s15.992,11.542,18.542,21.3c2.048,7.841,2.735,13.85,3.045,23.634.668,21.075.89,43.7.89,43.7s-1.387,6.989-10.763,6.953c-7.2-.028-13.129-5.882-13.129-5.882l-1.895-57.137s-27.043-19.277-34.129-27.43C-658.98,221.7-654.54,206.008-654.54,206.008Z" transform="translate(655.778 -191.298)" fill="#1b151f"/>
      </g>
      <g id="Grupo_10461" data-name="Grupo 10461" transform="translate(35.466)">
        <path id="Trazado_10591" data-name="Trazado 10591" d="M-639.472,156.881s4.649-6.423,11.9.475c5.2,4.937,13.034,18.223,14.629,23.525.882,2.936,3.767-2.35,3.767,2.712,0,3.318,1.325,2.99,2.161,4.305,2.185,3.439-.812,15.847-7.835,17.593-3.7-.032-13.886-6.132-17.905-14.226C-639.617,177.434-639.472,156.881-639.472,156.881Z" transform="translate(677.608 -119.199)" fill="#6453fb"/>
        <path id="Trazado_10592" data-name="Trazado 10592" d="M-616.439,156.514a5.422,5.422,0,0,0-2.485,2.334l-19.7.358s-16.013,3.3-19.78,15.706c-.278,3.892,5.127,16.794,5.4,17.591,5.006,14.581,1.667,36.487.618,51.14,17.964,12.93,43.515,1.492,51.632-8.49C-604.949,206.464-593.654,177.248-616.439,156.514Z" transform="translate(658.411 -116.815)" fill="#7375fe"/>
        <path id="Trazado_10593" data-name="Trazado 10593" d="M-630.777,161.75l-14.959-10.868-3.163,17.577a27.72,27.72,0,0,0,7.523,5.989c3.747,1.965,7.6,1.456,11.693,2.732,1.718-3.075,0-6.816,0-6.816Z" transform="translate(668.052 -122.524)" fill="#f9b4af"/>
        <path id="Trazado_10594" data-name="Trazado 10594" d="M-635.939,156.147a61.974,61.974,0,0,1,4.883,4.909c1.575,1.921,1.514,4.2,2.581,6.047s1.416,2.42,1.416,2.42-2.537.346-3.345-.691-1.5-1.615-2.42-1.154-1.615,2.908-2.076,4.164a9.058,9.058,0,0,1-2.3,2.765l-2.771-3.61s2.022-2.626,1.242-4.472-1.013-8.3-1.013-8.3Z" transform="translate(677.1 -117.187)" fill="#fff"/>
        <g id="Grupo_10460" data-name="Grupo 10460" transform="translate(11.867)">
          <path id="Trazado_10595" data-name="Trazado 10595" d="M-646.766,144.105c-3.308,4.217-4.335,14.784.221,22.223,4.047,6.609,13.282,10.348,17.386,11.009,7.326,1.182,15.227-19.053,6.865-31.429C-630.268,134.105-642.51,138.678-646.766,144.105Z" transform="translate(655.463 -135.07)" fill="#ffd0ca"/>
          <path id="Trazado_10596" data-name="Trazado 10596" d="M-636.784,136.876a14.849,14.849,0,0,0-9.635,6.4c-7.467,1.589-6.7,12.34-4.851,16.4,3.578,7.843,7.67,8.383,7.67,8.383s-1.069-4.279-.125-6.142c.807-1.591,3.349-1.865,4.2.965a6.523,6.523,0,0,0,2.074.2l-.858-5.654a10.131,10.131,0,0,0,9.2-.64c4.533-2.622,8.942-1.1,10.519.393a11.134,11.134,0,0,0,.741-5.767c2.9-2.034,5.66-3.858,5.242-5.242a8.425,8.425,0,0,1-6.945-.654,16.55,16.55,0,0,0,3.79-4.325C-620.86,141.849-631.872,136.072-636.784,136.876Z" transform="translate(652.518 -136.799)" fill="#1b151f"/>
        </g>
        <path id="Trazado_10597" data-name="Trazado 10597" d="M-645.779,155.152s-1.3,2.555,2.5,6.49c2.275,2.36,9.369,4.6,11.335,5.763a19.048,19.048,0,0,1,3.727,3.457,10.488,10.488,0,0,1,1.142,2.94l.431,1.814a12.692,12.692,0,0,0-3.838-2.283c-2.15-.753-1.86,1.3-2.612,3.574-.624,1.883-3.119,1.929-3.119,1.929a20.586,20.586,0,0,0-.751-3.971c-1.216-2.016-7.124-3.012-9.46-4.946-3.119-2.579-4.71-6.993-3.606-9.45S-647.158,155.112-645.779,155.152Z" transform="translate(666.546 -118.196)" fill="#fff"/>
      </g>
      <path id="Trazado_10598" data-name="Trazado 10598" d="M-649.289,162.183c3.951,2.068,9.013,10.533,9.605,14.176a96.587,96.587,0,0,1,.962,13.095c.407,3.29,2.028,6.915.745,11.574a9.964,9.964,0,0,0-.153,4.873c1.736,5.31,3.343,6.45,2.553,9.569a8.035,8.035,0,0,1,2.912,1.8c1.122.985.779,6.381.779,6.381s-12.922,11.107-15.761,9.678c-12.062-6.073-12.352-31.817-12.843-37.276-.85-9.434-.582-18.668,1.466-25.261C-657.785,166.814-651.711,160.916-649.289,162.183Z" transform="translate(691.312 -111.246)" fill="#6453fb"/>
      <path id="Trazado_10599" data-name="Trazado 10599" d="M-642.257,192.415c3.771,3.016,15.887,19.15,19.172,22.661s8.28,4.035,12.432,9.436c3.1,4.039,7.831,10.435,7.152,14.039s-5.948,2.451-10.66,0c-4.956-2.579-10.882-8.351-13.806-13.149-1.359-2.229-10.819-9.565-16.963-14.47-7.135-5.7-8.806-8.868-8.806-8.868S-651.707,193.166-642.257,192.415Z" transform="translate(698.617 -80.424)" fill="#ffd0ca"/>
      <path id="Trazado_10600" data-name="Trazado 10600" d="M-636.255,198.415a11.979,11.979,0,0,0-2.324-4.839c-1.717-1.923-2.761-1.883-2.761-1.883a11.129,11.129,0,0,0-8.421,3.659c-3.981,4.094-4.579,7.9-4.579,7.9a11.359,11.359,0,0,0,3.286,4.42,4.34,4.34,0,0,0,2.964.93s-1.667-2.354,3.093-7.154S-636.255,198.415-636.255,198.415Z" transform="translate(698.005 -81.169)" fill="#e8e8e8"/>
      <path id="Trazado_10601" data-name="Trazado 10601" d="M-619.233,189.385c3.687-4.605,9.142-10.658,13.512-16.5s6.413-7.026,8.975-12.036c3.379-6.6,5.455-9.359,5.96-6.971.513,2.424-.461,3.453-1.126,5.632a33.557,33.557,0,0,1-2.046,4.807s3.758,2.66,5.024,5.32-.7,5.242-3.059,7.086-5.819.892-7.177,2.443c-2.654,3.033-5.03,12.762-10.338,19.712s-7.664,7.515-10.745,9.088c-3.544,1.81-5.419.046-6.677-1.77-.755-1.089.006-2.751.129-4.442C-626.476,197.238-620.715,191.235-619.233,189.385Z" transform="translate(725.454 -120.349)" fill="#f9b4af"/>
      <path id="Trazado_10602" data-name="Trazado 10602" d="M-620.821,170.965l2.108.628a13.005,13.005,0,0,0-3.234,8.8c-.054,3.083,3.234,9.045,3.234,9.045s-2.517,3.083-5.282,2.469-4.194-3.119-4.092-7.956S-625.1,172.981-620.821,170.965Z" transform="translate(724.61 -102.167)" fill="#e8e8e8"/>
    </g>
  </g>
</svg>
