<svg xmlns="http://www.w3.org/2000/svg" width="330.129" height="362.848" viewBox="0 0 330.129 362.848">
  <g id="Grupo_10504" data-name="Grupo 10504" transform="translate(-269.257 -57.903)">
    <path id="Trazado_10603" data-name="Trazado 10603" d="M418.015,393.737l-146.9-84.811a4.951,4.951,0,0,1,0-8.577l139.675-80.631,156.276,90.226a4.952,4.952,0,0,1,0,8.577l-130.3,75.218A18.761,18.761,0,0,1,418.015,393.737Z" transform="translate(11.588 24.501)" fill="#173d7a" opacity="0.5"/>
    <g id="Grupo_10468" data-name="Grupo 10468" transform="translate(269.257 188.629)">
      <g id="Grupo_10464" data-name="Grupo 10464" transform="translate(0)">
        <path id="Trazado_10604" data-name="Trazado 10604" d="M415.086,181.248c.008-9.328-6.561-13.128-14.643-8.471L263.056,251.934a8.889,8.889,0,0,0-4.029,6.962c0,2.564,1.8,3.6,4.021,2.326l137.387-79.156c3.646-2.1,6.608-.387,6.6,3.82l-.015,15.365c2.666-.166,5.342-.168,8.044-.122Z" transform="translate(-258.977 -170.788)" fill="#a665be"/>
        <path id="Trazado_10605" data-name="Trazado 10605" d="M263,285.217l137.387-50.063c8.082-4.657,14.665-16.034,14.674-25.363l.01-12.3c-2.7-.047-5.377-.044-8.044.122l-.015,16.81a14.622,14.622,0,0,1-6.618,11.438L263.011,275.93a8.891,8.891,0,0,0-4.027,6.962C258.981,285.456,260.78,286.5,263,285.217Z" transform="translate(-258.983 -167.156)" fill="#a665be"/>
      </g>
      <path id="Trazado_10606" data-name="Trazado 10606" d="M259.9,276.549l167.126,96.706,141.5-84.385,11.226-16.754-1.165,5.936-3.016-15.541L312.91,272.529l-46.276-2.981Z" transform="translate(-258.858 -158.303)" fill="#672996"/>
      <path id="Trazado_10607" data-name="Trazado 10607" d="M264.782,249.18l-.045,20.572L426.263,363.2l4.364-19.607Z" transform="translate(-258.2 -160.118)" fill="#e573b5"/>
      <path id="Trazado_10608" data-name="Trazado 10608" d="M577.647,268.254l-166.86-96.536L260.345,259.2l-.311,2.149L427.14,358.032Z" transform="translate(-258.84 -170.661)" fill="#a665be"/>
      <g id="Grupo_10465" data-name="Grupo 10465" transform="translate(168.005 105.304)">
        <path id="Trazado_10609" data-name="Trazado 10609" d="M504.467,305.34,543.7,282.067a14.738,14.738,0,0,0,5.9-10.941l.03-3.082c0-2.493-1.042-4.1-2.647-4.568l-77.23,42.964L406.86,340.455l.058,20.8Z" transform="translate(-406.86 -263.476)" fill="#fff"/>
      </g>
      <path id="Trazado_10610" data-name="Trazado 10610" d="M432.622,344.862l-165.8-95.923-3.514-2.034-3.211-1.858a8.1,8.1,0,0,0-1.069,3.74,2.845,2.845,0,0,0,1.143,2.577v.008l.026.015.012.007L427.278,348.05Z" transform="translate(-258.977 -160.68)" fill="#672996"/>
      <path id="Trazado_10611" data-name="Trazado 10611" d="M405.167,358.983l2.084,1.206.384-.664-1.3-1.022Z" transform="translate(-239.085 -145.237)" fill="#fff"/>
      <path id="Trazado_10612" data-name="Trazado 10612" d="M405.215,334.6l2.135,1.235-.535-1.166Z" transform="translate(-239.079 -148.49)" fill="#fff"/>
      <g id="Grupo_10466" data-name="Grupo 10466" transform="translate(167.104 96.678)">
        <path id="Trazado_10613" data-name="Trazado 10613" d="M410.146,337.028l137.387-79.155c8.082-4.657,14.651-.857,14.643,8.471l-.029,3.082c-.009,9.328-6.592,20.706-14.674,25.361L410.087,373.943c-2.222,1.28-4.022.24-4.02-2.325a8.9,8.9,0,0,1,4.028-6.963L547.483,285.5a14.622,14.622,0,0,0,6.617-11.437l.029-3.082c0-4.207-2.958-5.92-6.6-3.821L410.138,346.315c-2.222,1.28-4.022.24-4.02-2.324A8.892,8.892,0,0,1,410.146,337.028Z" transform="translate(-406.067 -255.883)" fill="#672996"/>
      </g>
      <g id="Grupo_10467" data-name="Grupo 10467" transform="translate(164.902 95.408)">
        <path id="Trazado_10614" data-name="Trazado 10614" d="M406.331,370.37a8.9,8.9,0,0,1,4.028-6.963l137.388-79.155a14.626,14.626,0,0,0,6.617-11.438l.03-3.082c0-2.754-1.271-4.431-3.171-4.676a5.531,5.531,0,0,1,.969,3.4l-.028,3.082a14.627,14.627,0,0,1-6.618,11.438L408.158,362.134a8.893,8.893,0,0,0-4.029,6.963c0,1.943,1.034,3.006,2.5,2.852A3.863,3.863,0,0,1,406.331,370.37Z" transform="translate(-404.129 -253.365)" fill="#fff"/>
        <path id="Trazado_10615" data-name="Trazado 10615" d="M406.376,344.143a8.888,8.888,0,0,1,4.028-6.962L547.79,258.025c3.481-2.006,6.678-2.435,9.192-1.537-2.686-2.29-6.792-2.388-11.393.264L408.2,335.907a8.889,8.889,0,0,0-4.029,6.962c0,1.943,1.034,3.006,2.5,2.852A3.843,3.843,0,0,1,406.376,344.143Z" transform="translate(-404.123 -254.765)" fill="#fff"/>
      </g>
    </g>
    <g id="Grupo_10472" data-name="Grupo 10472" transform="translate(289.421 57.903)">
      <path id="Trazado_10616" data-name="Trazado 10616" d="M565.933,142.222,417.7,56.64a5.984,5.984,0,0,0-5.023-.616l.009-.015-.269.1-.066.025L407,58.185l4.808,2.354c-.022.089-.049.172-.069.262l-24.144,109.9c-1.209,5.5,1.211,11.921,5.4,14.342L537.662,268.57l-.516,6.13L543,272.432c1.967-.92,3.542-3,4.193-5.963l24.144-109.9C572.546,151.063,570.126,144.642,565.933,142.222Z" transform="translate(-261.684 -55.724)" fill="#173d7a"/>
      <path id="Trazado_10617" data-name="Trazado 10617" d="M564.909,142.222,416.678,56.64a5.984,5.984,0,0,0-5.023-.616l.009-.015-.269.1-.066.025-5.357,2.05,4.808,2.354c-.022.089-.049.172-.069.262L394.8,133.234l72.527,56.506,102.265-41.611A11.5,11.5,0,0,0,564.909,142.222Z" transform="translate(-260.661 -55.724)" fill="#396caa"/>
      <path id="Trazado_10618" data-name="Trazado 10618" d="M540.946,148.658l11.284-4.8c.207-4.369-1.6-8.884-4.572-11.3L529.8,140.068Z" transform="translate(-242.286 -45.266)" fill="#274f89"/>
      <path id="Trazado_10619" data-name="Trazado 10619" d="M533.1,273.871,384.871,188.289c-4.193-2.421-6.613-8.842-5.4-14.342l24.144-109.9c1.209-5.5,5.587-8,9.781-5.575l148.231,85.581c4.193,2.421,6.613,8.842,5.406,14.342L542.883,268.3C541.674,273.8,537.3,276.292,533.1,273.871Z" transform="translate(-262.79 -55.476)" fill="#d4ecff"/>
      <path id="Trazado_10620" data-name="Trazado 10620" d="M559.472,143.589,411.241,58.008a5.861,5.861,0,0,0-5.836-.254,6.091,6.091,0,0,1,4.413.775l148.231,85.58c4.193,2.422,6.613,8.844,5.406,14.343l-24.145,109.9a8.352,8.352,0,0,1-3.945,5.828c2.5-.546,4.591-2.816,5.368-6.35l24.143-109.9C566.086,152.432,563.666,146.01,559.472,143.589Z" transform="translate(-259.217 -55.537)" fill="#fff"/>
      <path id="Trazado_10621" data-name="Trazado 10621" d="M529.159,264.73,389.75,184.282c-3.837-2.215-6.051-8.091-4.946-13.124L406.9,70.586c1.105-5.033,5.113-7.317,8.95-5.1l139.408,80.448c3.838,2.215,6.052,8.091,4.947,13.124L538.109,259.628C537,264.661,533,266.946,529.159,264.73Z" transform="translate(-262.06 -54.51)" fill="#fff"/>
      <path id="Trazado_10622" data-name="Trazado 10622" d="M529.159,264.73,389.75,184.282c-3.837-2.215-6.051-8.091-4.946-13.124L406.9,70.586c1.105-5.033,5.113-7.317,8.95-5.1l139.408,80.448c3.838,2.215,6.052,8.091,4.947,13.124L538.109,259.628C537,264.661,533,266.946,529.159,264.73Z" transform="translate(-262.06 -54.51)" fill="#173d7a"/>
      <path id="Trazado_10623" data-name="Trazado 10623" d="M530.373,264.217,390.965,183.768c-3.838-2.214-6.052-8.091-4.947-13.123l22.1-100.572a7.715,7.715,0,0,1,3.512-5.294c-2.21.569-4.035,2.64-4.727,5.788L384.8,171.138c-1.105,5.034,1.109,10.91,4.946,13.126l139.409,80.448a5.358,5.358,0,0,0,5.436.192A5.559,5.559,0,0,1,530.373,264.217Z" transform="translate(-262.06 -54.491)" fill="#5793ce"/>
      <path id="Trazado_10624" data-name="Trazado 10624" d="M549.089,260.8l-20.261-2.676-130.8-75.515c-4.192-2.421-11.517-2.118-16.359.678l-92.682,53.491-12.253-1.618v6.951l.013,0c-.08,1.606.835,3.152,2.813,4.294l148.231,85.581c4.193,2.421,11.518,2.117,16.36-.678l100.935-58.255c2.723-1.572,4.081-3.6,4-5.5h0Z" transform="translate(-276.731 -38.675)" fill="#173d7a"/>
      <path id="Trazado_10625" data-name="Trazado 10625" d="M450.814,209.877l-9.293-5.365H339.355l-50.366,29.06-12.253-1.618V238.9l.013,0c-.08,1.606.835,3.152,2.813,4.295l148.231,85.581a15.342,15.342,0,0,0,8.444,1.583Z" transform="translate(-276.731 -35.471)" fill="#396caa"/>
      <path id="Trazado_10626" data-name="Trazado 10626" d="M282.173,229.384l-5.437-.718v6.951l.013,0c-.08,1.606.835,3.152,2.813,4.295l2.612,1.508Z" transform="translate(-276.731 -32.184)" fill="#5793ce"/>
      <path id="Trazado_10627" data-name="Trazado 10627" d="M411.009,316.465a18.987,18.987,0,0,0,13.9-.862V300.1h-13.9Z" transform="translate(-258.454 -22.461)" fill="#274f89"/>
      <path id="Trazado_10628" data-name="Trazado 10628" d="M427.793,326.423,279.562,240.842c-4.193-2.421-3.667-6.65,1.175-9.446l100.935-58.255c4.842-2.795,12.167-3.1,16.359-.677l148.232,85.581c4.193,2.421,3.667,6.65-1.175,9.444L444.153,325.745C439.311,328.541,431.987,328.844,427.793,326.423Z" transform="translate(-276.731 -40.056)" fill="#d4ecff"/>
      <path id="Trazado_10629" data-name="Trazado 10629" d="M545.087,257.208,444.152,315.464c-4.842,2.8-12.167,3.1-16.36.679L279.561,230.561a5.509,5.509,0,0,1-2.606-2.852c-.657,1.984.18,3.989,2.606,5.391l148.231,85.581c4.193,2.421,11.518,2.118,16.36-.678l100.935-58.255c3.254-1.878,4.549-4.4,3.781-6.594A7.88,7.88,0,0,1,545.087,257.208Z" transform="translate(-276.73 -32.314)" fill="#fff"/>
      <g id="Grupo_10469" data-name="Grupo 10469" transform="translate(58.805 136.043)">
        <path id="Trazado_10630" data-name="Trazado 10630" d="M335.562,208.708l-6.708-3.872c-.539-.311-.47-.854.151-1.213l7.916-4.571a2.337,2.337,0,0,1,2.1-.087l6.708,3.873c.539.31.47.853-.151,1.212l-7.916,4.571A2.337,2.337,0,0,1,335.562,208.708Z" transform="translate(-328.491 -172.298)" fill="#5793ce"/>
        <path id="Trazado_10631" data-name="Trazado 10631" d="M344.678,213.971l-6.706-3.872c-.539-.311-.471-.854.151-1.213l7.916-4.571a2.333,2.333,0,0,1,2.1-.086l6.706,3.872c.539.311.471.854-.151,1.213l-7.917,4.571A2.333,2.333,0,0,1,344.678,213.971Z" transform="translate(-327.25 -171.582)" fill="#5793ce"/>
        <path id="Trazado_10632" data-name="Trazado 10632" d="M353.8,219.235l-6.708-3.873c-.539-.31-.47-.853.151-1.212l7.916-4.571a2.337,2.337,0,0,1,2.1-.087l6.708,3.873c.538.31.47.853-.151,1.212l-7.916,4.571A2.337,2.337,0,0,1,353.8,219.235Z" transform="translate(-326.009 -170.865)" fill="#5793ce"/>
        <path id="Trazado_10633" data-name="Trazado 10633" d="M366.4,214.8l-6.706-3.872c-.539-.311-.47-.854.151-1.213l6.645-3.837a2.337,2.337,0,0,1,2.1-.087l6.708,3.873c.539.31.47.853-.151,1.212l-6.645,3.837A2.336,2.336,0,0,1,366.4,214.8Z" transform="translate(-324.293 -171.369)" fill="#5793ce"/>
        <path id="Trazado_10634" data-name="Trazado 10634" d="M375.52,220.063l-6.706-3.872c-.539-.31-.471-.853.15-1.212l6.646-3.838a2.333,2.333,0,0,1,2.1-.086l6.706,3.872c.539.311.471.854-.151,1.213l-6.645,3.837A2.333,2.333,0,0,1,375.52,220.063Z" transform="translate(-323.052 -170.653)" fill="#5793ce"/>
        <path id="Trazado_10635" data-name="Trazado 10635" d="M384.636,225.327l-6.706-3.872c-.539-.311-.47-.854.151-1.213l6.645-3.837a2.337,2.337,0,0,1,2.1-.087l6.708,3.873c.539.31.47.853-.151,1.212l-6.645,3.837A2.336,2.336,0,0,1,384.636,225.327Z" transform="translate(-321.811 -169.936)" fill="#5793ce"/>
        <path id="Trazado_10636" data-name="Trazado 10636" d="M393.753,230.59l-6.707-3.872c-.539-.311-.471-.854.15-1.213l6.646-3.837a2.333,2.333,0,0,1,2.1-.086l6.706,3.872c.539.311.471.854-.151,1.213l-6.645,3.837A2.333,2.333,0,0,1,393.753,230.59Z" transform="translate(-320.571 -169.22)" fill="#5793ce"/>
        <path id="Trazado_10637" data-name="Trazado 10637" d="M402.87,235.855l-6.708-3.873c-.539-.31-.47-.853.151-1.212l6.645-3.837a2.334,2.334,0,0,1,2.1-.087l6.708,3.872c.539.311.47.854-.151,1.213l-6.645,3.837A2.337,2.337,0,0,1,402.87,235.855Z" transform="translate(-319.33 -168.503)" fill="#5793ce"/>
        <path id="Trazado_10638" data-name="Trazado 10638" d="M411.986,241.117l-6.707-3.872c-.539-.311-.471-.854.15-1.213l6.646-3.837a2.333,2.333,0,0,1,2.1-.086l6.706,3.872c.539.31.471.854-.15,1.212l-6.646,3.837A2.333,2.333,0,0,1,411.986,241.117Z" transform="translate(-318.089 -167.787)" fill="#5793ce"/>
        <path id="Trazado_10639" data-name="Trazado 10639" d="M421.1,246.382l-6.708-3.873c-.539-.31-.47-.853.151-1.212l6.645-3.837a2.334,2.334,0,0,1,2.1-.087L430,241.244c.539.311.47.854-.151,1.213l-6.645,3.837A2.337,2.337,0,0,1,421.1,246.382Z" transform="translate(-316.848 -167.07)" fill="#5793ce"/>
        <path id="Trazado_10640" data-name="Trazado 10640" d="M430.219,251.644l-6.707-3.872c-.538-.311-.471-.854.151-1.213l6.645-3.837a2.337,2.337,0,0,1,2.1-.087l6.706,3.873c.539.31.471.853-.15,1.212l-6.646,3.837A2.333,2.333,0,0,1,430.219,251.644Z" transform="translate(-315.607 -166.354)" fill="#5793ce"/>
        <path id="Trazado_10641" data-name="Trazado 10641" d="M439.336,256.909l-6.708-3.873c-.539-.31-.47-.853.151-1.213l6.645-3.837a2.339,2.339,0,0,1,2.1-.086l6.706,3.872c.538.311.47.854-.151,1.213l-6.645,3.837A2.337,2.337,0,0,1,439.336,256.909Z" transform="translate(-314.366 -165.637)" fill="#5793ce"/>
        <path id="Trazado_10642" data-name="Trazado 10642" d="M448.452,262.171l-6.707-3.872c-.539-.311-.471-.854.151-1.213l6.645-3.837a2.337,2.337,0,0,1,2.1-.088l6.707,3.873c.539.31.471.853-.15,1.212l-6.646,3.837A2.333,2.333,0,0,1,448.452,262.171Z" transform="translate(-313.125 -164.921)" fill="#5793ce"/>
        <path id="Trazado_10643" data-name="Trazado 10643" d="M379.836,212.308l-6.707-3.872c-.539-.311-.471-.854.15-1.213l6.646-3.837a2.337,2.337,0,0,1,2.1-.087l6.707,3.873c.539.31.471.853-.151,1.212l-6.645,3.837A2.333,2.333,0,0,1,379.836,212.308Z" transform="translate(-322.465 -171.708)" fill="#5793ce"/>
        <path id="Trazado_10644" data-name="Trazado 10644" d="M370.583,206.966l-6.706-3.872c-.539-.311-.47-.854.151-1.213l6.645-3.837a2.337,2.337,0,0,1,2.1-.087l6.708,3.873c.539.31.47.853-.151,1.212l-6.645,3.837A2.336,2.336,0,0,1,370.583,206.966Z" transform="translate(-323.724 -172.435)" fill="#5793ce"/>
        <path id="Trazado_10645" data-name="Trazado 10645" d="M362.243,202.151,347.8,193.812c-.539-.311-.47-.854.151-1.213l6.645-3.837a2.34,2.34,0,0,1,2.1-.088l14.445,8.34c.539.311.47.854-.151,1.213l-6.645,3.837A2.333,2.333,0,0,1,362.243,202.151Z" transform="translate(-325.913 -173.699)" fill="#5793ce"/>
        <path id="Trazado_10646" data-name="Trazado 10646" d="M368.4,195.455l-11.722-6.768c-.539-.31-.471-.853.151-1.213l6.645-3.837a2.337,2.337,0,0,1,2.1-.086l11.722,6.768c.538.31.471.853-.151,1.213l-6.645,3.837A2.333,2.333,0,0,1,368.4,195.455Z" transform="translate(-324.705 -174.396)" fill="#5793ce"/>
        <path id="Trazado_10647" data-name="Trazado 10647" d="M388.953,217.571l-6.708-3.872c-.538-.31-.47-.853.151-1.212l6.645-3.838a2.333,2.333,0,0,1,2.1-.086l6.708,3.872c.539.311.47.854-.151,1.213l-6.645,3.837A2.333,2.333,0,0,1,388.953,217.571Z" transform="translate(-321.224 -170.992)" fill="#5793ce"/>
        <path id="Trazado_10648" data-name="Trazado 10648" d="M398.069,222.836l-6.707-3.872c-.539-.311-.471-.854.151-1.213l6.645-3.837a2.337,2.337,0,0,1,2.1-.087l6.707,3.873c.539.31.471.853-.15,1.212l-6.646,3.837A2.333,2.333,0,0,1,398.069,222.836Z" transform="translate(-319.983 -170.275)" fill="#5793ce"/>
        <path id="Trazado_10649" data-name="Trazado 10649" d="M407.186,228.1l-6.708-3.872c-.539-.311-.47-.854.151-1.213l6.645-3.837a2.336,2.336,0,0,1,2.1-.086l6.706,3.872c.539.311.47.854-.151,1.213l-6.645,3.837A2.333,2.333,0,0,1,407.186,228.1Z" transform="translate(-318.742 -169.559)" fill="#5793ce"/>
        <path id="Trazado_10650" data-name="Trazado 10650" d="M416.3,233.362l-6.706-3.872c-.538-.311-.471-.854.151-1.213l6.645-3.837a2.337,2.337,0,0,1,2.1-.087l6.706,3.872c.539.311.471.854-.15,1.213l-6.646,3.837A2.333,2.333,0,0,1,416.3,233.362Z" transform="translate(-317.501 -168.842)" fill="#5793ce"/>
        <path id="Trazado_10651" data-name="Trazado 10651" d="M425.419,238.625l-6.708-3.872c-.538-.311-.47-.854.151-1.213l6.645-3.837a2.336,2.336,0,0,1,2.1-.086l6.707,3.872c.539.311.47.854-.151,1.213l-6.645,3.837A2.333,2.333,0,0,1,425.419,238.625Z" transform="translate(-316.26 -168.126)" fill="#5793ce"/>
        <path id="Trazado_10652" data-name="Trazado 10652" d="M434.535,243.89l-6.706-3.873c-.539-.31-.471-.853.151-1.212l6.645-3.837a2.333,2.333,0,0,1,2.1-.087l6.706,3.872c.539.311.471.854-.15,1.213l-6.646,3.837A2.337,2.337,0,0,1,434.535,243.89Z" transform="translate(-315.019 -167.41)" fill="#5793ce"/>
        <path id="Trazado_10653" data-name="Trazado 10653" d="M443.652,249.152l-6.708-3.872c-.539-.311-.47-.854.151-1.213l6.645-3.837a2.336,2.336,0,0,1,2.1-.086l6.706,3.872c.538.31.471.853-.151,1.212l-6.645,3.837A2.333,2.333,0,0,1,443.652,249.152Z" transform="translate(-313.779 -166.693)" fill="#5793ce"/>
        <path id="Trazado_10654" data-name="Trazado 10654" d="M452.768,254.417l-6.706-3.873c-.538-.31-.471-.853.151-1.212l6.645-3.837a2.333,2.333,0,0,1,2.1-.087l6.708,3.872c.539.311.47.854-.151,1.213l-6.645,3.837A2.339,2.339,0,0,1,452.768,254.417Z" transform="translate(-312.538 -165.977)" fill="#5793ce"/>
        <path id="Trazado_10655" data-name="Trazado 10655" d="M461.885,259.68l-6.706-3.872c-.539-.311-.471-.854.15-1.213l6.646-3.837a2.337,2.337,0,0,1,2.1-.087l6.706,3.873c.539.31.472.853-.151,1.212l-6.645,3.837A2.334,2.334,0,0,1,461.885,259.68Z" transform="translate(-311.297 -165.26)" fill="#5793ce"/>
        <path id="Trazado_10656" data-name="Trazado 10656" d="M479.042,269.585l-14.634-8.448c-.539-.311-.47-.854.151-1.213l6.645-3.837a2.34,2.34,0,0,1,2.1-.087l14.633,8.449c.539.31.471.853-.151,1.213l-6.645,3.837A2.333,2.333,0,0,1,479.042,269.585Z" transform="translate(-310.041 -164.535)" fill="#5793ce"/>
        <path id="Trazado_10657" data-name="Trazado 10657" d="M496.517,259.18l-12.352-7.131c-.538-.31-.47-.853.151-1.212L490.962,247a2.333,2.333,0,0,1,2.1-.086l12.352,7.131c.539.31.471.853-.151,1.212l-6.645,3.837A2.334,2.334,0,0,1,496.517,259.18Z" transform="translate(-307.351 -165.772)" fill="#5793ce"/>
        <path id="Trazado_10658" data-name="Trazado 10658" d="M404.918,216.543l-6.708-3.873c-.539-.31-.47-.853.151-1.212l6.645-3.837a2.333,2.333,0,0,1,2.1-.088l6.708,3.872c.538.311.47.854-.151,1.213l-6.645,3.837A2.337,2.337,0,0,1,404.918,216.543Z" transform="translate(-319.051 -171.132)" fill="#5793ce"/>
        <path id="Trazado_10659" data-name="Trazado 10659" d="M395.574,211.147l-6.707-3.872c-.539-.311-.471-.854.151-1.213l6.645-3.837a2.333,2.333,0,0,1,2.1-.086l6.707,3.872c.539.311.471.854-.15,1.213l-6.646,3.837A2.333,2.333,0,0,1,395.574,211.147Z" transform="translate(-320.323 -171.866)" fill="#5793ce"/>
        <path id="Trazado_10660" data-name="Trazado 10660" d="M386.231,205.753l-6.707-3.872c-.539-.311-.471-.854.15-1.213l6.646-3.837a2.337,2.337,0,0,1,2.1-.088l6.706,3.873c.539.31.471.853-.151,1.212l-6.645,3.837A2.333,2.333,0,0,1,386.231,205.753Z" transform="translate(-321.594 -172.6)" fill="#5793ce"/>
        <path id="Trazado_10661" data-name="Trazado 10661" d="M376.888,200.36l-6.708-3.873c-.539-.31-.47-.853.151-1.212l6.645-3.837a2.336,2.336,0,0,1,2.1-.087l6.707,3.872c.539.311.47.854-.151,1.213l-6.645,3.837A2.337,2.337,0,0,1,376.888,200.36Z" transform="translate(-322.866 -173.335)" fill="#5793ce"/>
        <path id="Trazado_10662" data-name="Trazado 10662" d="M414.034,221.805l-6.706-3.872c-.539-.311-.471-.854.151-1.213l6.645-3.837a2.337,2.337,0,0,1,2.1-.087l6.707,3.873c.539.31.472.853-.15,1.212l-6.646,3.837A2.333,2.333,0,0,1,414.034,221.805Z" transform="translate(-317.81 -170.415)" fill="#5793ce"/>
        <path id="Trazado_10663" data-name="Trazado 10663" d="M423.151,227.07l-6.708-3.873c-.539-.31-.47-.853.151-1.212l6.645-3.838a2.339,2.339,0,0,1,2.1-.086l6.707,3.872c.539.311.47.854-.151,1.213l-6.645,3.837A2.337,2.337,0,0,1,423.151,227.07Z" transform="translate(-316.569 -169.699)" fill="#5793ce"/>
        <path id="Trazado_10664" data-name="Trazado 10664" d="M432.267,232.332l-6.706-3.872c-.539-.311-.471-.854.151-1.213l6.645-3.837a2.337,2.337,0,0,1,2.1-.087l6.707,3.873c.539.31.471.853-.15,1.212l-6.646,3.837A2.333,2.333,0,0,1,432.267,232.332Z" transform="translate(-315.328 -168.983)" fill="#5793ce"/>
        <path id="Trazado_10665" data-name="Trazado 10665" d="M441.384,237.6l-6.708-3.872c-.539-.311-.47-.853.151-1.213l6.645-3.837a2.336,2.336,0,0,1,2.1-.086l6.707,3.872c.539.311.47.854-.151,1.213l-6.645,3.837A2.333,2.333,0,0,1,441.384,237.6Z" transform="translate(-314.087 -168.266)" fill="#5793ce"/>
        <path id="Trazado_10666" data-name="Trazado 10666" d="M450.5,242.86l-6.707-3.872c-.538-.311-.471-.854.151-1.213l6.645-3.837a2.333,2.333,0,0,1,2.1-.087l6.707,3.873c.538.31.471.853-.15,1.212l-6.646,3.837A2.333,2.333,0,0,1,450.5,242.86Z" transform="translate(-312.846 -167.55)" fill="#5793ce"/>
        <path id="Trazado_10667" data-name="Trazado 10667" d="M459.617,248.122l-6.708-3.872c-.539-.311-.47-.854.151-1.213l6.645-3.837a2.335,2.335,0,0,1,2.1-.086l6.707,3.872c.539.311.471.854-.151,1.213l-6.645,3.837A2.333,2.333,0,0,1,459.617,248.122Z" transform="translate(-311.606 -166.833)" fill="#5793ce"/>
        <path id="Trazado_10668" data-name="Trazado 10668" d="M468.733,253.387l-6.706-3.873c-.539-.31-.471-.853.151-1.212l6.645-3.837a2.333,2.333,0,0,1,2.1-.087l6.708,3.872c.538.311.47.854-.151,1.213l-6.645,3.837A2.339,2.339,0,0,1,468.733,253.387Z" transform="translate(-310.365 -166.117)" fill="#5793ce"/>
        <path id="Trazado_10669" data-name="Trazado 10669" d="M477.85,258.649l-6.706-3.872c-.539-.311-.471-.854.15-1.213l6.646-3.837a2.337,2.337,0,0,1,2.1-.087l6.706,3.873c.539.311.471.853-.151,1.212l-6.645,3.837A2.333,2.333,0,0,1,477.85,258.649Z" transform="translate(-309.124 -165.4)" fill="#5793ce"/>
        <path id="Trazado_10670" data-name="Trazado 10670" d="M486.966,263.914l-6.706-3.873c-.539-.31-.47-.853.151-1.212l6.645-3.837a2.333,2.333,0,0,1,2.1-.087l6.708,3.872c.539.311.47.854-.151,1.213l-6.645,3.837A2.34,2.34,0,0,1,486.966,263.914Z" transform="translate(-307.883 -164.684)" fill="#5793ce"/>
        <path id="Trazado_10671" data-name="Trazado 10671" d="M400.117,203.523l-6.706-3.872c-.539-.311-.471-.854.151-1.213l6.645-3.837a2.337,2.337,0,0,1,2.1-.087l6.707,3.873c.539.31.471.853-.15,1.212l-6.646,3.837A2.333,2.333,0,0,1,400.117,203.523Z" transform="translate(-319.704 -172.904)" fill="#5793ce"/>
        <path id="Trazado_10672" data-name="Trazado 10672" d="M391.046,198.287l-6.706-3.873c-.538-.31-.471-.853.15-1.212l6.646-3.837a2.334,2.334,0,0,1,2.1-.087l6.706,3.872c.539.311.472.854-.151,1.213l-6.645,3.837A2.337,2.337,0,0,1,391.046,198.287Z" transform="translate(-320.939 -173.617)" fill="#5793ce"/>
        <path id="Trazado_10673" data-name="Trazado 10673" d="M381.975,193.048l-6.708-3.872c-.539-.311-.47-.854.151-1.213l6.645-3.837a2.335,2.335,0,0,1,2.1-.086l6.707,3.872c.539.311.471.854-.151,1.213l-6.645,3.837A2.333,2.333,0,0,1,381.975,193.048Z" transform="translate(-322.174 -174.33)" fill="#5793ce"/>
        <path id="Trazado_10674" data-name="Trazado 10674" d="M372.9,187.811,366.2,183.94c-.539-.311-.47-.854.151-1.213l6.645-3.837a2.333,2.333,0,0,1,2.1-.086l6.708,3.872c.539.31.47.854-.151,1.212L375,187.725A2.333,2.333,0,0,1,372.9,187.811Z" transform="translate(-323.408 -175.042)" fill="#5793ce"/>
        <path id="Trazado_10675" data-name="Trazado 10675" d="M382.232,182.119l-6.708-3.873c-.539-.31-.47-.853.151-1.212l2.2-1.269a2.333,2.333,0,0,1,2.1-.086l6.706,3.872c.539.311.472.854-.151,1.213l-2.2,1.268A2.337,2.337,0,0,1,382.232,182.119Z" transform="translate(-322.139 -175.468)" fill="#5793ce"/>
        <path id="Trazado_10676" data-name="Trazado 10676" d="M394.069,188.953l-6.706-3.872c-.539-.311-.47-.854.151-1.213l2.2-1.268a2.34,2.34,0,0,1,2.1-.087l6.707,3.873c.539.31.471.853-.151,1.212l-2.2,1.269A2.336,2.336,0,0,1,394.069,188.953Z" transform="translate(-320.527 -174.538)" fill="#5793ce"/>
        <path id="Trazado_10677" data-name="Trazado 10677" d="M403.1,194.169,396.4,190.3c-.539-.31-.47-.853.151-1.212l2.2-1.269a2.333,2.333,0,0,1,2.1-.086l6.706,3.872c.539.311.472.854-.15,1.213l-2.2,1.268A2.337,2.337,0,0,1,403.1,194.169Z" transform="translate(-319.298 -173.828)" fill="#5793ce"/>
        <path id="Trazado_10678" data-name="Trazado 10678" d="M412.136,199.384l-6.706-3.872c-.539-.311-.471-.854.151-1.213l2.2-1.268a2.337,2.337,0,0,1,2.1-.087l6.708,3.873c.539.31.47.853-.151,1.212l-2.2,1.269A2.333,2.333,0,0,1,412.136,199.384Z" transform="translate(-318.068 -173.118)" fill="#5793ce"/>
        <path id="Trazado_10679" data-name="Trazado 10679" d="M421.17,204.6l-6.708-3.873c-.538-.31-.47-.853.151-1.212l2.2-1.269a2.333,2.333,0,0,1,2.1-.086l6.706,3.872c.539.31.471.853-.151,1.212l-2.2,1.269A2.337,2.337,0,0,1,421.17,204.6Z" transform="translate(-316.839 -172.408)" fill="#5793ce"/>
        <path id="Trazado_10680" data-name="Trazado 10680" d="M471.6,233.716l-6.708-3.872c-.539-.311-.47-.853.151-1.212l2.2-1.269a2.333,2.333,0,0,1,2.1-.086l6.707,3.872c.538.31.471.853-.151,1.213l-2.2,1.268A2.333,2.333,0,0,1,471.6,233.716Z" transform="translate(-309.974 -168.445)" fill="#5793ce"/>
        <path id="Trazado_10681" data-name="Trazado 10681" d="M480.635,238.932l-6.706-3.872c-.539-.311-.471-.854.15-1.213l2.2-1.268a2.333,2.333,0,0,1,2.1-.087l6.708,3.872c.538.311.47.854-.151,1.213l-2.2,1.268A2.334,2.334,0,0,1,480.635,238.932Z" transform="translate(-308.745 -167.735)" fill="#5793ce"/>
        <path id="Trazado_10682" data-name="Trazado 10682" d="M489.668,244.147l-6.707-3.872c-.539-.311-.471-.854.151-1.213l2.2-1.268a2.339,2.339,0,0,1,2.1-.087l6.706,3.873c.539.31.47.853-.151,1.212l-2.2,1.269A2.336,2.336,0,0,1,489.668,244.147Z" transform="translate(-307.515 -167.025)" fill="#5793ce"/>
        <path id="Trazado_10683" data-name="Trazado 10683" d="M498.7,249.363l-6.708-3.872c-.539-.311-.47-.854.151-1.213l2.2-1.269a2.337,2.337,0,0,1,2.1-.086l6.706,3.872c.539.311.471.854-.15,1.213l-2.2,1.268A2.337,2.337,0,0,1,498.7,249.363Z" transform="translate(-306.286 -166.315)" fill="#5793ce"/>
        <path id="Trazado_10684" data-name="Trazado 10684" d="M409.234,208.786l-6.708-3.872c-.539-.311-.47-.854.151-1.213l6.645-3.837a2.336,2.336,0,0,1,2.1-.086l6.706,3.872c.539.311.47.854-.151,1.213l-6.645,3.837A2.333,2.333,0,0,1,409.234,208.786Z" transform="translate(-318.463 -172.188)" fill="#5793ce"/>
        <path id="Trazado_10685" data-name="Trazado 10685" d="M418.35,214.05l-6.706-3.873c-.539-.31-.471-.853.151-1.212l6.645-3.837a2.337,2.337,0,0,1,2.1-.087l6.706,3.872c.539.311.471.854-.15,1.213l-6.646,3.837A2.337,2.337,0,0,1,418.35,214.05Z" transform="translate(-317.223 -171.471)" fill="#5793ce"/>
        <path id="Trazado_10686" data-name="Trazado 10686" d="M427.467,219.313l-6.708-3.872c-.539-.311-.47-.854.151-1.213l6.645-3.837a2.336,2.336,0,0,1,2.1-.086l6.706,3.872c.539.311.471.853-.151,1.213l-6.645,3.837A2.337,2.337,0,0,1,427.467,219.313Z" transform="translate(-315.982 -170.755)" fill="#5793ce"/>
        <path id="Trazado_10687" data-name="Trazado 10687" d="M436.583,224.578l-6.706-3.873c-.539-.31-.471-.853.151-1.212l6.645-3.837a2.333,2.333,0,0,1,2.1-.087l6.708,3.872c.538.311.47.854-.151,1.213l-6.645,3.837A2.339,2.339,0,0,1,436.583,224.578Z" transform="translate(-314.741 -170.038)" fill="#5793ce"/>
        <path id="Trazado_10688" data-name="Trazado 10688" d="M445.7,229.84l-6.706-3.872c-.539-.311-.472-.854.15-1.213l6.646-3.837a2.337,2.337,0,0,1,2.1-.087L454.6,224.7c.538.31.471.853-.151,1.212l-6.645,3.837A2.333,2.333,0,0,1,445.7,229.84Z" transform="translate(-313.5 -169.322)" fill="#5793ce"/>
        <path id="Trazado_10689" data-name="Trazado 10689" d="M454.816,235.1l-6.706-3.872c-.539-.31-.471-.853.151-1.212l6.645-3.838a2.337,2.337,0,0,1,2.1-.086l6.708,3.872c.539.311.47.854-.151,1.213l-6.645,3.837A2.335,2.335,0,0,1,454.816,235.1Z" transform="translate(-312.259 -168.605)" fill="#5793ce"/>
        <path id="Trazado_10690" data-name="Trazado 10690" d="M463.933,240.367l-6.706-3.872c-.539-.311-.472-.854.15-1.213l6.646-3.837a2.337,2.337,0,0,1,2.1-.088l6.707,3.873c.538.31.471.853-.151,1.212l-6.645,3.837A2.334,2.334,0,0,1,463.933,240.367Z" transform="translate(-311.018 -167.889)" fill="#5793ce"/>
        <path id="Trazado_10691" data-name="Trazado 10691" d="M473.049,245.63l-6.706-3.872c-.539-.311-.47-.854.151-1.213l6.645-3.837a2.333,2.333,0,0,1,2.1-.086l6.708,3.872c.539.311.47.854-.151,1.213l-6.645,3.837A2.336,2.336,0,0,1,473.049,245.63Z" transform="translate(-309.777 -167.172)" fill="#5793ce"/>
        <path id="Trazado_10692" data-name="Trazado 10692" d="M482.166,250.894l-6.707-3.873c-.539-.31-.471-.853.15-1.212l6.646-3.837a2.337,2.337,0,0,1,2.1-.087l6.706,3.873c.539.31.471.853-.151,1.212l-6.645,3.837A2.333,2.333,0,0,1,482.166,250.894Z" transform="translate(-308.536 -166.456)" fill="#5793ce"/>
        <path id="Trazado_10693" data-name="Trazado 10693" d="M358.676,210.339l-19.752-11.4c-.539-.31-.471-.853.151-1.212l6.645-3.837a2.333,2.333,0,0,1,2.1-.087l19.752,11.4c.539.31.472.854-.151,1.212l-6.645,3.838A2.333,2.333,0,0,1,358.676,210.339Z" transform="translate(-327.121 -173.001)" fill="#5793ce"/>
        <path id="Trazado_10694" data-name="Trazado 10694" d="M470.675,275l-19.753-11.4c-.539-.311-.471-.854.151-1.213l6.645-3.837a2.333,2.333,0,0,1,2.1-.086l19.753,11.4c.539.311.471.854-.151,1.213l-6.645,3.837A2.337,2.337,0,0,1,470.675,275Z" transform="translate(-311.876 -164.2)" fill="#5793ce"/>
        <path id="Trazado_10695" data-name="Trazado 10695" d="M432.654,264.764l-6.708-3.872c-.539-.311-.47-.854.151-1.213l7.916-4.571a2.337,2.337,0,0,1,2.1-.087l6.708,3.873c.537.31.47.853-.151,1.212l-7.916,4.571A2.337,2.337,0,0,1,432.654,264.764Z" transform="translate(-315.276 -164.668)" fill="#5793ce"/>
        <path id="Trazado_10696" data-name="Trazado 10696" d="M366.931,226.819,356.2,220.626c-.539-.311-.471-.854.151-1.213l7.916-4.571a2.333,2.333,0,0,1,2.1-.086l10.726,6.192c.538.311.471.854-.151,1.213l-7.916,4.571A2.337,2.337,0,0,1,366.931,226.819Z" transform="translate(-324.769 -170.149)" fill="#5793ce"/>
        <path id="Trazado_10697" data-name="Trazado 10697" d="M424.352,259.971l-10.726-6.193c-.539-.311-.471-.854.15-1.213l7.916-4.571a2.337,2.337,0,0,1,2.1-.087L434.52,254.1c.539.311.47.854-.151,1.213l-7.916,4.571A2.337,2.337,0,0,1,424.352,259.971Z" transform="translate(-316.953 -165.636)" fill="#5793ce"/>
        <path id="Trazado_10698" data-name="Trazado 10698" d="M380.084,234.413l-10.726-6.193c-.539-.311-.47-.854.151-1.213l7.916-4.571a2.333,2.333,0,0,1,2.1-.086l10.726,6.192c.539.311.472.854-.151,1.213l-7.916,4.571A2.337,2.337,0,0,1,380.084,234.413Z" transform="translate(-322.978 -169.115)" fill="#5793ce"/>
        <path id="Trazado_10699" data-name="Trazado 10699" d="M379.546,222.362l46.634,26.924a.638.638,0,0,1,0,1.21l-8.072,4.66a2.318,2.318,0,0,1-2.1,0l-46.634-26.924Z" transform="translate(-322.926 -169.085)" fill="#5793ce"/>
        <path id="Trazado_10700" data-name="Trazado 10700" d="M457.931,273.136l7.47,4.314c.442.254.386.7-.123.994l-3.239,1.869a1.913,1.913,0,0,1-1.721.072l-7.471-4.313c-.442-.256-.386-.7.124-.994l3.238-1.87A1.916,1.916,0,0,1,457.931,273.136Z" transform="translate(-311.605 -162.197)" fill="#5793ce"/>
        <path id="Trazado_10701" data-name="Trazado 10701" d="M448.739,267.829l7.47,4.313c.442.256.386.7-.123,1l-3.239,1.869a1.916,1.916,0,0,1-1.722.072l-7.47-4.313c-.442-.256-.386-.7.123-1l3.239-1.869A1.916,1.916,0,0,1,448.739,267.829Z" transform="translate(-312.856 -162.92)" fill="#5793ce"/>
        <path id="Trazado_10702" data-name="Trazado 10702" d="M439.622,262.566l7.471,4.313c.441.254.386.7-.124.994l-3.238,1.87a1.916,1.916,0,0,1-1.722.072l-7.471-4.314c-.441-.254-.386-.7.124-.994l3.238-1.87A1.912,1.912,0,0,1,439.622,262.566Z" transform="translate(-314.097 -163.636)" fill="#5793ce"/>
        <path id="Trazado_10703" data-name="Trazado 10703" d="M453.773,264.922l7.471,4.314c.441.254.386.7-.124.994l-3.239,1.87a1.913,1.913,0,0,1-1.721.072l-7.471-4.314c-.441-.255-.386-.7.124-.994l3.238-1.87A1.916,1.916,0,0,1,453.773,264.922Z" transform="translate(-312.171 -163.315)" fill="#5793ce"/>
      </g>
      <g id="Grupo_10470" data-name="Grupo 10470" transform="translate(157.259 43.76)">
        <path id="Trazado_10704" data-name="Trazado 10704" d="M495.823,166.491l-55.79-32.21.718-3.627,55.79,32.21Z" transform="translate(-411.762 -89.284)" fill="#d4ecff"/>
        <path id="Trazado_10705" data-name="Trazado 10705" d="M476.218,170.713l-38.944-22.484.718-3.627,38.944,22.485Z" transform="translate(-412.138 -87.386)" fill="#d4ecff"/>
        <path id="Trazado_10706" data-name="Trazado 10706" d="M472.345,160.706l-33.691-19.452.718-3.627,33.691,19.452Z" transform="translate(-411.95 -88.335)" fill="#fff"/>
        <path id="Trazado_10707" data-name="Trazado 10707" d="M489.778,170.771l-16.846-9.726.718-3.627,16.846,9.726Z" transform="translate(-407.284 -85.641)" fill="#a665be"/>
        <path id="Trazado_10708" data-name="Trazado 10708" d="M436.822,107.594l-16.846-9.726.718-3.627,16.846,9.726Z" transform="translate(-414.492 -94.241)" fill="#d4ecff"/>
        <path id="Trazado_10709" data-name="Trazado 10709" d="M435.213,115.013l-16.846-9.726.718-3.627,16.846,9.726Z" transform="translate(-414.711 -93.231)" fill="#fff"/>
        <path id="Trazado_10710" data-name="Trazado 10710" d="M507.989,217.918l-16.846-9.726.718-3.627,16.846,9.726Z" transform="translate(-404.806 -79.224)" fill="#d4ecff"/>
        <path id="Trazado_10711" data-name="Trazado 10711" d="M432,129.851l-16.846-9.726.718-3.627,16.846,9.726Z" transform="translate(-415.149 -91.211)" fill="#d4ecff"/>
      </g>
      <g id="Grupo_10471" data-name="Grupo 10471" transform="translate(206.17 81.392)">
        <path id="Trazado_10712" data-name="Trazado 10712" d="M462.533,130.982a2.1,2.1,0,0,1-3.029.933,2.636,2.636,0,0,1-1.085-3.307,2.1,2.1,0,0,1,3.029-.933A2.635,2.635,0,0,1,462.533,130.982Z" transform="translate(-458.201 -127.364)" fill="#a665be"/>
        <path id="Trazado_10713" data-name="Trazado 10713" d="M468.92,134.671a2.1,2.1,0,0,1-3.029.933,2.636,2.636,0,0,1-1.085-3.308,2.1,2.1,0,0,1,3.029-.933A2.637,2.637,0,0,1,468.92,134.671Z" transform="translate(-457.331 -126.863)" fill="#fff"/>
        <path id="Trazado_10714" data-name="Trazado 10714" d="M475.306,138.357a2.1,2.1,0,0,1-3.029.933,2.637,2.637,0,0,1-1.085-3.308,2.1,2.1,0,0,1,3.029-.933A2.636,2.636,0,0,1,475.306,138.357Z" transform="translate(-456.462 -126.361)" fill="#d4ecff"/>
        <path id="Trazado_10715" data-name="Trazado 10715" d="M481.693,142.044a2.1,2.1,0,0,1-3.029.933,2.636,2.636,0,0,1-1.085-3.307,2.1,2.1,0,0,1,3.029-.933A2.636,2.636,0,0,1,481.693,142.044Z" transform="translate(-455.593 -125.859)" fill="#a665be"/>
      </g>
    </g>
    <g id="Grupo_10494" data-name="Grupo 10494" transform="translate(333.802 174.244)">
      <g id="Grupo_10493" data-name="Grupo 10493" transform="translate(0)">
        <g id="Grupo_10490" data-name="Grupo 10490" transform="translate(3.208)">
          <path id="Trazado_10752" data-name="Trazado 10752" d="M346.135,314.392s-4.26-2.148-6.877,1.05-6.355,10.751-6.471,15.853,4.038,4.758,6.508,3.55,9.682-11.671,10.118-13.721-.515-4.823-1.209-5.365S346.135,314.392,346.135,314.392Z" transform="translate(-316.69 -136.953)" fill="#ff2c9c"/>
          <path id="Trazado_10753" data-name="Trazado 10753" d="M346.319,313.525l.2,4.414a2.5,2.5,0,0,1-1.246,2.3,4.916,4.916,0,0,1-3.287.51c-3.208-.516-3.495-1.433-3.724-5.844S346.319,313.525,346.319,313.525Z" transform="translate(-315.946 -137.113)" fill="#d4ecff"/>
          <g id="Grupo_10489" data-name="Grupo 10489" transform="translate(0 78.503)">
            <path id="Trazado_10754" data-name="Trazado 10754" d="M332.408,306.922s-4.259-2.148-6.876,1.051-6.355,10.75-6.471,15.853,4.038,4.758,6.507,3.55,9.683-11.671,10.119-13.721-.515-4.823-1.209-5.366S332.408,306.922,332.408,306.922Z" transform="translate(-318.558 -216.472)" fill="#ff2c9c"/>
            <path id="Trazado_10755" data-name="Trazado 10755" d="M332.594,306.056l.2,4.414a2.5,2.5,0,0,1-1.247,2.295,4.9,4.9,0,0,1-3.286.511c-3.21-.516-3.5-1.433-3.724-5.845S332.594,306.056,332.594,306.056Z" transform="translate(-317.814 -216.633)" fill="#d4ecff"/>
            <path id="Trazado_10756" data-name="Trazado 10756" d="M371.41,235.62c-1.261-20.515-22.217,3.019-22.217,3.019L334.85,252.7l-12.915,14.188a12.729,12.729,0,0,0-3.207,10.227l5.224,39.783a3.91,3.91,0,0,0,3.921,3.4,13.43,13.43,0,0,0,1.936-.169,4.86,4.86,0,0,0,4.316-5.158l-.954-37.209,27.124-16.351S372.671,256.135,371.41,235.62Z" transform="translate(-318.618 -227.224)" fill="#173d7a"/>
          </g>
          <path id="Trazado_10757" data-name="Trazado 10757" d="M385.135,242.5c-1.261-20.515-22.217,3.018-22.217,3.018l-14.342,14.058-12.917,14.189a12.728,12.728,0,0,0-3.207,10.227l5.225,39.783a3.909,3.909,0,0,0,3.92,3.4,13.257,13.257,0,0,0,1.936-.17,4.86,4.86,0,0,0,4.317-5.157l-.928-36.139,27.1-17.421S386.4,263.015,385.135,242.5Z" transform="translate(-316.75 -147.785)" fill="#173d7a"/>
          <path id="Trazado_10758" data-name="Trazado 10758" d="M371.57,183.8c15.887,6.586,15.569,15.978,15.569,15.978s-3.112,34.43-2.051,57.425c.444,9.613-51.072,10.345-43.388-15.3,9.058-30.238,5.662-54.718,9.9-58.409S367.461,182.1,371.57,183.8Z" transform="translate(-315.583 -154.942)" fill="#ff2c9c"/>
          <path id="Trazado_10759" data-name="Trazado 10759" d="M374.316,191.846c-.831,3.227-5.057,4.926-9.44,3.8s-7.262-4.659-6.43-7.885,5.057-4.925,9.44-3.8S375.146,188.621,374.316,191.846Z" transform="translate(-313.217 -154.657)" fill="#ffc2b0"/>
          <path id="Trazado_10760" data-name="Trazado 10760" d="M368.3,194.453l-2.923,3.173a1.929,1.929,0,0,0-.5,1.526l2.01,17.378a1.891,1.891,0,0,1-.376,1.367l-6.289,8.228a.568.568,0,0,1-.992-.173l-3.424-10.777a1.894,1.894,0,0,1,.035-1.247l6.024-15.784a1.925,1.925,0,0,0,.085-1.083l-.882-4.184Z" transform="translate(-313.568 -153.396)" fill="#fff"/>
          <path id="Trazado_10761" data-name="Trazado 10761" d="M367.679,196.844a11.716,11.716,0,0,1-2.9-.374,10.569,10.569,0,0,1-5.569-3.412,6.078,6.078,0,0,1-1.408-5.4c.935-3.625,5.579-5.574,10.365-4.342s7.911,5.184,6.977,8.811a6.072,6.072,0,0,1-3.84,4.046A9.7,9.7,0,0,1,367.679,196.844Zm-2.422-12.383c-2.951,0-5.417,1.372-5.985,3.578a4.6,4.6,0,0,0,1.113,4.059,9.633,9.633,0,0,0,10.35,2.666,4.6,4.6,0,0,0,2.936-3.016h0c.726-2.815-1.914-5.937-5.885-6.96A10.1,10.1,0,0,0,365.257,184.461Z" transform="translate(-313.308 -154.748)" fill="#fff"/>
          <path id="Trazado_10762" data-name="Trazado 10762" d="M362.308,183.279a39.117,39.117,0,0,1-.137,5.671c-.086,1.583,5.454,3.062,6.887,1.629s.86-2.922,1.2-8.31S362.308,183.279,362.308,183.279Z" transform="translate(-312.69 -155.134)" fill="#ffc2b0"/>
          <path id="Trazado_10763" data-name="Trazado 10763" d="M370.262,182.012s-1.366,4.994-8.093,6.911l.1-4.54Z" transform="translate(-312.69 -154.875)" fill="#ea9c92"/>
          <circle id="Elipse_630" data-name="Elipse 630" cx="12.229" cy="12.229" r="12.229" transform="translate(35.105 26.311) rotate(-75.592)" fill="#ffc2b0"/>
          <path id="Trazado_10764" data-name="Trazado 10764" d="M366.906,174.287s-6.734,2.883-11.4,2.918-3.634-3.872-3.634-3.872l13.84-2Z" transform="translate(-314.105 -156.329)" fill="#ea9c92"/>
          <path id="Trazado_10765" data-name="Trazado 10765" d="M354.757,176.845s5.866-2.49,11.011-1.452a5.4,5.4,0,0,1,3.11,1.847,1.835,1.835,0,0,0,.941.682c.912.206,2.406-3.58,4.18-3.666s2.957,1.17,1.5,3.5-.963,4.933-.294,5.307,8.953-5.407,2.693-17.807-23.348-5.377-25.822-2.864c0,0-2.605,2.271-4.724.25C347.354,162.639,344.979,180.43,354.757,176.845Z" transform="translate(-314.742 -158.126)" fill="#173d7a"/>
          <path id="Trazado_10766" data-name="Trazado 10766" d="M376.195,220.371v9.3a3.787,3.787,0,0,1-1.237,2.8L355.846,249.9l2.172,3.321,26.331-17.266a5.129,5.129,0,0,0,2.089-3.616l1.8-17.264Z" transform="translate(-313.551 -150.375)" fill="#ffc2b0"/>
          <path id="Trazado_10767" data-name="Trazado 10767" d="M381.492,193.5s5.8,8.72,7.958,31.673c0,0-9.9,3.2-15.526,1.385S381.492,193.5,381.492,193.5Z" transform="translate(-311.28 -153.311)" fill="#ff2c9c"/>
          <path id="Trazado_10768" data-name="Trazado 10768" d="M373.112,203.2s-2.27,12.15-2.4,17.859a3.645,3.645,0,0,0,2.4,3.52h0Z" transform="translate(-311.527 -151.991)" fill="#d3008d"/>
        </g>
        <g id="Grupo_10491" data-name="Grupo 10491" transform="translate(3.055 92.578)">
          <path id="Trazado_10769" data-name="Trazado 10769" d="M375.263,258.369l-4.224-.558-27.268-15.743a3.792,3.792,0,0,0-3.411.142l-19.322,11.151-2.554-.337v2.543h0a1,1,0,0,0,.586.9l30.9,17.84a3.788,3.788,0,0,0,3.411-.141l21.042-12.145a1.377,1.377,0,0,0,.835-1.146h0Z" transform="translate(-318.484 -239.325)" fill="#5793ce"/>
          <path id="Trazado_10770" data-name="Trazado 10770" d="M354.775,247.753l-1.937-1.118h-21.3l-10.5,6.058-2.554-.337V254.9h0a1,1,0,0,0,.586.9l30.9,17.84a3.2,3.2,0,0,0,1.76.331Z" transform="translate(-318.484 -238.657)" fill="#396caa"/>
          <path id="Trazado_10771" data-name="Trazado 10771" d="M319.618,251.82l-1.133-.15v2.543h0a1,1,0,0,0,.586.9l.544.314Z" transform="translate(-318.484 -237.971)" fill="#5793ce"/>
          <path id="Trazado_10772" data-name="Trazado 10772" d="M346.477,271.068a3.962,3.962,0,0,0,2.9-.181v-4.326h-2.9Z" transform="translate(-314.674 -235.944)" fill="#5793ce"/>
          <path id="Trazado_10773" data-name="Trazado 10773" d="M349.976,272.05l-30.9-17.842c-.874-.5-.765-1.386.245-1.969l21.042-12.145a3.788,3.788,0,0,1,3.411-.141l30.9,17.842c.874.5.765,1.386-.245,1.969l-21.042,12.144A3.792,3.792,0,0,1,349.976,272.05Z" transform="translate(-318.484 -239.613)" fill="#fff"/>
          <path id="Trazado_10774" data-name="Trazado 10774" d="M348.88,268.564l-25.7-14.834c-.726-.42-.635-1.153.2-1.637l11.276-6.342a3.155,3.155,0,0,1,2.836-.117L363.2,260.469c.727.419.636,1.152-.2,1.637l-11.276,6.341A3.148,3.148,0,0,1,348.88,268.564Z" transform="translate(-317.911 -238.832)" fill="#d4ecff"/>
        </g>
        <path id="Trazado_10775" data-name="Trazado 10775" d="M338.851,239.649l-.32,2.132a15.762,15.762,0,0,0,.14,5.468l.38,1.878a2.644,2.644,0,0,0,2.118,2.076h0a1.458,1.458,0,0,0,1.71-1.271l.51-4.558s1.166,1.528,1.729,1.528-.631-4.565-1.9-7.148S338.851,239.649,338.851,239.649Z" transform="translate(-312.724 -147.176)" fill="#ffc2b0"/>
        <path id="Trazado_10776" data-name="Trazado 10776" d="M349.508,210.465l-3.316,6.562a12.875,12.875,0,0,0-1.357,4.982l-1.441,22.447-4.362-.1-1.98-25.208a9.2,9.2,0,0,1,.112-2.33l2.262-12.784Z" transform="translate(-312.905 -151.878)" fill="#ffc2b0"/>
        <g id="Grupo_10492" data-name="Grupo 10492" transform="translate(0 79.211)">
          <path id="Trazado_10777" data-name="Trazado 10777" d="M349.231,275.365l-2.591-3.382-27.249-15.776a3.792,3.792,0,0,1-1.579-3.027l.024-22.309-1.567-2.045,1.472-.853v0a1,1,0,0,1,1.069.061l30.88,17.879a3.79,3.79,0,0,1,1.579,3.027l-.025,24.3a1.378,1.378,0,0,1-.578,1.3h0Z" transform="translate(-315.731 -227.847)" fill="#173d7a"/>
          <path id="Trazado_10778" data-name="Trazado 10778" d="M330.388,262.572l-1.936-1.12-10.627-18.458.011-12.122-1.567-2.045,1.472-.853v0a1,1,0,0,1,1.069.061l30.88,17.879a3.2,3.2,0,0,1,1.164,1.361Z" transform="translate(-315.731 -227.847)" fill="#396caa"/>
          <path id="Trazado_10779" data-name="Trazado 10779" d="M316.964,229.734l-.7-.908,1.472-.853v0a1,1,0,0,1,1.069.061l.544.316Z" transform="translate(-315.731 -227.847)" fill="#5793ce"/>
          <path id="Trazado_10780" data-name="Trazado 10780" d="M346.314,243.925a3.958,3.958,0,0,1,1.291,2.6l-3.018,1.742-1.446-2.511Z" transform="translate(-312.073 -225.659)" fill="#274f89"/>
          <path id="Trazado_10781" data-name="Trazado 10781" d="M348.286,246.666,317.4,228.787c-.874-.506-1.583.03-1.584,1.2l-.026,24.295a3.788,3.788,0,0,0,1.579,3.027l30.881,17.879c.873.505,1.583-.03,1.584-1.2l.026-24.295A3.791,3.791,0,0,0,348.286,246.666Z" transform="translate(-315.795 -227.745)" fill="#5793ce"/>
        </g>
        <path id="Trazado_10782" data-name="Trazado 10782" d="M358.978,249.048l-.5,1.025a6.871,6.871,0,0,1-2.581,2.862l-3.067,1.891a3.054,3.054,0,0,1-3.131.073l-.1-.064a1.845,1.845,0,0,1-.26-2.835l3.2-3.3s-1.8,1.38-2.305.824c-.37-.407,1.746-2.394,3.371-2.459a6.421,6.421,0,0,0,3.2-1.342Z" transform="translate(-311.303 -146.203)" fill="#ffc2b0"/>
        <path id="Trazado_10783" data-name="Trazado 10783" d="M352.58,183.221s-11.751,12.785-16.492,24.515a23.988,23.988,0,0,0,13.855,10.08C359.778,220.656,352.58,183.221,352.58,183.221Z" transform="translate(-313.033 -154.711)" fill="#ff2c9c"/>
        <path id="Trazado_10784" data-name="Trazado 10784" d="M346.645,215.207l1.905-18.4-4.489,17.237A25.369,25.369,0,0,0,346.645,215.207Z" transform="translate(-311.948 -152.861)" fill="#d3008d"/>
      </g>
    </g>
    <g id="Grupo_10500" data-name="Grupo 10500" transform="translate(339.92 92.502)">
      <g id="Grupo_10498" data-name="Grupo 10498" transform="translate(0)">
        <path id="Trazado_10789" data-name="Trazado 10789" d="M380.582,111.82,336.861,86.586a2.65,2.65,0,0,0-2.482-.181l.009-.028-5.212,2.449s1.957.684,3.106,1.088l-6.31,31.829c-.512,2.589.645,5.6,2.589,6.719l41.789,24.12-.741,3.734,5.264-2.467-.024-.009a3.8,3.8,0,0,0,1.88-2.8l6.442-32.5C383.684,115.95,382.525,112.942,380.582,111.82Z" transform="translate(-320.544 -86.178)" fill="#a665be"/>
        <path id="Trazado_10790" data-name="Trazado 10790" d="M367.611,155.889,323.89,130.655c-1.943-1.121-3.1-4.13-2.588-6.719l6.442-32.5c.514-2.59,2.505-3.781,4.448-2.66l43.721,25.235c1.943,1.121,3.1,4.13,2.588,6.719l-6.442,32.5C371.545,155.821,369.554,157.01,367.611,155.889Z" transform="translate(-321.18 -85.881)" fill="#a665be"/>
        <path id="Trazado_10791" data-name="Trazado 10791" d="M375.812,113.668,332.091,88.434a2.615,2.615,0,0,0-2.87.024,2.771,2.771,0,0,1,1.876.366l43.721,25.235c1.943,1.121,3.1,4.13,2.588,6.719l-6.442,32.5a4.007,4.007,0,0,1-1.578,2.635,3.448,3.448,0,0,0,2.572-3.024l6.442-32.5C378.914,117.8,377.755,114.789,375.812,113.668Z" transform="translate(-320.085 -85.927)" fill="#fff"/>
      </g>
      <g id="Grupo_10499" data-name="Grupo 10499" transform="translate(15.338 28.064)">
        <path id="Trazado_10792" data-name="Trazado 10792" d="M340.657,116.39a2.31,2.31,0,0,1-3.624,1.7,5.126,5.126,0,0,1-2.276-5.107,2.31,2.31,0,0,1,3.625-1.7A5.127,5.127,0,0,1,340.657,116.39Z" transform="translate(-334.68 -110.879)" fill="#fff"/>
        <ellipse id="Elipse_632" data-name="Elipse 632" cx="2.831" cy="3.955" rx="2.831" ry="3.955" transform="matrix(0.922, -0.387, 0.387, 0.922, 7.822, 6.417)" fill="#fff"/>
        <path id="Trazado_10793" data-name="Trazado 10793" d="M356.389,125.47a2.31,2.31,0,0,1-3.624,1.7,5.126,5.126,0,0,1-2.276-5.107,2.31,2.31,0,0,1,3.625-1.7A5.127,5.127,0,0,1,356.389,125.47Z" transform="translate(-332.539 -109.643)" fill="#fff"/>
      </g>
    </g>
  </g>
</svg>
