<svg xmlns="http://www.w3.org/2000/svg" width="298" height="268.286" viewBox="0 0 298 268.286">
  <g id="Grupo_10287" data-name="Grupo 10287" transform="translate(-630.969 -228.549)">
    <path id="Trazado_10011" data-name="Trazado 10011" d="M883.082,267.8c-17.052-40.839-66.4-49.722-102.245-27.052q-3.319,1.628-6.427,3.528c-8.307,5.057-15.64,11.507-22.671,18.659-14.558,14.892-27.986,30.233-44.942,40.887-1.982,1.339-5.833,3.947-10.266,6.992-8.868,6.092-20.051,13.979-23.47,16.72q-1.324,1.061-2.71,2.037c-17.964,12.561-31.645,31.344-37.5,51.908l-.03.1a49.3,49.3,0,0,0-1.438,19.739c3.66,28.352,19.265,58.092,44.864,70.89a98.634,98.634,0,0,0,10.471,3.914,122.877,122.877,0,0,0,33.2,5.275,145.682,145.682,0,0,0,21.385-.8,137.076,137.076,0,0,0,20.477-3.852c5.762-1.234,11.442-2.723,16.988-4.426,2.369-.6,4.7-1.2,6.966-1.78,18.157-6.258,36.194.389,54.091,5.407,19.617,5.965,41.7,2.44,60.548-5.792a56.106,56.106,0,0,0,9.081-5.98q.528-.426,1.043-.864c18.089-15.342,23.427-41.021,13.639-62.628-7.727-17.053-19.3-39.407-22.287-50.446C898.149,336.577,897.652,299.27,883.082,267.8Z" transform="translate(0)" fill="#4d3072"/>
    <ellipse id="_Path_" data-name="&lt;Path&gt;" cx="140.395" cy="8.199" rx="140.395" ry="8.199" transform="translate(631.453 480.437)" fill="#99a1d3" opacity="0.4"/>
    <g id="Grupo_10265" data-name="Grupo 10265" transform="translate(786.865 304.434)">
      <path id="Trazado_10012" data-name="Trazado 10012" d="M1013.83,427.441c1.66-11.907-6.648-21.561-18.556-21.561h86.981c11.907,0,20.215,9.653,18.555,21.561Z" transform="translate(-995.274 -405.88)" fill="#99a1d3"/>
      <path id="Trazado_10013" data-name="Trazado 10013" d="M1013.83,427.441c1.66-11.907-6.648-21.561-18.556-21.561h86.981c11.907,0,20.215,9.653,18.555,21.561Z" transform="translate(-995.274 -405.88)" fill="#5d6da3" opacity="0.7"/>
    </g>
    <path id="Trazado_10014" data-name="Trazado 10014" d="M935.866,405.88h86.981c-11.907,0-22.906,9.653-24.565,21.561L978.619,568.522c-1.66,11.907-12.658,21.561-24.565,21.561h-43.86c-11.907,0-20.215-9.653-18.555-21.561L911.3,427.441C912.961,415.533,923.959,405.88,935.866,405.88Z" transform="translate(-149.002 -101.446)" fill="#99a1d3"/>
    <g id="Grupo_10266" data-name="Grupo 10266" transform="translate(699.305 467.075)">
      <path id="Trazado_10015" data-name="Trazado 10015" d="M877.853,785.949c-1.66,11.908,6.648,21.561,18.556,21.561H809.428c-11.907,0-20.215-9.653-18.556-21.561Z" transform="translate(-790.661 -785.949)" fill="#a665be"/>
      <path id="Trazado_10016" data-name="Trazado 10016" d="M877.853,785.949c-1.66,11.908,6.648,21.561,18.556,21.561H809.428c-11.907,0-20.215-9.653-18.556-21.561Z" transform="translate(-790.661 -785.949)" fill="#5d6da3" opacity="0.7"/>
    </g>
    <g id="Grupo_10267" data-name="Grupo 10267" transform="translate(797.965 344.755)" style="mix-blend-mode: multiply;isolation: isolate">
      <path id="Trazado_10017" data-name="Trazado 10017" d="M1024.929,503.673h33.69a2.126,2.126,0,0,0,2.033-1.784h0a1.52,1.52,0,0,0-1.535-1.784h-33.69a2.126,2.126,0,0,0-2.033,1.784h0A1.521,1.521,0,0,0,1024.929,503.673Z" transform="translate(-1022.451 -500.105)" fill="#99a1d3"/>
      <path id="Trazado_10018" data-name="Trazado 10018" d="M1022.766,519.193h24.756a2.126,2.126,0,0,0,2.033-1.784h0a1.52,1.52,0,0,0-1.535-1.784h-24.756a2.126,2.126,0,0,0-2.033,1.784h0A1.52,1.52,0,0,0,1022.766,519.193Z" transform="translate(-1021.214 -508.983)" fill="#99a1d3"/>
    </g>
    <g id="Grupo_10268" data-name="Grupo 10268" transform="translate(793.921 373.771)">
      <path id="Trazado_10019" data-name="Trazado 10019" d="M1015.479,571.479h11.365a2.126,2.126,0,0,0,2.033-1.784h0a1.521,1.521,0,0,0-1.535-1.784h-11.365a2.126,2.126,0,0,0-2.033,1.784h0A1.52,1.52,0,0,0,1015.479,571.479Z" transform="translate(-1013.001 -567.91)" fill="#99a1d3" style="mix-blend-mode: multiply;isolation: isolate"/>
      <path id="Trazado_10020" data-name="Trazado 10020" d="M1058.064,571.479H1074.3a2.126,2.126,0,0,0,2.033-1.784h0a1.521,1.521,0,0,0-1.535-1.784h-16.235a2.127,2.127,0,0,0-2.033,1.784h0A1.521,1.521,0,0,0,1058.064,571.479Z" transform="translate(-1037.362 -567.91)" fill="#99a1d3" style="mix-blend-mode: multiply;isolation: isolate"/>
      <path id="Trazado_10021" data-name="Trazado 10021" d="M1013.316,587h27.831a2.126,2.126,0,0,0,2.033-1.784h0a1.521,1.521,0,0,0-1.536-1.784h-27.831a2.126,2.126,0,0,0-2.033,1.784h0A1.52,1.52,0,0,0,1013.316,587Z" transform="translate(-1011.764 -576.789)" fill="#99a1d3" style="mix-blend-mode: multiply;isolation: isolate"/>
    </g>
    <g id="Grupo_10269" data-name="Grupo 10269" transform="translate(789.877 402.787)">
      <path id="Trazado_10022" data-name="Trazado 10022" d="M1006.029,639.284h19.789a2.127,2.127,0,0,0,2.033-1.784h0a1.521,1.521,0,0,0-1.536-1.784h-19.789a2.126,2.126,0,0,0-2.033,1.784h0A1.52,1.52,0,0,0,1006.029,639.284Z" transform="translate(-1003.551 -635.716)" fill="#565fa4"/>
      <path id="Trazado_10023" data-name="Trazado 10023" d="M1003.866,654.8h30.85a2.127,2.127,0,0,0,2.033-1.784h0a1.521,1.521,0,0,0-1.536-1.784h-30.85a2.126,2.126,0,0,0-2.033,1.784h0A1.521,1.521,0,0,0,1003.866,654.8Z" transform="translate(-1002.314 -644.594)" fill="#565fa4"/>
    </g>
    <g id="Grupo_10270" data-name="Grupo 10270" transform="translate(754.173 324.7)">
      <path id="Trazado_10024" data-name="Trazado 10024" d="M924.09,718.948h47.241a2.981,2.981,0,0,0,2.85-2.5h0a2.132,2.132,0,0,0-2.153-2.5H924.787a2.981,2.981,0,0,0-2.85,2.5h0A2.132,2.132,0,0,0,924.09,718.948Z" transform="translate(-920.615 -602.383)" fill="#565fa4"/>
      <path id="Trazado_10025" data-name="Trazado 10025" d="M921.057,740.71H955.77a2.981,2.981,0,0,0,2.85-2.5h0a2.132,2.132,0,0,0-2.153-2.5H921.754a2.982,2.982,0,0,0-2.85,2.5h0A2.132,2.132,0,0,0,921.057,740.71Z" transform="translate(-918.879 -614.831)" fill="#565fa4"/>
      <path id="Trazado_10026" data-name="Trazado 10026" d="M963.875,455.828H1020.2a1.542,1.542,0,0,0,1.474-1.294h0a1.1,1.1,0,0,0-1.113-1.294H964.235a1.542,1.542,0,0,0-1.474,1.294h0A1.1,1.1,0,0,0,963.875,455.828Z" transform="translate(-943.976 -453.24)" fill="#565fa4"/>
    </g>
    <g id="Grupo_10271" data-name="Grupo 10271" transform="translate(755.34 391.513)">
      <ellipse id="Elipse_623" data-name="Elipse 623" cx="11.535" cy="10.035" rx="11.535" ry="10.035" transform="matrix(0.731, -0.682, 0.682, 0.731, 0, 15.735)" fill="#fff" opacity="0.4"/>
      <path id="Trazado_10027" data-name="Trazado 10027" d="M934.74,632.061a8.861,8.861,0,0,0,.523,4.575,8.106,8.106,0,0,0,7.744,5.03,11.314,11.314,0,0,0,9.146-5.03,10.75,10.75,0,0,0,1.8-4.575,8.164,8.164,0,0,0-8.267-9.606A11.41,11.41,0,0,0,934.74,632.061Z" transform="translate(-929.066 -616.856)" fill="#fff"/>
      <path id="Trazado_10028" data-name="Trazado 10028" d="M940.976,650.856a6.22,6.22,0,0,0,5.941,3.859,8.682,8.682,0,0,0,7.018-3.859,10.356,10.356,0,0,0-6.206-1.963A12.986,12.986,0,0,0,940.976,650.856Z" transform="translate(-932.687 -631.981)" fill="#565fa4"/>
      <path id="Trazado_10029" data-name="Trazado 10029" d="M950.367,635a2.79,2.79,0,0,0,2.825,3.283,3.9,3.9,0,0,0,3.74-3.283,2.79,2.79,0,0,0-2.825-3.283A3.9,3.9,0,0,0,950.367,635Z" transform="translate(-938.041 -622.152)" fill="#565fa4"/>
    </g>
    <g id="Grupo_10272" data-name="Grupo 10272" transform="translate(759.619 361.986)">
      <ellipse id="Elipse_624" data-name="Elipse 624" cx="11.535" cy="10.035" rx="11.535" ry="10.035" transform="matrix(0.731, -0.682, 0.682, 0.731, 0, 15.735)" fill="#fff" opacity="0.4"/>
      <path id="Trazado_10030" data-name="Trazado 10030" d="M944.74,563.061a8.861,8.861,0,0,0,.523,4.575,8.106,8.106,0,0,0,7.744,5.03,11.314,11.314,0,0,0,9.146-5.03,10.749,10.749,0,0,0,1.8-4.575,8.164,8.164,0,0,0-8.267-9.606A11.41,11.41,0,0,0,944.74,563.061Z" transform="translate(-939.066 -547.856)" fill="#fff"/>
      <path id="Trazado_10031" data-name="Trazado 10031" d="M950.976,581.856a6.22,6.22,0,0,0,5.941,3.859,8.682,8.682,0,0,0,7.018-3.859,10.356,10.356,0,0,0-6.206-1.963A12.987,12.987,0,0,0,950.976,581.856Z" transform="translate(-942.687 -562.981)" fill="#565fa4"/>
      <path id="Trazado_10032" data-name="Trazado 10032" d="M960.367,566a2.79,2.79,0,0,0,2.825,3.283,3.9,3.9,0,0,0,3.74-3.283,2.79,2.79,0,0,0-2.825-3.283A3.9,3.9,0,0,0,960.367,566Z" transform="translate(-948.041 -553.152)" fill="#565fa4"/>
    </g>
    <g id="Grupo_10273" data-name="Grupo 10273" transform="translate(763.899 333.315)">
      <ellipse id="Elipse_625" data-name="Elipse 625" cx="11.535" cy="10.035" rx="11.535" ry="10.035" transform="matrix(0.731, -0.682, 0.682, 0.731, 0, 15.735)" fill="#fff" opacity="0.4"/>
      <path id="Trazado_10033" data-name="Trazado 10033" d="M954.74,496.061a8.861,8.861,0,0,0,.523,4.575,8.106,8.106,0,0,0,7.744,5.03,11.314,11.314,0,0,0,9.146-5.03,10.749,10.749,0,0,0,1.8-4.575,8.164,8.164,0,0,0-8.267-9.606A11.41,11.41,0,0,0,954.74,496.061Z" transform="translate(-949.066 -480.856)" fill="#fff"/>
      <path id="Trazado_10034" data-name="Trazado 10034" d="M960.976,514.856a6.22,6.22,0,0,0,5.941,3.859,8.682,8.682,0,0,0,7.018-3.859,10.356,10.356,0,0,0-6.206-1.963A12.986,12.986,0,0,0,960.976,514.856Z" transform="translate(-952.687 -495.981)" fill="#565fa4"/>
      <path id="Trazado_10035" data-name="Trazado 10035" d="M970.367,499a2.79,2.79,0,0,0,2.825,3.283,3.9,3.9,0,0,0,3.74-3.283,2.79,2.79,0,0,0-2.825-3.283A3.9,3.9,0,0,0,970.367,499Z" transform="translate(-958.041 -486.152)" fill="#565fa4"/>
    </g>
    <g id="Grupo_10286" data-name="Grupo 10286" transform="translate(642.801 266.161)">
      <g id="Grupo_10285" data-name="Grupo 10285" transform="translate(0 0)">
        <path id="Trazado_10036" data-name="Trazado 10036" d="M849.443,323.6c.695-3.046,8.3-5.942,14.814-1.476a15.9,15.9,0,0,1,6.155,18.307c-3.5,10.355,14.759,9.972,18.986,27.432,3.338,13.789.242,33.243-18.385,32.185-28.435-1.615-25.98-29.409-27.229-44.012S827.025,325.077,849.443,323.6Z" transform="translate(-760.894 -318.378)" fill="#270744"/>
        <path id="Trazado_10037" data-name="Trazado 10037" d="M810.639,419.239c-.12,2.113-.369,4.049-.646,6.057-.283,1.99-.656,3.965-1.087,5.935s-.906,3.936-1.528,5.878a52.989,52.989,0,0,1-2.111,5.777l-.639,1.419c-.09.216-.262.531-.4.8s-.3.517-.452.775a21.962,21.962,0,0,1-1.982,2.644,45.843,45.843,0,0,1-4.343,4.363,81.138,81.138,0,0,1-9.526,7.212l-1.936-2.5c1.364-1.321,2.752-2.682,4.094-4.043s2.668-2.741,3.924-4.147a52.624,52.624,0,0,0,3.514-4.268A19.566,19.566,0,0,0,798.88,443c.081-.169.181-.344.249-.5s.133-.287.219-.525l.487-1.274a71.517,71.517,0,0,0,2.88-10.74c.37-1.84.633-3.707.911-5.569.269-1.846.481-3.778.644-5.547Z" transform="translate(-731.485 -375.022)" fill="#ffb570"/>
        <path id="Trazado_10038" data-name="Trazado 10038" d="M827.6,401.428c-2.572.655-4.372,11.24-4.372,11.24l9.838,6.69s4.047-12.548,2.068-15.376C833.069,401.037,831.349,400.472,827.6,401.428Z" transform="translate(-752.785 -364.816)" fill="#a665be"/>
        <path id="Trazado_10039" data-name="Trazado 10039" d="M831.341,407.524l-1.976,10.669,3.984,2.7Z" transform="translate(-756.298 -368.548)" opacity="0.2"/>
        <path id="Trazado_10040" data-name="Trazado 10040" d="M779.879,507.292l-6.627,1.058,3.778,4.187s3.906-.893,4.591-3.4Z" transform="translate(-724.198 -425.623)" fill="#ffb570"/>
        <g id="Grupo_10274" data-name="Grupo 10274" transform="translate(45.92 82.727)">
          <path id="Trazado_10041" data-name="Trazado 10041" d="M765.926,510.593l3.78,4.094,3.133-.736-3.778-4.187Z" transform="translate(-765.926 -509.764)" fill="#ffb570"/>
        </g>
        <path id="Trazado_10042" data-name="Trazado 10042" d="M857.06,799.018h-6.241l-.417-14.453h6.241Z" transform="translate(-768.333 -584.243)" fill="#ffb570"/>
        <path id="Trazado_10043" data-name="Trazado 10043" d="M949.308,758.482l-5.778,2.359-7.32-12.622,5.778-2.359Z" transform="translate(-817.421 -562.101)" fill="#ffb570"/>
        <path id="Trazado_10044" data-name="Trazado 10044" d="M941.71,773.958l6.027-3.582a.494.494,0,0,1,.646.112l3.521,4.361a1,1,0,0,1-.293,1.465c-2.123,1.212-3.209,1.691-5.86,3.266-1.63.969-5.465,4.29-7.716,5.628-2.2,1.309-3.7-.817-2.877-1.576a21.365,21.365,0,0,0,5.852-8.811A1.631,1.631,0,0,1,941.71,773.958Z" transform="translate(-816.69 -576.084)" fill="#270744"/>
        <path id="Trazado_10045" data-name="Trazado 10045" d="M837.329,816.651h7.012a.493.493,0,0,1,.5.426l.8,5.548a1,1,0,0,1-1,1.11c-2.444-.042-3.622-.186-6.706-.186-1.9,0-5.821.2-8.44.2-2.562,0-2.759-2.59-1.669-2.825,4.891-1.052,6.816-2.5,8.464-3.886A1.627,1.627,0,0,1,837.329,816.651Z" transform="translate(-755.057 -602.599)" fill="#270744"/>
        <g id="Grupo_10275" data-name="Grupo 10275" transform="translate(82.07 183.762)" opacity="0.2">
          <path id="Trazado_10046" data-name="Trazado 10046" d="M850.406,784.574l.214,7.45h6.244l-.214-7.45Z" transform="translate(-850.406 -768.01)"/>
          <path id="Trazado_10047" data-name="Trazado 10047" d="M941.992,745.867l-5.78,2.36,3.776,6.505,5.78-2.36Z" transform="translate(-899.493 -745.867)"/>
        </g>
        <path id="Trazado_10048" data-name="Trazado 10048" d="M832.448,399.583s-2.973,1.047,2.982,37.668h25.347c-.425-10.316-.437-16.678,4.493-37.849a74.8,74.8,0,0,0-10.764-1.418,80.694,80.694,0,0,0-11.51,0C838.054,398.436,832.448,399.583,832.448,399.583Z" transform="translate(-757.638 -362.971)" fill="#a665be"/>
        <path id="Trazado_10049" data-name="Trazado 10049" d="M899.662,421.161c-2.3.572-4.417,3.078-4.164,7.69a11.092,11.092,0,0,0,2.114,5.807c.406-3.548,1.086-7.668,2.165-12.94Z" transform="translate(-794.12 -376.349)" opacity="0.2"/>
        <path id="Trazado_10050" data-name="Trazado 10050" d="M861.21,408.3s3.293,2.032,4.157,5.049c3.574-2.619,8.435-9.912,8.628-14.275a.955.955,0,0,0-.959-.968,12.207,12.207,0,0,0-1.65.067Z" transform="translate(-774.516 -363.157)" fill="#fafafa"/>
        <path id="Trazado_10051" data-name="Trazado 10051" d="M852.817,408.3s-3.293,2.032-4.156,5.049c-3.843-2.816-1.711-12.109.49-15.2a10.99,10.99,0,0,1,2.333.028Z" transform="translate(-766.123 -363.16)" fill="#fafafa"/>
        <path id="Trazado_10052" data-name="Trazado 10052" d="M866.652,367.977c-.726,3.7-1.451,10.489,1.14,12.96a26.77,26.77,0,0,1-10.176,10.127c-5.134-4.1-1.334-10.127-1.334-10.127,4.13-.986,4.023-4.05,3.3-6.927Z" transform="translate(-770.923 -345.924)" fill="#ffb570"/>
        <path id="Trazado_10053" data-name="Trazado 10053" d="M870,373.729l-4.182,3.568a11.858,11.858,0,0,1,.355,2.043c1.577-.228,4.058-1.572,4.4-3.287A4.927,4.927,0,0,0,870,373.729Z" transform="translate(-777.154 -349.215)" opacity="0.2"/>
        <path id="Trazado_10054" data-name="Trazado 10054" d="M871.825,339.529c-1.712,5.953-2.31,8.509-6.046,10.929-5.621,3.64-12.558.236-12.659-6.109-.091-5.71,2.724-14.486,9.165-15.574A8.448,8.448,0,0,1,871.825,339.529Z" transform="translate(-769.887 -323.425)" fill="#ffb570"/>
        <path id="Trazado_10055" data-name="Trazado 10055" d="M866.791,328.079c.282,2.011,11.3,8.488,13.4,5.109s-.918-5.913-5.608-6.557A11.89,11.89,0,0,0,866.791,328.079Z" transform="translate(-777.709 -322.2)" fill="#270744"/>
        <path id="Trazado_10056" data-name="Trazado 10056" d="M883.119,332.726c-1.354,1.785,1.513,14.612,5.621,13.406s3.917-5.312,1.063-9.1A11.009,11.009,0,0,0,883.119,332.726Z" transform="translate(-786.856 -325.758)" fill="#270744"/>
        <g id="Grupo_10276" data-name="Grupo 10276" transform="translate(73.255 74.28)">
          <path id="Trazado_10057" data-name="Trazado 10057" d="M834.343,490.023s-4.922,48.076-4.513,67.108c.425,19.8,7.68,64.946,7.68,64.946h8.439s-1.336-43.993-.59-63.435c.813-21.2,7.546-68.619,7.546-68.619Z" transform="translate(-829.806 -490.023)" fill="#007cff"/>
          <path id="Trazado_10058" data-name="Trazado 10058" d="M834.343,490.023s-4.922,48.076-4.513,67.108c.425,19.8,7.68,64.946,7.68,64.946h8.439s-1.336-43.993-.59-63.435c.813-21.2,7.546-68.619,7.546-68.619Z" transform="translate(-829.806 -490.023)" opacity="0.4"/>
        </g>
        <path id="Trazado_10059" data-name="Trazado 10059" d="M855.029,794.58h-9.9l-.726-3.159,11.089-.386Z" transform="translate(-764.9 -587.944)" fill="#270744"/>
        <path id="Trazado_10060" data-name="Trazado 10060" d="M861.921,514c-6.226,12.524-1.25,35.371.952,43.87C864,545.1,865.9,529.5,867.388,518.04,866.445,511.556,864.792,508.226,861.921,514Z" transform="translate(-773.195 -427.759)" opacity="0.2"/>
        <g id="Grupo_10277" data-name="Grupo 10277" transform="translate(84.487 74.28)">
          <path id="Trazado_10061" data-name="Trazado 10061" d="M856.052,490.023S861.794,540,866.13,556.05c5.148,19.05,26.06,51.554,26.06,51.554l7.879-3.217s-13.5-37.009-17.441-47.045c-8.4-21.42-1.209-53.341-7.923-67.319Z" transform="translate(-856.052 -490.023)" fill="#007cff"/>
          <path id="Trazado_10062" data-name="Trazado 10062" d="M856.052,490.023S861.794,540,866.13,556.05c5.148,19.05,26.06,51.554,26.06,51.554l7.879-3.217s-13.5-37.009-17.441-47.045c-8.4-21.42-1.209-53.341-7.923-67.319Z" transform="translate(-856.052 -490.023)" opacity="0.4"/>
        </g>
        <path id="Trazado_10063" data-name="Trazado 10063" d="M945.292,752.2l-9.775,3.991-2.3-2.648,11.287-5.213Z" transform="translate(-815.712 -563.513)" fill="#270744"/>
        <path id="Trazado_10064" data-name="Trazado 10064" d="M871.91,351.447c-.109.491-.458.832-.779.76s-.493-.528-.384-1.019.458-.832.779-.76S872.02,350.955,871.91,351.447Z" transform="translate(-779.953 -335.879)" fill="#1a2e35"/>
        <path id="Trazado_10065" data-name="Trazado 10065" d="M858.931,348.561c-.11.492-.458.832-.78.76s-.493-.528-.384-1.019.458-.832.78-.76S859.04,348.07,858.931,348.561Z" transform="translate(-772.528 -334.229)" fill="#1a2e35"/>
        <path id="Trazado_10066" data-name="Trazado 10066" d="M858.474,346.887l-1.1-.6S857.77,347.341,858.474,346.887Z" transform="translate(-772.319 -333.514)" fill="#1a2e35"/>
        <path id="Trazado_10067" data-name="Trazado 10067" d="M860.8,352.894a13.448,13.448,0,0,1-2.449,2.747,2.165,2.165,0,0,0,1.679.718Z" transform="translate(-772.879 -337.296)" fill="#ff8935"/>
        <path id="Trazado_10068" data-name="Trazado 10068" d="M866.4,365.2a4.829,4.829,0,0,1-.736-.107.148.148,0,0,1-.113-.176.145.145,0,0,1,.176-.112,3.992,3.992,0,0,0,3.512-.816.148.148,0,0,1,.207.211A4.142,4.142,0,0,1,866.4,365.2Z" transform="translate(-776.995 -343.621)" fill="#1a2e35"/>
        <path id="Trazado_10069" data-name="Trazado 10069" d="M891.433,363.586a4.526,4.526,0,0,1-2.888,1.9c-1.561.288-2.2-1.143-1.646-2.542.5-1.259,1.911-2.925,3.42-2.579A2.033,2.033,0,0,1,891.433,363.586Z" transform="translate(-789.1 -341.544)" fill="#ffb570"/>
        <path id="Trazado_10070" data-name="Trazado 10070" d="M874.62,345.355a.3.3,0,0,1-.33-.107,3.491,3.491,0,0,0-2.583-1.094.3.3,0,0,1-.009-.591,4.041,4.041,0,0,1,3.07,1.338.3.3,0,0,1-.148.455Z" transform="translate(-780.349 -331.957)" fill="#1a2e35"/>
        <path id="Trazado_10071" data-name="Trazado 10071" d="M857.458,339.216a.3.3,0,0,1-.115-.559,2.934,2.934,0,0,1,2.7-.045.3.3,0,0,1-.294.513,2.343,2.343,0,0,0-2.135.059A.3.3,0,0,1,857.458,339.216Z" transform="translate(-772.212 -328.952)" fill="#1a2e35"/>
        <path id="Trazado_10072" data-name="Trazado 10072" d="M944.2,782.19c-.025,0-.05-.007-.074-.012a.839.839,0,0,1-.611-.55.5.5,0,0,1,.04-.507c.457-.653,2.711-.57,2.966-.558a.141.141,0,0,1,.132.1.148.148,0,0,1-.036.159C946.036,781.376,944.969,782.28,944.2,782.19Zm1.95-1.342c-.9-.007-2.112.1-2.352.442a.21.21,0,0,0-.011.224.557.557,0,0,0,.4.375C944.6,781.982,945.323,781.59,946.146,780.849Z" transform="translate(-821.57 -581.948)" fill="#007cff"/>
        <path id="Trazado_10073" data-name="Trazado 10073" d="M946.867,778.56c-.77-.089-2.141-.618-2.355-1.228a.514.514,0,0,1,.217-.609.779.779,0,0,1,.639-.15c.89.17,1.815,1.71,1.854,1.776a.148.148,0,0,1,0,.147.146.146,0,0,1-.126.076A1.694,1.694,0,0,1,946.867,778.56Zm-1.6-1.7a.473.473,0,0,0-.359.1c-.15.116-.143.208-.119.276.145.412,1.27.92,2.022,1.025-.335-.5-.971-1.293-1.5-1.395Z" transform="translate(-822.154 -579.663)" fill="#007cff"/>
        <path id="Trazado_10074" data-name="Trazado 10074" d="M843.015,817.085a2.348,2.348,0,0,1-1.514-.384.821.821,0,0,1-.267-.72.475.475,0,0,1,.251-.392c.766-.422,3.253.852,3.533,1a.148.148,0,0,1-.039.276A10.675,10.675,0,0,1,843.015,817.085Zm-1.113-1.291a.588.588,0,0,0-.276.053.183.183,0,0,0-.1.16.53.53,0,0,0,.169.473c.379.341,1.406.4,2.789.17A8.045,8.045,0,0,0,841.9,815.793Z" transform="translate(-763.086 -601.942)" fill="#007cff"/>
        <path id="Trazado_10075" data-name="Trazado 10075" d="M847.027,814.908a.145.145,0,0,1-.061-.013c-.744-.336-2.215-1.683-2.1-2.389.027-.168.146-.376.555-.417a1.068,1.068,0,0,1,.819.255,4.169,4.169,0,0,1,.934,2.4.147.147,0,0,1-.147.16Zm-1.487-2.53c-.029,0-.059,0-.089,0-.27.027-.287.135-.293.171-.069.424.929,1.483,1.688,1.942a3.427,3.427,0,0,0-.8-1.925A.774.774,0,0,0,845.539,812.378Z" transform="translate(-765.162 -599.985)" fill="#007cff"/>
        <path id="Trazado_10076" data-name="Trazado 10076" d="M871.453,349.772l-1.1-.6S870.749,350.226,871.453,349.772Z" transform="translate(-779.744 -335.165)" fill="#1a2e35"/>
        <g id="Grupo_10278" data-name="Grupo 10278" transform="translate(77.006 72.602)">
          <path id="Trazado_10077" data-name="Trazado 10077" d="M865.084,486.292l.648,2.269c.089.176-.12.355-.413.355H839.232c-.229,0-.418-.112-.432-.255l-.229-2.269c-.016-.157.182-.29.433-.29h25.668A.461.461,0,0,1,865.084,486.292Z" transform="translate(-838.57 -486.102)" fill="#007cff"/>
          <path id="Trazado_10078" data-name="Trazado 10078" d="M865.084,486.292l.648,2.269c.089.176-.12.355-.413.355H839.232c-.229,0-.418-.112-.432-.255l-.229-2.269c-.016-.157.182-.29.433-.29h25.668A.461.461,0,0,1,865.084,486.292Z" transform="translate(-838.57 -486.102)" opacity="0.2"/>
        </g>
        <g id="Grupo_10282" data-name="Grupo 10282" transform="translate(79.01 72.4)">
          <g id="Grupo_10279" data-name="Grupo 10279" transform="translate(20.388)">
            <path id="Trazado_10079" data-name="Trazado 10079" d="M891.488,488.894h.688c.137,0,.241-.071.232-.157l-.322-2.948c-.009-.086-.129-.157-.266-.157h-.687c-.137,0-.241.071-.232.157l.322,2.948C891.231,488.823,891.351,488.894,891.488,488.894Z" transform="translate(-890.899 -485.632)" fill="#007cff"/>
            <path id="Trazado_10080" data-name="Trazado 10080" d="M891.488,488.894h.688c.137,0,.241-.071.232-.157l-.322-2.948c-.009-.086-.129-.157-.266-.157h-.687c-.137,0-.241.071-.232.157l.322,2.948C891.231,488.823,891.351,488.894,891.488,488.894Z" transform="translate(-890.899 -485.632)" fill="#fff" opacity="0.4"/>
          </g>
          <g id="Grupo_10280" data-name="Grupo 10280">
            <path id="Trazado_10081" data-name="Trazado 10081" d="M843.844,488.894h.688c.137,0,.241-.071.232-.157l-.322-2.948c-.009-.086-.129-.157-.266-.157h-.687c-.137,0-.241.071-.232.157l.323,2.948C843.587,488.823,843.707,488.894,843.844,488.894Z" transform="translate(-843.255 -485.632)" fill="#007cff"/>
            <path id="Trazado_10082" data-name="Trazado 10082" d="M843.844,488.894h.688c.137,0,.241-.071.232-.157l-.322-2.948c-.009-.086-.129-.157-.266-.157h-.687c-.137,0-.241.071-.232.157l.323,2.948C843.587,488.823,843.707,488.894,843.844,488.894Z" transform="translate(-843.255 -485.632)" fill="#fff" opacity="0.4"/>
          </g>
          <g id="Grupo_10281" data-name="Grupo 10281" transform="translate(10.152)">
            <path id="Trazado_10083" data-name="Trazado 10083" d="M867.567,488.894h.688c.137,0,.241-.071.231-.157l-.322-2.948c-.009-.086-.129-.157-.266-.157h-.687c-.137,0-.241.071-.232.157l.323,2.948C867.31,488.823,867.43,488.894,867.567,488.894Z" transform="translate(-866.978 -485.632)" fill="#007cff"/>
            <path id="Trazado_10084" data-name="Trazado 10084" d="M867.567,488.894h.688c.137,0,.241-.071.231-.157l-.322-2.948c-.009-.086-.129-.157-.266-.157h-.687c-.137,0-.241.071-.232.157l.323,2.948C867.31,488.823,867.43,488.894,867.567,488.894Z" transform="translate(-866.978 -485.632)" fill="#fff" opacity="0.4"/>
          </g>
        </g>
        <path id="Trazado_10085" data-name="Trazado 10085" d="M855.821,498.166l-6.156-2.751,1.755,6.1s3.908.887,5.609-1.072Z" transform="translate(-767.912 -418.828)" fill="#ffb570"/>
        <path id="Trazado_10086" data-name="Trazado 10086" d="M884.472,419.146c.285,2.139.506,4.285.761,6.427l.654,6.439c.229,2.145.4,4.3.6,6.445l.273,3.226.067.807c.008.08.032.418.039.647.008.251-.014.5-.03.751a6.829,6.829,0,0,1-.858,2.615,10.874,10.874,0,0,1-2.9,3.175,22.187,22.187,0,0,1-3.1,1.959,43.459,43.459,0,0,1-6.307,2.647c-2.12.713-4.246,1.32-6.382,1.86-2.153.5-4.274.976-6.484,1.316l-.7-3.081c1.99-.653,4.032-1.332,6.006-2.089,1.99-.725,3.953-1.5,5.853-2.366a45.771,45.771,0,0,0,5.416-2.824,17.477,17.477,0,0,0,2.27-1.646,5.581,5.581,0,0,0,1.367-1.636,1.011,1.011,0,0,0,.12-.447c-.011-.02,0-.039-.011-.058-.014-.04,0,.027-.025-.16l-.116-.8-.463-3.206c-.288-2.139-.6-4.276-.866-6.418l-.815-6.425c-.235-2.146-.5-4.288-.709-6.437Z" transform="translate(-773.884 -375.197)" fill="#ffb570"/>
        <path id="Trazado_10087" data-name="Trazado 10087" d="M900.85,401.389c2.539.772,5.59,9.517,5.59,9.517l-8.886,9.149s-4.56-9.4-3.492-12.687C895.173,403.95,897.952,400.508,900.85,401.389Z" transform="translate(-793.217 -364.959)" fill="#a665be"/>
        <path id="Trazado_10088" data-name="Trazado 10088" d="M837.766,496.681l1.745,5.027,5.1-.194-1.754-6.1Z" transform="translate(-761.105 -418.828)" fill="#ffb570"/>
        <g id="Grupo_10284" data-name="Grupo 10284">
          <path id="Trazado_10089" data-name="Trazado 10089" d="M672.977,327.136a42.578,42.578,0,1,0,60.106,3.666A42.58,42.58,0,0,0,672.977,327.136Zm51.971,58.723a35.84,35.84,0,1,1,3.09-50.592A35.84,35.84,0,0,1,724.948,385.859Z" transform="translate(-658.619 -316.443)" fill="#270744"/>
          <path id="Trazado_10090" data-name="Trazado 10090" d="M708.347,403.875a35.6,35.6,0,1,1,37.708-33.368A35.6,35.6,0,0,1,708.347,403.875Z" transform="translate(-667.939 -325.76)" fill="#99a1d3" opacity="0.4"/>
          <g id="Grupo_10283" data-name="Grupo 10283" transform="translate(7.201 7.257)" opacity="0.5">
            <path id="Trazado_10091" data-name="Trazado 10091" d="M713.184,333.436c-.225-.014-.443-.027-.668-.034l-36.954,32.705c-.02.224-.033.449-.047.674a35.433,35.433,0,0,0,5.847,21.8l52.759-46.692A35.427,35.427,0,0,0,713.184,333.436Z" transform="translate(-675.447 -333.402)" fill="#fafafa"/>
            <path id="Trazado_10092" data-name="Trazado 10092" d="M749.319,361.043l-53.274,47.149a35.293,35.293,0,0,0,5.992,5.447L754,367.652A35.318,35.318,0,0,0,749.319,361.043Z" transform="translate(-687.231 -349.215)" fill="#fafafa"/>
          </g>
          <path id="Trazado_10093" data-name="Trazado 10093" d="M824.336,486.386l-5.6,4.96a2.059,2.059,0,0,1-2.906-.177h0a2.059,2.059,0,0,1,.178-2.906l5.6-4.96a2.059,2.059,0,0,1,2.906.177h0A2.059,2.059,0,0,1,824.336,486.386Z" transform="translate(-748.257 -411.603)" fill="#1a2e35"/>
          <path id="Trazado_10094" data-name="Trazado 10094" d="M825.3,488.1c4.225,3.717,8.265,7.6,12.25,11.526s7.886,7.932,11.739,11.978,7.635,8.155,11.385,12.293c3.518,4.343,8.313,7.554,9.03,14.376a3.449,3.449,0,0,1-3.069,3.79A3.534,3.534,0,0,1,865.5,542c-6.684-1.541-9.289-6.691-13.172-10.711q-5.477-6.336-10.818-12.794-5.321-6.475-10.463-13.108c-3.416-4.433-6.776-8.915-9.952-13.56a2.829,2.829,0,0,1,4.2-3.721Z" transform="translate(-751.285 -414.242)" fill="#270744"/>
        </g>
      </g>
    </g>
  </g>
</svg>
