<svg xmlns="http://www.w3.org/2000/svg" width="689.1" height="610.902" viewBox="0 0 689.1 610.902">
  <g id="Grupo_10401" data-name="Grupo 10401" transform="translate(-264.675 -116.175)">
    <path id="Trazado_10127" data-name="Trazado 10127" d="M268.6,347.788l57.463-33.174-3.266-1.886c-6.709-3.873-7.445-9.789-1.634-13.143l47.588-27.477c5.811-3.353,16.053-2.929,22.765.945l15.464,8.93,48.482,27.989,29.178,16.846c6.709,3.876,7.445,9.789,1.634,13.145l-115.615,66.75c-5.811,3.356-16.056,2.931-22.765-.944L270.23,360.934C263.519,357.058,262.785,351.144,268.6,347.788Z" transform="translate(0 241.796)" fill="#dfc8ed" opacity="0.5"/>
    <path id="Trazado_10128" data-name="Trazado 10128" d="M615.172,372.54c2.015-3.232,1.117-6.753-2.88-9.061L554.827,330.3l3.266-1.886c6.709-3.873,7.445-9.787,1.634-13.143L512.138,287.8c-5.811-3.356-16.056-2.931-22.765.944L473.91,297.67l-48.482,27.992L396.25,342.507c-6.712,3.873-7.445,9.787-1.634,13.143l31.7,18.3L397.02,390.863c-5.777,3.335-5.047,9.218,1.626,13.071l29.018,16.756,48.219,27.837,15.379,8.878c6.673,3.855,16.861,4.277,22.641.939l47.329-27.325c5.78-3.338,5.049-9.218-1.624-13.071l-3.248-1.876,57.149-32.994C618.127,380.412,618.577,376.122,615.172,372.54Z" transform="translate(198.288 266.481)" fill="#dfc8ed" opacity="0.5"/>
    <path id="Trazado_10129" data-name="Trazado 10129" d="M717.17,316.266,508.918,436.5c-5.561,3.209-15.364,2.8-21.784-.9L327.875,343.65c-6.421-3.708-7.123-9.367-1.565-12.577L534.565,210.837c5.559-3.209,15.363-2.8,21.784.9l159.256,91.947C722.026,307.4,722.731,313.054,717.17,316.266Z" transform="translate(91.079 145.541)" fill="#dfc8ed" opacity="0.5"/>
    <path id="Trazado_10130" data-name="Trazado 10130" d="M424.14,340.07c-.762-13.624-21.707-24.546-47.5-24.546s-46.734,10.922-47.5,24.546c-.013.252-.072.5-.072.757,0,13.976,21.3,25.3,47.568,25.3s47.573-11.326,47.573-25.3C424.212,340.572,424.153,340.322,424.14,340.07Z" transform="translate(101.324 313.669)" fill="#dfc8ed" opacity="0.5"/>
    <path id="Trazado_10131" data-name="Trazado 10131" d="M564.183,289.981c-.759-13.624-21.707-24.546-47.5-24.546s-46.734,10.922-47.5,24.546c-.013.252-.07.5-.07.757,0,13.976,21.3,25.3,47.565,25.3s47.573-11.326,47.573-25.3C564.255,290.483,564.2,290.233,564.183,289.981Z" transform="translate(321.681 234.855)" fill="#dfc8ed" opacity="0.5"/>
    <path id="Trazado_10132" data-name="Trazado 10132" d="M590.544,269.166c-.759-13.624-21.707-24.546-47.5-24.546s-46.734,10.922-47.493,24.546c-.016.252-.072.5-.072.757,0,13.976,21.3,25.3,47.565,25.3s47.573-11.326,47.573-25.3C590.616,269.667,590.56,269.418,590.544,269.166Z" transform="translate(363.159 202.104)" fill="#dfc8ed" opacity="0.5"/>
    <path id="Trazado_10133" data-name="Trazado 10133" d="M522.036,231.892c-.7-12.5-19.919-22.523-43.589-22.523s-42.884,10.021-43.584,22.523c-.01.232-.064.461-.064.695,0,12.826,19.543,23.218,43.648,23.218S522.1,245.413,522.1,232.587C522.1,232.353,522.049,232.124,522.036,231.892Z" transform="translate(267.681 146.638)" fill="#dfc8ed" opacity="0.5"/>
    <g id="Grupo_10379" data-name="Grupo 10379" transform="translate(404.287 116.175)">
      <g id="Grupo_10350" data-name="Grupo 10350" transform="translate(461.326 122.749)">
        <path id="Trazado_10134" data-name="Trazado 10134" d="M513.553,226.093c12.507-.834,12.762-45.522,12.762-45.522l-1.94-2.7s-7.381-3.178-13.212,10.469c-3.114,7.285-9.1,15.32-9.815,24.921a17.058,17.058,0,0,0,2.715,9.766C505.89,226.168,508.085,226.458,513.553,226.093Z" transform="translate(-493.274 -142.359)" fill="#ef3c8e"/>
        <path id="Trazado_10135" data-name="Trazado 10135" d="M512.8,248.049s-2.712,2.949-6.336,6.48c-3.351,3.268-4.388,4.208-7.5,7.244-1.817,1.773-.322,3.4,3.14,3.268a62.124,62.124,0,0,0,13.794-2.983,70.111,70.111,0,0,0,10.325-5.384,6.843,6.843,0,0,0,3.065-3.873v-5.453Z" transform="translate(-498.189 -32.526)" fill="#723f3f"/>
        <path id="Trazado_10136" data-name="Trazado 10136" d="M521.28,251.283s-.628,5.587-1.014,12.607.6,13.217,2.751,13.989,8.256.674,11.732-9.071a38.735,38.735,0,0,0,1.4-19.2Z" transform="translate(-463.58 -28.971)" fill="#723f3f"/>
        <path id="Trazado_10137" data-name="Trazado 10137" d="M554.962,233.077c1.282-20-9.743-30.514-9.743-30.514.878-6.74-30.388,2.692-30.388,2.692s-6.694,36.234-9.522,55.314c-3.214,21.684-1.807,60.4-1.807,60.4s.4,4.715,8.482,4.681c6.2-.023,11.308-5.067,11.308-5.067l.643-45.19,7.18-35.645S532.343,273,536.893,282.6c8.325,17.556,8.325,48.5,8.325,48.5s10.484,3.742,17.664.152,5.77-7.6,5.77-7.6-1.814-23.992-11.045-44.763C556.838,263.12,554.372,242.264,554.962,233.077Z" transform="translate(-490.31 -106.814)" fill="#5e2e2e"/>
        <path id="Trazado_10138" data-name="Trazado 10138" d="M506.491,250.049c6.31,6.658,16.771,10.227,25.732,9.311,6.413-.654,12.072-3.495,17.216-7.177-.947-6.676-1.616-13.539-1.114-17.4,1.781-13.686,4.444-35.8,3.961-39.425-.808-6.055-14.535-12.613-14.535-12.613s-9.74-7.54-19.831-3.572c0,0-10.791,8.716-12.075,21.033-.638,6.115,1.228,26.718,1.284,40.221C507.14,242.71,506.87,246.241,506.491,250.049Z" transform="translate(-486.351 -141.613)" fill="#ff5097"/>
        <path id="Trazado_10139" data-name="Trazado 10139" d="M513.265,181.2a26.231,26.231,0,0,0-3.835,8.438,22.814,22.814,0,0,0,2.3,15.111,114.856,114.856,0,0,1,8.317-8.611,72.3,72.3,0,0,0,7.584-7.836Z" transform="translate(-481.189 -136.614)" fill="#ef3c8e"/>
        <path id="Trazado_10140" data-name="Trazado 10140" d="M511.958,181.738a40.907,40.907,0,0,0-2.164,9.625,18.88,18.88,0,0,0,1.081,8.467s8.693-8.214,11.568-11.045c1.6-1.578-3.019-3.008-6.372-4.478A14.867,14.867,0,0,1,511.958,181.738Z" transform="translate(-480.049 -135.762)" fill="#f3e0fc"/>
        <g id="Grupo_10348" data-name="Grupo 10348" transform="translate(25.91 7.193)">
          <path id="Trazado_10141" data-name="Trazado 10141" d="M512.351,183.888l-.651,9.488a25.527,25.527,0,0,0,4.455,4.589c3.425-1.071,11.385-8.451,11.385-8.451l-2.653-14.73Z" transform="translate(-502.839 -153.899)" fill="#ffaa94"/>
          <path id="Trazado_10142" data-name="Trazado 10142" d="M531.774,171.36c-3.567-4.547-13.825-8.377-20.508,1.511-7.008,10.371-.386,27.325,5.754,26.337,3.438-.556,11.177-3.688,14.568-9.226C535.4,183.751,534.545,174.893,531.774,171.36Z" transform="translate(-508.257 -166.668)" fill="#ffd0ca"/>
        </g>
        <path id="Trazado_10143" data-name="Trazado 10143" d="M515.728,179.328l.28,8.77-6.251,2.55S509.611,181.353,515.728,179.328Z" transform="translate(-479.987 -139.554)" fill="#fff"/>
        <path id="Trazado_10144" data-name="Trazado 10144" d="M525.836,178.482a12.29,12.29,0,0,1-5.618,6.987c-2.3,1.3-8.032,3.961-8.032,3.961l2.352,7.056s14.252-6.871,16.383-11.017C531.78,183.8,529.395,179.838,525.836,178.482Z" transform="translate(-476.165 -140.885)" fill="#fff"/>
        <g id="Grupo_10349" data-name="Grupo 10349" transform="translate(25.849 72.903)">
          <path id="Trazado_10145" data-name="Trazado 10145" d="M509.026,192.2l-.793,11.943v.012l7.586,4.385.793-11.955Z" transform="translate(-508.233 -192.201)" fill="#fff"/>
          <path id="Trazado_10146" data-name="Trazado 10146" d="M508.788,192.634l-.088,1.341,6.447,3.726.087-1.341Z" transform="translate(-507.498 -191.52)" fill="#c33856"/>
          <path id="Trazado_10147" data-name="Trazado 10147" d="M509.959,194.131l-.564,7.842,3.9,2.251.564-7.842Z" transform="translate(-506.404 -189.166)" fill="#dfdfea"/>
        </g>
        <path id="Trazado_10148" data-name="Trazado 10148" d="M516.94,192.706c3.171,1.346,4.717,1.863,7.659,3.06l2.939,1.194v8.85l-13.575-3.572Z" transform="translate(-473.37 -118.505)" fill="#ffd0ca"/>
        <path id="Trazado_10149" data-name="Trazado 10149" d="M509.5,189.813a80.13,80.13,0,0,1,15.948,3.219,32.069,32.069,0,0,1,10.873,5.641s-1.356,5-2.99,6.933-24.8,3.335-28.681.878S501.123,191.563,509.5,189.813Z" transform="translate(-491.77 -123.057)" fill="#ff5097"/>
        <path id="Trazado_10150" data-name="Trazado 10150" d="M515.766,192.161a5.092,5.092,0,0,0-3.073,4.812,21.887,21.887,0,0,0,.391,6.122l5.039-.345s1.266-4.563,1.866-6.241a4.47,4.47,0,0,1,1.114-2.038Z" transform="translate(-475.434 -119.362)" fill="#fff"/>
        <path id="Trazado_10151" data-name="Trazado 10151" d="M544.576,213.14s-22-15.729-28.223-19.211-9.125-4.3-9.125-4.3a9.141,9.141,0,0,0-2.146,5.752c-.1,3.626,3.032,8.655,7.36,13.035,4.411,4.462,16.349,13.264,22.286,14.067C539.728,223.161,544.576,213.14,544.576,213.14Z" transform="translate(-487.347 -123.338)" fill="#ef3c8e"/>
        <path id="Trazado_10152" data-name="Trazado 10152" d="M519.275,232.926c4.6.512,10.713-1.428,14.81-9.02a46.141,46.141,0,0,0,5.862-20.122c.865-12.031.723-18.272-5.075-20.66-3.17.852-8.415,5.873-10.845,15.922-1.541,6.374-7.743,25.06-7.743,25.06C514.818,228.242,514.429,232.385,519.275,232.926Z" transform="translate(-471.254 -133.582)" fill="#ef3c8e"/>
        <path id="Trazado_10153" data-name="Trazado 10153" d="M515.369,192.778a20.534,20.534,0,0,0-4.8.97,8.333,8.333,0,0,0-4.6,4.3s-2.445-3.333-.36-6.465a5,5,0,0,1,5.345-2.131C513.251,190.143,515.369,192.778,515.369,192.778Z" transform="translate(-487.843 -123.847)" fill="#fff"/>
        <path id="Trazado_10154" data-name="Trazado 10154" d="M537.082,199.058s-1.825-1.13-1.858-4.3c.883-1.3,2.337-4.048.854-6.8-.854-1.588-4.182.679-4.182.679s-5.255-6.56-9.282-8.148c-2.869,4.064-5.2,6.284-8.251,7.105s-7.159-2.133-7.159-2.133,4.72.039,4.715-1.361c-2.306-1.04-7.154-4.944-7.154-4.944s4.411.492,7.4-6.835c1.516-3.716,4.519-9.082,14.54-8.379,5.409.381,9.475,7,9.475,7s2.275-1.933,5.831,2.6c3.8,4.841,2.041,12.363-.829,16.447A30.8,30.8,0,0,0,537.082,199.058Z" transform="translate(-487.843 -163.873)" fill="#5e2e2e"/>
      </g>
      <g id="Grupo_10352" data-name="Grupo 10352" transform="translate(303.31 40.454)">
        <path id="Trazado_10155" data-name="Trazado 10155" d="M448.975,150.1s-3.5,6.827-6.67,15a55.764,55.764,0,0,0-3.165,11.658,91.1,91.1,0,0,0-1.091,9.864l6.585,4.473a90.791,90.791,0,0,0,6.351-17.476c1.449-5.443,9.73-17.754,9.73-17.754Z" transform="translate(-434.803 -103.255)" fill="#f9b4af"/>
        <path id="Trazado_10156" data-name="Trazado 10156" d="M440.457,163.581a18.5,18.5,0,0,0,8.413,6.866c5.414,2.018,8.881,3.294,8.881,3.294s4.581-7.383,9.671-21.244c2.877-7.829-7.345-12.111-12.919-7.579C447.194,150.863,440.457,163.581,440.457,163.581Z" transform="translate(-431.012 -114.311)" fill="#f79826"/>
        <path id="Trazado_10157" data-name="Trazado 10157" d="M447.371,217.831c3.564-3.474,6.23-6.374,6.23-6.374l16.223-.69v5.363a6.745,6.745,0,0,1-3.016,3.814,68.938,68.938,0,0,1-10.157,5.294,61.131,61.131,0,0,1-13.57,2.936c-3.4.131-4.877-1.472-3.091-3.217C443.05,221.972,444.072,221.045,447.371,217.831Z" transform="translate(-432.949 -7.792)" fill="#723f3f"/>
        <path id="Trazado_10158" data-name="Trazado 10158" d="M457.687,215.523l14.63-1.647a38.108,38.108,0,0,1-1.379,18.889c-3.42,9.589-9.432,9.684-11.542,8.925s-3.088-6.858-2.707-13.763S457.687,215.523,457.687,215.523Z" transform="translate(-405.6 -2.9)" fill="#723f3f"/>
        <path id="Trazado_10159" data-name="Trazado 10159" d="M461.106,165.007c-6.737,2-12.957,4.424-12.957,4.424s-4.264,31.489-5.572,50.419c-1.485,21.517,3.361,63.943,3.361,63.943s.759,4.594,8.68,3.94c6.076-.5,10.7-5.839,10.7-5.839l-3.333-48.939,6.959-30.341C467.918,185.373,462.478,182.226,461.106,165.007Z" transform="translate(-428.121 -79.793)" fill="#5e2e2e"/>
        <path id="Trazado_10160" data-name="Trazado 10160" d="M487.6,286.723s-4.148-31.327-13.23-51.76c-.757-15.518,5.034-33.306,1.5-48.685-4.413-19.216-11.328-18.688-11.328-18.688.419-3.23-6.665-2.682-14.041-1.274.016,12.872.1,25.745.01,38.615l.154-.759s1.042,25.57,5,39.495c5.219,18.387,8.881,50.386,8.881,50.386s10.314,3.68,17.379.149S487.6,286.723,487.6,286.723Z" transform="translate(-415.205 -79.485)" fill="#5e2e2e"/>
        <path id="Trazado_10161" data-name="Trazado 10161" d="M456.749,146.436a21.707,21.707,0,0,1,4.774-2.208l13.583,3.145s13.132,4.007,16.239,14.231a89.778,89.778,0,0,1-.664,14.049c-.476.293-3.562-.2-3.788.453-4.128,12.021-1.747,27.626-.88,39.706-20.392,8.945-35.707,4.442-41.353-1.325C444.659,193.286,437.965,163.529,456.749,146.436Z" transform="translate(-426.225 -112.488)" fill="#fab234"/>
        <path id="Trazado_10162" data-name="Trazado 10162" d="M452.9,146s-.607,1.071-3.15,7.177-3.868,9.671.862,11.55,9.082-2.936,14.293-7.985,5.7-8.575,5.7-8.575a25.572,25.572,0,0,0-8.083-3.778C458.052,143.289,452.9,146,452.9,146Z" transform="translate(-420.008 -112.648)" fill="#f79826"/>
        <g id="Grupo_10351" data-name="Grupo 10351" transform="translate(22.483)">
          <path id="Trazado_10163" data-name="Trazado 10163" d="M453.079,149.937l12.332-8.958,2.072,11.506a56.458,56.458,0,0,1-5.667,7.921c-2.314,2.61-9.576,8.263-12.492,6.272-3.4-2.326,3.119-13.037,3.119-13.037Z" transform="translate(-441.086 -117.6)" fill="#f9b4af"/>
          <path id="Trazado_10164" data-name="Trazado 10164" d="M469.684,137.613c2.725,3.474,3.572,12.188-.183,18.32-3.338,5.448-10.953,8.531-14.334,9.077-6.04.973-12.553-15.708-5.659-25.912C456.081,129.367,466.174,133.137,469.684,137.613Z" transform="translate(-443.912 -130.164)" fill="#ffd0ca"/>
          <path id="Trazado_10165" data-name="Trazado 10165" d="M465.492,131.958a12.24,12.24,0,0,1,7.944,5.273c6.153,1.31,5.525,10.173,4,13.521-2.949,6.467-6.32,6.912-6.32,6.912s.88-3.528.1-5.065c-.667-1.31-2.761-1.536-3.466.8a5.412,5.412,0,0,1-1.711.17l.708-4.663a8.349,8.349,0,0,1-7.581-.528c-3.737-2.162-7.373-.9-8.675.324a9.183,9.183,0,0,1-.61-4.756c-2.393-1.675-4.666-3.181-4.321-4.321a6.94,6.94,0,0,0,5.726-.54,13.663,13.663,0,0,1-3.127-3.564C452.365,136.057,461.442,131.3,465.492,131.958Z" transform="translate(-445.523 -131.894)" fill="#5e2e2e"/>
        </g>
        <path id="Trazado_10166" data-name="Trazado 10166" d="M437.181,163.729a8.535,8.535,0,0,0,.463,6.315c1.107,2.342,4.022,5.664,7.072,5.489,3.487-.2,1.626-3.142-1.153-5.909S437.181,163.729,437.181,163.729Z" transform="translate(-436.787 -81.804)" fill="#f9b4af"/>
      </g>
      <g id="Grupo_10357" data-name="Grupo 10357" transform="translate(0 30.407)">
        <g id="Grupo_10353" data-name="Grupo 10353" transform="translate(38.523 281.274)">
          <path id="Trazado_10167" data-name="Trazado 10167" d="M357.67,257.05,335.586,269.8V250.038l22.084-12.75Z" transform="translate(-331.235 -237.288)" fill="#ae99c6"/>
          <path id="Trazado_10168" data-name="Trazado 10168" d="M333.9,241.266v19.761l4.352,2.513V243.779Z" transform="translate(-333.895 -231.029)" fill="#d6afdb"/>
        </g>
        <g id="Grupo_10354" data-name="Grupo 10354" transform="translate(188.344 195.568)">
          <path id="Trazado_10169" data-name="Trazado 10169" d="M415.888,223.745,393.8,236.5V216.734l22.084-12.75Z" transform="translate(-389.452 -203.984)" fill="#ae99c6"/>
          <path id="Trazado_10170" data-name="Trazado 10170" d="M392.113,207.962v19.761l4.352,2.512V210.475Z" transform="translate(-392.113 -197.725)" fill="#d6afdb"/>
        </g>
        <g id="Grupo_10355" data-name="Grupo 10355">
          <path id="Trazado_10171" data-name="Trazado 10171" d="M546.85,134.753l-11.012-6.261-.01.054c-1.441-.811-3.284-.78-5.317.394l-203.347,117.4c-4.532,2.615-8.238,9.7-8.238,15.737V424.494c0,3.443,1.23,5.783,3.1,6.717l-.054.036,10.788,6.112-.685-9.475L530.511,313.318c4.529-2.615,8.235-9.7,8.235-15.739V143.1Z" transform="translate(-318.926 -127.99)" fill="#ae99c6"/>
          <path id="Trazado_10172" data-name="Trazado 10172" d="M534.842,315.8,331.495,433.2c-4.532,2.617-8.238-.185-8.238-6.225V264.56c0-6.04,3.706-13.122,8.238-15.737l203.347-117.4c4.529-2.615,8.235.188,8.235,6.228V300.058C543.077,306.1,539.371,313.18,534.842,315.8Z" transform="translate(-312.111 -124.136)" fill="#f3e0fc"/>
          <path id="Trazado_10173" data-name="Trazado 10173" d="M531.6,291.413,326.025,410.1V252.85L531.6,134.161Z" transform="translate(-307.757 -118.281)" fill="#5e2e2e"/>
          <path id="Trazado_10174" data-name="Trazado 10174" d="M391.981,222.493,365.806,237.6c-1.356.782-2.463-.054-2.463-1.861h0a5.918,5.918,0,0,1,2.463-4.707l26.175-15.114c1.356-.782,2.465.057,2.465,1.863h0A5.92,5.92,0,0,1,391.981,222.493Z" transform="translate(-249.038 9.908)" fill="#fff"/>
          <path id="Trazado_10175" data-name="Trazado 10175" d="M519.8,138.76l-191,110.23V391.235l191-110.229Z" transform="translate(-303.386 -111.044)" fill="#b292ef"/>
        </g>
        <path id="Trazado_10176" data-name="Trazado 10176" d="M702.045,293.366l-13.482-.6V294L546.847,212.184c-6.055-3.495-15.3-3.878-20.544-.852L339.884,318.962v-2.211H326.4v13.482h.021c.167,2.226,1.822,4.532,4.964,6.346l150.187,86.71c6.053,3.5,15.3,3.878,20.541.852L698.507,310.755c2.108-1.217,3.307-2.81,3.539-4.5h0Z" transform="translate(-307.163 -0.067)" fill="#ae99c6"/>
        <path id="Trazado_10177" data-name="Trazado 10177" d="M698.526,305.937,502.133,419.324c-5.242,3.026-14.489,2.646-20.541-.852L331.4,331.762c-6.055-3.495-6.719-8.832-1.475-11.861L526.32,206.514c5.245-3.026,14.489-2.643,20.544.852l150.185,86.71C703.1,297.574,703.768,302.911,698.526,305.937Z" transform="translate(-307.18 -7.648)" fill="#f3e0fc"/>
        <path id="Trazado_10178" data-name="Trazado 10178" d="M626.342,265.136,431.713,377.5l-98.759-57.018,194.63-112.369Z" transform="translate(-296.853 -1.912)" fill="#dfc8ed"/>
        <path id="Trazado_10179" data-name="Trazado 10179" d="M507.35,269.188l-68.869,39.761-36.845-21.272,68.87-39.762Z" transform="translate(-188.785 60.708)" fill="#dfc8ed"/>
        <g id="Grupo_10356" data-name="Grupo 10356" transform="translate(44.614 211.823)">
          <path id="Trazado_10180" data-name="Trazado 10180" d="M336.262,256.49l13.585-7.843,9.77,5.641-13.585,7.843Z" transform="translate(-336.262 -149.965)" fill="#ae99c6"/>
          <path id="Trazado_10181" data-name="Trazado 10181" d="M341.78,259.675l13.585-7.843,9.77,5.64-13.585,7.843Z" transform="translate(-327.58 -144.952)" fill="#ae99c6"/>
          <path id="Trazado_10182" data-name="Trazado 10182" d="M347.3,264.539l18.337-10.587,9.77,5.64-18.338,10.587Z" transform="translate(-318.897 -141.617)" fill="#ae99c6"/>
          <path id="Trazado_10183" data-name="Trazado 10183" d="M415.551,221.788l8.86-5.115,23.97,13.839-8.86,5.115Z" transform="translate(-211.504 -200.275)" fill="#ae99c6"/>
          <path id="Trazado_10184" data-name="Trazado 10184" d="M352.817,267.725l18.337-10.587,9.77,5.64-18.337,10.587Z" transform="translate(-310.215 -136.604)" fill="#ae99c6"/>
          <path id="Trazado_10185" data-name="Trazado 10185" d="M358.335,273l24.243-14,9.77,5.64-24.243,14Z" transform="translate(-301.532 -133.676)" fill="#ae99c6"/>
          <path id="Trazado_10186" data-name="Trazado 10186" d="M416.077,243.878l36.2-20.9,9.769,5.641-36.2,20.9Z" transform="translate(-210.677 -190.351)" fill="#ae99c6"/>
          <path id="Trazado_10187" data-name="Trazado 10187" d="M363.853,272.419l13.585-7.843,9.77,5.641-13.585,7.843Z" transform="translate(-292.85 -124.901)" fill="#ae99c6"/>
          <path id="Trazado_10188" data-name="Trazado 10188" d="M342.863,252.679l13.585-7.844,9.769,5.64-13.585,7.843Z" transform="translate(-325.876 -155.962)" fill="#ae99c6"/>
          <path id="Trazado_10189" data-name="Trazado 10189" d="M348.381,255.865l13.585-7.843,9.769,5.641L358.151,261.5Z" transform="translate(-317.193 -150.949)" fill="#ae99c6"/>
          <path id="Trazado_10190" data-name="Trazado 10190" d="M349.532,248.828l13.585-7.843,9.77,5.64L359.3,254.469Z" transform="translate(-315.382 -162.02)" fill="#ae99c6"/>
          <path id="Trazado_10191" data-name="Trazado 10191" d="M355.051,252.014l13.585-7.843,9.77,5.64-13.586,7.843Z" transform="translate(-306.699 -157.008)" fill="#ae99c6"/>
          <path id="Trazado_10192" data-name="Trazado 10192" d="M356.134,245.017l13.585-7.843,9.77,5.641L365.9,250.657Z" transform="translate(-304.995 -168.017)" fill="#ae99c6"/>
          <path id="Trazado_10193" data-name="Trazado 10193" d="M361.652,248.2l13.585-7.843L385.006,246l-13.584,7.843Z" transform="translate(-296.313 -163.004)" fill="#ae99c6"/>
          <path id="Trazado_10194" data-name="Trazado 10194" d="M362.785,241.177l13.585-7.844,9.77,5.641-13.585,7.843Z" transform="translate(-294.53 -174.059)" fill="#ae99c6"/>
          <path id="Trazado_10195" data-name="Trazado 10195" d="M368.3,244.363l13.585-7.843,9.77,5.64L378.072,250Z" transform="translate(-285.848 -169.046)" fill="#ae99c6"/>
          <path id="Trazado_10196" data-name="Trazado 10196" d="M369.386,237.366l13.585-7.843,9.77,5.641-13.585,7.843Z" transform="translate(-284.144 -180.056)" fill="#ae99c6"/>
          <path id="Trazado_10197" data-name="Trazado 10197" d="M374.9,240.552l13.585-7.843,9.77,5.64-13.585,7.843Z" transform="translate(-275.461 -175.043)" fill="#ae99c6"/>
          <path id="Trazado_10198" data-name="Trazado 10198" d="M376.055,233.515l13.585-7.843,9.769,5.64-13.585,7.844Z" transform="translate(-273.65 -186.114)" fill="#ae99c6"/>
          <path id="Trazado_10199" data-name="Trazado 10199" d="M381.573,236.7l13.585-7.843,9.77,5.64-13.585,7.843Z" transform="translate(-264.967 -181.101)" fill="#ae99c6"/>
          <path id="Trazado_10200" data-name="Trazado 10200" d="M355.917,257.885l13.585-7.843,9.77,5.641-13.585,7.843Z" transform="translate(-305.336 -147.769)" fill="#ae99c6"/>
          <path id="Trazado_10201" data-name="Trazado 10201" d="M361.435,261.071l13.585-7.843,9.77,5.64L371.2,266.711Z" transform="translate(-296.653 -142.756)" fill="#ae99c6"/>
          <path id="Trazado_10202" data-name="Trazado 10202" d="M362.586,254.035l13.585-7.843,9.769,5.64-13.585,7.844Z" transform="translate(-294.842 -153.828)" fill="#ae99c6"/>
          <path id="Trazado_10203" data-name="Trazado 10203" d="M368.1,257.221l13.585-7.843,9.769,5.641-13.585,7.843Z" transform="translate(-286.16 -148.815)" fill="#ae99c6"/>
          <path id="Trazado_10204" data-name="Trazado 10204" d="M369.187,250.224l13.585-7.843,9.769,5.64-13.585,7.843Z" transform="translate(-284.456 -159.824)" fill="#ae99c6"/>
          <path id="Trazado_10205" data-name="Trazado 10205" d="M374.706,253.41l13.585-7.843,9.77,5.64-13.585,7.843Z" transform="translate(-275.773 -154.812)" fill="#ae99c6"/>
          <path id="Trazado_10206" data-name="Trazado 10206" d="M375.839,246.384l13.585-7.843,9.77,5.64-13.585,7.843Z" transform="translate(-273.99 -165.866)" fill="#ae99c6"/>
          <path id="Trazado_10207" data-name="Trazado 10207" d="M381.357,249.57l13.585-7.843,9.77,5.641-13.585,7.843Z" transform="translate(-265.308 -160.854)" fill="#ae99c6"/>
          <path id="Trazado_10208" data-name="Trazado 10208" d="M382.44,242.573l13.585-7.844,9.77,5.641-13.585,7.843Z" transform="translate(-263.604 -171.863)" fill="#ae99c6"/>
          <path id="Trazado_10209" data-name="Trazado 10209" d="M387.958,245.758l13.585-7.843,9.769,5.64L397.727,251.4Z" transform="translate(-254.922 -166.85)" fill="#ae99c6"/>
          <path id="Trazado_10210" data-name="Trazado 10210" d="M389.109,238.722l13.585-7.843,9.769,5.64-13.585,7.843Z" transform="translate(-253.11 -177.922)" fill="#ae99c6"/>
          <path id="Trazado_10211" data-name="Trazado 10211" d="M394.627,241.908l13.585-7.843,9.769,5.641L404.4,247.548Z" transform="translate(-244.428 -172.909)" fill="#ae99c6"/>
          <path id="Trazado_10212" data-name="Trazado 10212" d="M395.732,234.9l13.585-7.843,9.77,5.64L405.5,240.539Z" transform="translate(-242.688 -183.939)" fill="#ae99c6"/>
          <path id="Trazado_10213" data-name="Trazado 10213" d="M401.25,238.084l13.585-7.843,9.77,5.64-13.585,7.843Z" transform="translate(-234.006 -178.926)" fill="#ae99c6"/>
          <path id="Trazado_10214" data-name="Trazado 10214" d="M369.578,262.741l13.585-7.843,9.769,5.64-13.585,7.843Z" transform="translate(-283.84 -140.128)" fill="#ae99c6"/>
          <path id="Trazado_10215" data-name="Trazado 10215" d="M376.247,258.891l13.585-7.843,9.769,5.64-13.585,7.843Z" transform="translate(-273.347 -146.187)" fill="#ae99c6"/>
          <path id="Trazado_10216" data-name="Trazado 10216" d="M382.849,255.08l13.585-7.843,9.769,5.641-13.585,7.843Z" transform="translate(-262.96 -152.183)" fill="#ae99c6"/>
          <path id="Trazado_10217" data-name="Trazado 10217" d="M389.5,251.24l13.584-7.843,9.77,5.641-13.585,7.843Z" transform="translate(-252.495 -158.225)" fill="#ae99c6"/>
          <path id="Trazado_10218" data-name="Trazado 10218" d="M396.1,247.429l13.584-7.843,9.77,5.641-13.585,7.843Z" transform="translate(-242.109 -164.222)" fill="#ae99c6"/>
          <path id="Trazado_10219" data-name="Trazado 10219" d="M402.77,243.578l13.585-7.843,9.77,5.64-13.585,7.844Z" transform="translate(-231.615 -170.281)" fill="#ae99c6"/>
          <path id="Trazado_10220" data-name="Trazado 10220" d="M409.393,239.754l13.585-7.843,9.77,5.641L419.163,245.4Z" transform="translate(-221.193 -176.298)" fill="#ae99c6"/>
          <path id="Trazado_10221" data-name="Trazado 10221" d="M402.4,231.048l13.585-7.844,9.769,5.641-13.585,7.843Z" transform="translate(-232.195 -189.997)" fill="#ae99c6"/>
          <path id="Trazado_10222" data-name="Trazado 10222" d="M407.919,234.234,421.5,226.39l9.77,5.641-13.585,7.843Z" transform="translate(-223.513 -184.985)" fill="#ae99c6"/>
          <path id="Trazado_10223" data-name="Trazado 10223" d="M409,227.236l13.585-7.843,9.769,5.64-13.585,7.844Z" transform="translate(-221.808 -195.994)" fill="#ae99c6"/>
          <path id="Trazado_10224" data-name="Trazado 10224" d="M414.521,230.422l13.584-7.843,9.77,5.64-13.585,7.843Z" transform="translate(-213.126 -190.981)" fill="#ae99c6"/>
          <path id="Trazado_10225" data-name="Trazado 10225" d="M382.656,229.7l13.585-7.843,9.77,5.641-13.585,7.843Z" transform="translate(-263.264 -192.111)" fill="#ae99c6"/>
          <path id="Trazado_10226" data-name="Trazado 10226" d="M388.174,232.89l13.585-7.843,9.77,5.641-13.585,7.843Z" transform="translate(-254.581 -187.098)" fill="#ae99c6"/>
          <path id="Trazado_10227" data-name="Trazado 10227" d="M389.409,225.806l13.585-7.843,9.77,5.64-13.585,7.843Z" transform="translate(-252.638 -198.246)" fill="#ae99c6"/>
          <path id="Trazado_10228" data-name="Trazado 10228" d="M394.927,228.991l13.585-7.843,9.77,5.641L404.7,234.632Z" transform="translate(-243.956 -193.233)" fill="#ae99c6"/>
          <path id="Trazado_10229" data-name="Trazado 10229" d="M396.01,221.995l13.585-7.843,9.77,5.64-13.585,7.844Z" transform="translate(-242.252 -204.242)" fill="#ae99c6"/>
          <path id="Trazado_10230" data-name="Trazado 10230" d="M401.528,225.18l13.585-7.843,9.77,5.64L411.3,230.821Z" transform="translate(-233.569 -199.229)" fill="#ae99c6"/>
          <path id="Trazado_10231" data-name="Trazado 10231" d="M402.679,218.144l13.585-7.843,9.77,5.641-13.585,7.843Z" transform="translate(-231.758 -210.301)" fill="#ae99c6"/>
          <path id="Trazado_10232" data-name="Trazado 10232" d="M408.2,221.33l13.585-7.843,9.77,5.641-13.585,7.843Z" transform="translate(-223.075 -205.288)" fill="#ae99c6"/>
          <path id="Trazado_10233" data-name="Trazado 10233" d="M370.454,268.608l13.585-7.843,9.769,5.64-13.585,7.843Z" transform="translate(-282.463 -130.898)" fill="#ae99c6"/>
          <path id="Trazado_10234" data-name="Trazado 10234" d="M377.123,264.758l13.585-7.843,9.769,5.641L386.893,270.4Z" transform="translate(-271.969 -136.956)" fill="#ae99c6"/>
          <path id="Trazado_10235" data-name="Trazado 10235" d="M411.72,244.782l13.585-7.843,9.77,5.64-13.585,7.844Z" transform="translate(-217.532 -168.386)" fill="#ae99c6"/>
          <path id="Trazado_10236" data-name="Trazado 10236" d="M418.322,240.971l13.585-7.843,9.77,5.641-13.585,7.843Z" transform="translate(-207.145 -174.383)" fill="#ae99c6"/>
          <path id="Trazado_10237" data-name="Trazado 10237" d="M424.991,237.121l13.584-7.844,9.77,5.641-13.585,7.843Z" transform="translate(-196.651 -180.441)" fill="#ae99c6"/>
          <path id="Trazado_10238" data-name="Trazado 10238" d="M431.522,232.213l10.363-5.983,9.769,5.641-10.363,5.983Z" transform="translate(-186.375 -185.237)" fill="#ae99c6"/>
          <path id="Trazado_10239" data-name="Trazado 10239" d="M383.792,280.321l68.582-39.6,9.769,5.641-68.581,39.6Z" transform="translate(-261.476 -162.429)" fill="#ae99c6"/>
        </g>
        <path id="Trazado_10240" data-name="Trazado 10240" d="M350.845,274.446l-19.321-11.155v-6.221l19.321,11.155Z" transform="translate(-299.104 75.114)" fill="#fff"/>
        <path id="Trazado_10241" data-name="Trazado 10241" d="M359.531,279.468l-19.32-11.154v-6.221l19.32,11.155Z" transform="translate(-285.436 83.016)" fill="#fff"/>
      </g>
      <g id="Grupo_10362" data-name="Grupo 10362" transform="translate(31.093 99.408)">
        <g id="Grupo_10358" data-name="Grupo 10358">
          <path id="Trazado_10242" data-name="Trazado 10242" d="M458.065,157l-3.531-2.023-.018-.01-.051-.031-.01.01a1.11,1.11,0,0,0-1.194.057L332.8,224.552a4.3,4.3,0,0,0-1.8,3.436V353.4a1.723,1.723,0,0,0,.468,1.312l-.008.018.033.018a.92.92,0,0,0,.129.075l3.711,2.141,2.272-4.231-.914-.224,116.56-67.293a4.314,4.314,0,0,0,1.8-3.436V158.491l1.21,1Z" transform="translate(-331.008 -154.803)" fill="#b89fce"/>
          <path id="Trazado_10243" data-name="Trazado 10243" d="M456.495,282.612a4.314,4.314,0,0,1-1.8,3.436L334.242,355.591c-.993.574-1.8-.033-1.8-1.359V228.817a4.3,4.3,0,0,1,1.8-3.436L454.7,155.836c.991-.574,1.8.036,1.8,1.359Z" transform="translate(-328.745 -153.516)" fill="#cfb8e0"/>
          <path id="Trazado_10244" data-name="Trazado 10244" d="M450.815,272.787l-117,67.55v-111.6l117-67.55Z" transform="translate(-326.591 -144.751)" fill="#fff"/>
          <path id="Trazado_10245" data-name="Trazado 10245" d="M382.3,163.457l-4.739,2.736v-6.319l4.739-2.736Z" transform="translate(-257.765 -151.128)" fill="#ff5097"/>
          <path id="Trazado_10246" data-name="Trazado 10246" d="M379.425,165.115l-4.739,2.736v-6.319l4.739-2.736Z" transform="translate(-262.283 -148.519)" fill="#7b78ef"/>
        </g>
        <g id="Grupo_10361" data-name="Grupo 10361" transform="translate(14.157 35.584)">
          <g id="Grupo_10359" data-name="Grupo 10359" transform="translate(0 33.16)">
            <path id="Trazado_10247" data-name="Trazado 10247" d="M385.42,181.515l-48.911,28.239v71.119l48.911-28.239Z" transform="translate(-336.509 -181.515)" fill="#f6e9ff"/>
            <path id="Trazado_10248" data-name="Trazado 10248" d="M356.332,226.323A66.4,66.4,0,0,0,368.2,215.868s-6.725-1.531-6.725-4.516v-8.6l-7.046,4.133-7.046,4v8.6c0,2.988-6.727,12.281-6.727,12.281s4.967.062,11.874-3.253a5,5,0,0,0,1.029-.453c.293-.17.579-.35.87-.528.288-.157.576-.309.87-.479A7.078,7.078,0,0,0,356.332,226.323Z" transform="translate(-329.978 -148.106)" fill="#d1bae2"/>
            <path id="Trazado_10249" data-name="Trazado 10249" d="M361.4,202.366c0,8.418-4.305,21.3-9.615,24.363s-9.615-4.843-9.615-13.261,4.3-17.731,9.615-20.8S361.4,193.945,361.4,202.366Z" transform="translate(-327.606 -165.509)" fill="#dfc8ed"/>
            <path id="Trazado_10250" data-name="Trazado 10250" d="M350.028,195.914s4-3.176,3.909,2.208-5.335,9.161-5.335,9.161Z" transform="translate(-317.481 -160.323)" fill="#dfc8ed"/>
            <path id="Trazado_10251" data-name="Trazado 10251" d="M345.111,199.061s-4,1.441-3.909,6.722,5.335,3,5.335,3Z" transform="translate(-329.127 -153.908)" fill="#dfc8ed"/>
            <path id="Trazado_10252" data-name="Trazado 10252" d="M360.482,198.156c-.829,2.584-2.2,6.557-2.947,7.113-.543.4-3.062-1.173-5.641.319-2.741,1.585-5.548,6.238-6.125,6.475-.746.306-2.118-2.085-2.947-3.711l-.517.3c.229,2.128.664,5.857,1.225,9.087.839,4.838,3.044,7.368,8.032,4.045.033-.023.147-.087.18-.105,4.985-2.434,7.193-7.512,8.032-13.32.561-3.876,1-8.106,1.225-10.5Z" transform="translate(-327.388 -155.801)" fill="#a991c1"/>
            <path id="Trazado_10253" data-name="Trazado 10253" d="M351.646,202.875c-.345-.445-2.45-1.763-3.448-1.261l-.005-.013-.023.021-.023.008-.005.015c-1,.654-3.1,4.4-3.448,5.245a2.121,2.121,0,0,0,3.294,2.064l.365-.211C350.678,207.4,352,203.325,351.646,202.875Z" transform="translate(-323.721 -150.068)" fill="#dfc8ed"/>
            <path id="Trazado_10254" data-name="Trazado 10254" d="M360.535,189.2c-.939-.219-4.434.592-7.993,2.625a34.257,34.257,0,0,0-8.539,6.92,11.949,11.949,0,0,0-2.146,7.273c0,6.6.978,9.288.978,9.288,1.629-2.828,2.041-8.346,2.669-9.2,1.287-1.75,3.315-1.032,5.829-1.85A14.364,14.364,0,0,0,353.42,203c2.416-2.077,4.365-4.959,5.615-4.7.628.129,1.04,5.17,2.669,6.115a46.213,46.213,0,0,0,.978-10.412C362.681,191.318,362.108,189.568,360.535,189.2Z" transform="translate(-328.094 -169.482)" fill="#a991c1"/>
            <path id="Trazado_10255" data-name="Trazado 10255" d="M380.336,207.209c-1.135.059-2.375.144-3.482.273-5.25.6-7.468-.376-7.468-.376-.039-.023-7.013,9.434-8.958,12.072-1.946-.391-8.92-1.8-8.958-1.729a62.946,62.946,0,0,1-7.468,9c-1.107,1.15-2.347,2.5-3.484,3.75a14.794,14.794,0,0,0-3.67,9.326v.582l23.069-13.32,1.022-.589,23.069-13.318V212.3C384.006,209.116,382.554,207.1,380.336,207.209Z" transform="translate(-335.977 -141.249)" fill="#a991c1"/>
          </g>
          <g id="Grupo_10360" data-name="Grupo 10360" transform="translate(57.031 60.759)">
            <path id="Trazado_10256" data-name="Trazado 10256" d="M363.018,201.328l1.344,2.854,3-1.152-2.174,4.08.513,3.694-2.687-.332-2.687,3.435.513-4.286-2.174-1.571,3-2.317Z" transform="translate(-358.67 -177.939)" fill="#dfc8ed"/>
            <path id="Trazado_10257" data-name="Trazado 10257" d="M366.914,199.046l1.343,2.854,3-1.153-2.174,4.081.513,3.694-2.687-.332-2.688,3.435.513-4.286-2.174-1.57,3-2.317Z" transform="translate(-352.541 -181.53)" fill="#a991c1"/>
            <path id="Trazado_10258" data-name="Trazado 10258" d="M370.809,196.764l1.344,2.854,3-1.152-2.174,4.081.513,3.693-2.687-.332-2.688,3.436.513-4.286-2.174-1.57,3-2.317Z" transform="translate(-346.413 -185.12)" fill="#a991c1"/>
            <path id="Trazado_10259" data-name="Trazado 10259" d="M374.7,194.522l1.344,2.854,3-1.152-2.174,4.081.513,3.693-2.688-.332-2.687,3.435.513-4.286-2.174-1.57,3-2.317Z" transform="translate(-340.284 -188.649)" fill="#a991c1"/>
            <path id="Trazado_10260" data-name="Trazado 10260" d="M378.6,192.24l1.344,2.854,3-1.153-2.174,4.081.513,3.693-2.687-.332-2.687,3.436.513-4.286-2.174-1.57,3-2.317Z" transform="translate(-334.155 -192.24)" fill="#a991c1"/>
          </g>
          <path id="Trazado_10261" data-name="Trazado 10261" d="M409.025,168.63l-50.732,29.29v4.57l50.732-29.29Z" transform="translate(-302.233 -168.63)" fill="#a991c1"/>
          <path id="Trazado_10262" data-name="Trazado 10262" d="M409.025,172.345l-50.732,29.29V206.2l50.732-29.29Z" transform="translate(-302.233 -162.785)" fill="#a991c1"/>
          <path id="Trazado_10263" data-name="Trazado 10263" d="M409.025,176.059l-50.732,29.29v4.57l50.732-29.29Z" transform="translate(-302.233 -156.94)" fill="#dfc8ed"/>
          <path id="Trazado_10264" data-name="Trazado 10264" d="M409.025,179.774l-50.732,29.29v4.57l50.732-29.29Z" transform="translate(-302.233 -151.095)" fill="#dfc8ed"/>
          <path id="Trazado_10265" data-name="Trazado 10265" d="M409.025,183.419l-50.732,29.29v4.57l50.732-29.29Z" transform="translate(-302.233 -145.36)" fill="#dfc8ed"/>
          <path id="Trazado_10266" data-name="Trazado 10266" d="M366.94,203.577v4.57L395.42,191.7v-4.57Z" transform="translate(-288.628 -139.515)" fill="#dfc8ed"/>
        </g>
      </g>
      <g id="Grupo_10368" data-name="Grupo 10368" transform="translate(105.942)">
        <g id="Grupo_10363" data-name="Grupo 10363">
          <path id="Trazado_10267" data-name="Trazado 10267" d="M487.153,118.376l-3.533-2.023-.015-.01-.054-.031-.01.01a1.11,1.11,0,0,0-1.194.057L361.889,185.922a4.314,4.314,0,0,0-1.8,3.436V314.775a1.719,1.719,0,0,0,.471,1.312l-.008.015.033.021a.611.611,0,0,0,.126.072l3.711,2.144,2.275-4.233-.916-.221,116.56-67.3a4.3,4.3,0,0,0,1.8-3.436V119.861l1.209,1Z" transform="translate(-360.093 -116.175)" fill="#b89fce"/>
          <path id="Trazado_10268" data-name="Trazado 10268" d="M485.58,243.985a4.3,4.3,0,0,1-1.8,3.433L363.327,316.963c-.991.574-1.8-.036-1.8-1.359V190.186a4.314,4.314,0,0,1,1.8-3.436l120.456-69.543c.993-.574,1.8.033,1.8,1.359Z" transform="translate(-357.83 -114.888)" fill="#cfb8e0"/>
          <path id="Trazado_10269" data-name="Trazado 10269" d="M479.9,234.159l-117,67.55v-111.6l117-67.55Z" transform="translate(-355.675 -106.123)" fill="#fff"/>
          <path id="Trazado_10270" data-name="Trazado 10270" d="M411.381,124.829l-4.739,2.736v-6.319l4.739-2.736Z" transform="translate(-286.85 -112.5)" fill="#ff5097"/>
          <path id="Trazado_10271" data-name="Trazado 10271" d="M408.51,126.487l-4.739,2.736V122.9l4.739-2.736Z" transform="translate(-291.368 -109.892)" fill="#7b78ef"/>
        </g>
        <g id="Grupo_10367" data-name="Grupo 10367" transform="translate(14.285 35.583)">
          <g id="Grupo_10365" data-name="Grupo 10365" transform="translate(0 33.117)">
            <path id="Trazado_10272" data-name="Trazado 10272" d="M414.6,142.87l-48.954,28.264v71.181L414.6,214.051Z" transform="translate(-365.644 -142.87)" fill="#f6e9ff"/>
            <g id="Grupo_10364" data-name="Grupo 10364" transform="translate(2.061 23.586)">
              <path id="Trazado_10273" data-name="Trazado 10273" d="M375.451,166.021l-2.767,5.945s.963,6.323.736,8.866c-.281,3.15-2.941,5.528-2.941,7.677,0,3.016,2.872,1.7,2.8,3.986-.064,2.149-.947,2.99-3.572,7.666-2,3.562-.981,10.093-.981,10.093l16.951-9.787s.7-43.548,0-43.144S375.451,166.021,375.451,166.021Z" transform="translate(-363.263 -143.72)" fill="#bfa9d3"/>
              <path id="Trazado_10274" data-name="Trazado 10274" d="M385.693,156.043l2.766,2.748s-.96,7.432-.733,9.715c.28,2.826,2.941,2.131,2.941,4.277,0,3.019-2.872,5.021-2.8,7.224.067,2.072.947,1.9,3.575,3.541,2,1.251.978,8.961.978,8.961L375.466,202.3s-.7-42.74,0-43.144S385.693,156.043,385.693,156.043Z" transform="translate(-352.74 -145.729)" fill="#bfa9d3"/>
              <path id="Trazado_10275" data-name="Trazado 10275" d="M408.464,168.055c-2.151.1-6.5.533-6.5.533l-12.646,7.3-1.017.587-12.646,7.3s-4.349,4.588-6.5,6.977c-2.532,2.808-2.707,10.747-2.707,10.747L388.3,188.882l1.017-.587,21.856-12.62S411,167.939,408.464,168.055Z" transform="translate(-366.445 -126.831)" fill="#a991c1"/>
              <path id="Trazado_10276" data-name="Trazado 10276" d="M388.589,169.307c0-1.523-.049-3.07-.113-4.455l-10.492,6.055c-.064,1.459-.116,3.068-.116,4.588,0,4.444-7.844,13.318-7.844,13.318s3.091,4.038,10.814.906a33.131,33.131,0,0,0,4.784-2.764,35.308,35.308,0,0,0,10.814-13.392S388.589,173.751,388.589,169.307Z" transform="translate(-360.814 -131.869)" fill="#d1bae2"/>
              <path id="Trazado_10277" data-name="Trazado 10277" d="M390.055,165.381c0,8.1-4.138,20.48-9.246,23.429s-9.246-4.655-9.246-12.751,4.141-17.052,9.246-20S390.055,157.282,390.055,165.381Z" transform="translate(-358.394 -147.195)" fill="#dfc8ed"/>
              <path id="Trazado_10278" data-name="Trazado 10278" d="M397.151,161.2c-.2-3.176-.736-6.156-2.355-7.81-1.57-1.6-4.2-2.694-7.01,2.193-3.109-2.857-7.556-2.555-12.88,4.967-6.009,8.49-5.744,21.707-2.905,26.913,2.059-8.719,9.169-14.229,13.161-21.465a5.917,5.917,0,0,0,2.208,2.455,13.512,13.512,0,0,0,3.559,1.372c1.912.566,4.012,3.582,3.031,9C397.161,173.245,397.331,164.086,397.151,161.2Z" transform="translate(-360.757 -152.035)" fill="#bfa9d3"/>
            </g>
          </g>
          <g id="Grupo_10366" data-name="Grupo 10366" transform="translate(56.903 60.759)">
            <path id="Trazado_10279" data-name="Trazado 10279" d="M392.1,162.7l1.344,2.854,3-1.153-2.174,4.081.513,3.693-2.687-.332-2.687,3.435.513-4.286-2.174-1.57,3-2.317Z" transform="translate(-387.755 -139.311)" fill="#a991c1"/>
            <path id="Trazado_10280" data-name="Trazado 10280" d="M396,160.418l1.344,2.854,3-1.152-2.174,4.081.513,3.693L396,169.562,393.311,173l.513-4.286-2.174-1.57,3-2.317Z" transform="translate(-381.627 -142.902)" fill="#a991c1"/>
            <path id="Trazado_10281" data-name="Trazado 10281" d="M399.893,158.136l1.344,2.854,3-1.152-2.174,4.081.513,3.693-2.687-.332-2.687,3.435.513-4.286-2.174-1.57,3-2.317Z" transform="translate(-375.498 -146.492)" fill="#a991c1"/>
            <path id="Trazado_10282" data-name="Trazado 10282" d="M403.789,155.893l1.344,2.854,3-1.152-2.174,4.081.513,3.693-2.687-.332-2.687,3.435.513-4.286-2.174-1.57,3-2.317Z" transform="translate(-369.369 -150.021)" fill="#a991c1"/>
            <path id="Trazado_10283" data-name="Trazado 10283" d="M407.684,153.611l1.344,2.854,3-1.153-2.174,4.081.513,3.693-2.687-.332L405,166.19l.513-4.286-2.174-1.571,3-2.317Z" transform="translate(-363.241 -153.611)" fill="#a991c1"/>
          </g>
          <path id="Trazado_10284" data-name="Trazado 10284" d="M438.11,130l-50.732,29.29v4.57l50.732-29.29Z" transform="translate(-331.446 -130.001)" fill="#a991c1"/>
          <path id="Trazado_10285" data-name="Trazado 10285" d="M438.11,133.716l-50.732,29.29v4.57l50.732-29.29Z" transform="translate(-331.446 -124.156)" fill="#a991c1"/>
          <path id="Trazado_10286" data-name="Trazado 10286" d="M438.11,137.431l-50.732,29.29v4.57L438.11,142Z" transform="translate(-331.446 -118.311)" fill="#dfc8ed"/>
          <path id="Trazado_10287" data-name="Trazado 10287" d="M438.11,141.146l-50.732,29.29v4.57l50.732-29.29Z" transform="translate(-331.446 -112.466)" fill="#dfc8ed"/>
          <path id="Trazado_10288" data-name="Trazado 10288" d="M438.11,144.79l-50.732,29.29v4.57l50.732-29.29Z" transform="translate(-331.446 -106.732)" fill="#dfc8ed"/>
          <path id="Trazado_10289" data-name="Trazado 10289" d="M396.025,164.948v4.57l28.481-16.443v-4.57Z" transform="translate(-317.841 -100.887)" fill="#dfc8ed"/>
        </g>
      </g>
      <g id="Grupo_10374" data-name="Grupo 10374" transform="translate(194.644 26.489)">
        <g id="Grupo_10369" data-name="Grupo 10369">
          <path id="Trazado_10290" data-name="Trazado 10290" d="M521.618,128.669l-3.531-2.023-.015-.01-.054-.028-.01.008a1.11,1.11,0,0,0-1.194.057L396.357,196.217a4.3,4.3,0,0,0-1.8,3.436V325.068a1.715,1.715,0,0,0,.471,1.312l-.01.018.036.018a.78.78,0,0,0,.126.075l3.711,2.141,2.275-4.231-.916-.224,116.56-67.293a4.307,4.307,0,0,0,1.8-3.436V130.156l1.21,1Z" transform="translate(-394.561 -126.468)" fill="#b89fce"/>
          <path id="Trazado_10291" data-name="Trazado 10291" d="M520.048,254.277a4.306,4.306,0,0,1-1.8,3.436L397.8,327.256c-.993.574-1.8-.033-1.8-1.359V200.482a4.305,4.305,0,0,1,1.8-3.436L518.251,127.5c.993-.574,1.8.036,1.8,1.359Z" transform="translate(-392.298 -125.181)" fill="#cfb8e0"/>
          <path id="Trazado_10292" data-name="Trazado 10292" d="M514.369,244.452l-117,67.55v-111.6l117-67.55Z" transform="translate(-390.143 -116.416)" fill="#fff"/>
          <path id="Trazado_10293" data-name="Trazado 10293" d="M445.849,135.122l-4.739,2.736v-6.319l4.739-2.736Z" transform="translate(-321.318 -122.793)" fill="#ff5097"/>
          <path id="Trazado_10294" data-name="Trazado 10294" d="M442.978,136.78l-4.74,2.736V133.2l4.74-2.736Z" transform="translate(-325.836 -120.184)" fill="#7b78ef"/>
        </g>
        <g id="Grupo_10373" data-name="Grupo 10373" transform="translate(14.136 35.584)">
          <g id="Grupo_10371" data-name="Grupo 10371" transform="translate(0 33.117)">
            <path id="Trazado_10295" data-name="Trazado 10295" d="M449.008,153.163l-48.954,28.263v71.181l48.954-28.264Z" transform="translate(-400.054 -153.163)" fill="#f6e9ff"/>
            <g id="Grupo_10370" data-name="Grupo 10370" transform="translate(0 16.149)">
              <path id="Trazado_10296" data-name="Trazado 10296" d="M420.314,202.973c6.8-4.65,15.034-15.31,15.034-15.31a63.157,63.157,0,0,1-7-1.2c-2.149-.628-3.176-5.515-3.176-8.637v-6.217l-5.78,3.335-.01.008-5.78,3.335V184.5c0,3.122-1.027,9.195-3.176,12.3s-7,9.3-7,9.3,8.23,1.155,15.034-2.048A2.747,2.747,0,0,0,419,203.8c.124-.072.252-.162.378-.239s.255-.126.381-.2A3.913,3.913,0,0,0,420.314,202.973Z" transform="translate(-394.762 -140.295)" fill="#d1bae2"/>
              <path id="Trazado_10297" data-name="Trazado 10297" d="M424.523,172.525c0,8.1-4.138,20.482-9.246,23.431S406.03,191.3,406.03,183.2s4.141-17.052,9.247-20S424.523,164.429,424.523,172.525Z" transform="translate(-390.651 -155.003)" fill="#dfc8ed"/>
              <path id="Trazado_10298" data-name="Trazado 10298" d="M413.591,166.32s3.845-3.052,3.76,2.126-5.132,8.809-5.132,8.809Z" transform="translate(-380.913 -150.016)" fill="#dfc8ed"/>
              <path id="Trazado_10299" data-name="Trazado 10299" d="M408.86,169.348s-3.845,1.387-3.757,6.465,5.129,2.887,5.129,2.887Z" transform="translate(-392.112 -143.846)" fill="#dfc8ed"/>
              <path id="Trazado_10300" data-name="Trazado 10300" d="M407.491,187.637l4.676-9.208s3-.695,8.047-1.516c5.242-.849,5.77,2.581,5.77,2.581s5.965-15.443-1-19.1c-4.91-2.579-11.2-.265-15.878,11.13C403.319,176.775,404.753,187.93,407.491,187.637Z" transform="translate(-392.112 -159.439)" fill="#bfa9d3"/>
              <path id="Trazado_10301" data-name="Trazado 10301" d="M448.541,181.434c-.28-2.728-1.307-4.2-3.644-3.971s-8.878.553-8.878.553c-2.2,8.171-9.447,13.346-11.488,14.664-2.041,1.037-9.29,4.236-11.485-1.4,0,0-6.547,7.231-8.881,9.7a13.043,13.043,0,0,0-3.644,8.181c-.278,3.052-.466,5.25-.466,5.25L423.977,200.6l1.107-.641,23.923-13.812S448.821,184.165,448.541,181.434Z" transform="translate(-400.054 -131.114)" fill="#a991c1"/>
            </g>
          </g>
          <g id="Grupo_10372" data-name="Grupo 10372" transform="translate(57.052 60.759)">
            <path id="Trazado_10302" data-name="Trazado 10302" d="M426.572,172.993l1.344,2.854,3-1.152-2.174,4.081.513,3.693-2.687-.332-2.687,3.435.513-4.286-2.174-1.571,3-2.317Z" transform="translate(-422.223 -149.604)" fill="#dfc8ed"/>
            <path id="Trazado_10303" data-name="Trazado 10303" d="M430.467,170.711l1.344,2.854,3-1.153-2.174,4.081.513,3.694-2.687-.332-2.687,3.435.513-4.286-2.174-1.57,3-2.317Z" transform="translate(-416.095 -153.195)" fill="#a991c1"/>
            <path id="Trazado_10304" data-name="Trazado 10304" d="M434.362,168.429l1.344,2.854,3-1.152-2.174,4.081.513,3.693-2.687-.332-2.687,3.435.513-4.286-2.174-1.57,3-2.317Z" transform="translate(-409.966 -156.785)" fill="#a991c1"/>
            <path id="Trazado_10305" data-name="Trazado 10305" d="M438.257,166.187l1.343,2.854,3-1.152-2.174,4.081.513,3.694-2.687-.332-2.687,3.435.513-4.286-2.174-1.57,3-2.317Z" transform="translate(-403.837 -160.314)" fill="#a991c1"/>
            <path id="Trazado_10306" data-name="Trazado 10306" d="M442.152,163.9l1.344,2.854,3-1.153-2.174,4.081.513,3.693-2.687-.332-2.687,3.436.513-4.286-2.174-1.57,3-2.317Z" transform="translate(-397.709 -163.905)" fill="#a991c1"/>
          </g>
          <path id="Trazado_10307" data-name="Trazado 10307" d="M472.578,140.295l-50.732,29.29v4.57l50.732-29.29Z" transform="translate(-365.764 -140.295)" fill="#a991c1"/>
          <path id="Trazado_10308" data-name="Trazado 10308" d="M472.578,144.01,421.846,173.3v4.57l50.732-29.29Z" transform="translate(-365.764 -134.45)" fill="#a991c1"/>
          <path id="Trazado_10309" data-name="Trazado 10309" d="M472.578,147.724l-50.732,29.29v4.57l50.732-29.29Z" transform="translate(-365.764 -128.605)" fill="#dfc8ed"/>
          <path id="Trazado_10310" data-name="Trazado 10310" d="M472.578,151.439l-50.732,29.29v4.57l50.732-29.29Z" transform="translate(-365.764 -122.76)" fill="#dfc8ed"/>
          <path id="Trazado_10311" data-name="Trazado 10311" d="M472.578,155.084l-50.732,29.29v4.57l50.732-29.29Z" transform="translate(-365.764 -117.025)" fill="#dfc8ed"/>
          <path id="Trazado_10312" data-name="Trazado 10312" d="M430.493,175.242v4.57l28.481-16.443V158.8Z" transform="translate(-352.159 -111.18)" fill="#dfc8ed"/>
        </g>
      </g>
      <g id="Grupo_10377" data-name="Grupo 10377" transform="translate(346.871 186.463)">
        <path id="Trazado_10313" data-name="Trazado 10313" d="M495.13,200.606c1.539.412,12.955-.129,17.126,10.816s7.679,21.239,9.069,27.078-.625,11.954-9.069,19.738-12.288,9.586-12.288,9.586-8.742-8.2-10.1-19.038S495.13,200.606,495.13,200.606Z" transform="translate(-397.107 -169.788)" fill="#dfc8ed"/>
        <g id="Grupo_10376" data-name="Grupo 10376" transform="translate(90.096 53.262)">
          <path id="Trazado_10314" data-name="Trazado 10314" d="M489.72,235.573l30.022,17.334.163-25.808-30.022-17.333Z" transform="translate(-487.155 -208.638)" fill="#ea4e98"/>
          <path id="Trazado_10315" data-name="Trazado 10315" d="M488.724,236.129l30.022,17.333.163-25.808-30.022-17.334Z" transform="translate(-488.724 -207.765)" fill="#ff5097"/>
          <path id="Trazado_10316" data-name="Trazado 10316" d="M500.552,217.93l2.566-1.429-.163,25.808-2.566,1.428Z" transform="translate(-470.368 -198.041)" fill="#ef3c8e"/>
          <path id="Trazado_10317" data-name="Trazado 10317" d="M521.474,227.1l-2.566,1.429-30.185-17.508,2.728-1.254Z" transform="translate(-488.724 -208.638)" fill="#ff6caf"/>
          <g id="Grupo_10375" data-name="Grupo 10375" transform="translate(3.559)">
            <path id="Trazado_10318" data-name="Trazado 10318" d="M490.106,212.387l.02-3.059,30.022,17.333-.163,25.808-2.113-1.22.144-22.748Z" transform="translate(-490.106 -209.328)" fill="#f3e0fc"/>
          </g>
        </g>
        <path id="Trazado_10319" data-name="Trazado 10319" d="M475.29,274.339c2.108-1.318,15.768,2.478,15.768,2.478l14.725,4.944-1.127,11.089s-5.234,5.6-12.492.713c-4.329-2.916-12.69-6.668-15.832-11.2C474.052,279.079,473.182,275.657,475.29,274.339Z" transform="translate(-421.654 -54.21)" fill="#723f3f"/>
        <path id="Trazado_10320" data-name="Trazado 10320" d="M489.448,265.983c2.105-1.318,15.768,2.478,15.768,2.478l14.725,4.944-1.127,11.089s-5.237,5.6-12.494.713c-4.326-2.916-12.69-6.668-15.832-11.2C488.207,270.723,487.34,267.3,489.448,265.983Z" transform="translate(-399.379 -67.358)" fill="#723f3f"/>
        <path id="Trazado_10321" data-name="Trazado 10321" d="M522.664,226.381s6.773,6.64,7.826,20.593c.473,6.279-2.88,33.066-2.88,33.066s5.155,13.85,6.431,22.778c1.516,10.6,1.143,31.3,1.143,31.3-.872,2.761-3.744,5.376-9.481,4.951-5.9-.437-10.057-8-10.057-8s-2.041-17.165-3.961-28.537c-1.094-6.472-2.331-10.76-2.947-16.143-.242-6.189-.872-21.241-.872-21.241s-7.08,28.146-9.319,36.749c4.367,14.339.484,53.358.077,56.464-8.742,6.889-14.128.373-17.742-5.27.214-8.678-1.171-23.98-1.492-36.108-.255-9.563-.1-13.57-.255-16.787-.306-6.243,2.537-25.029,3.979-39.41,1.678-16.761,2.018-28.887,2.018-28.887Z" transform="translate(-413.749 -129.232)" fill="#5e2e2e"/>
        <path id="Trazado_10322" data-name="Trazado 10322" d="M484.729,223.91c-2.967,9.185-.314,23.609-.507,28.794-.34,9.077-4.226,18.691-2.656,24.3,3.111,3.106,11.326,6.948,20.727,6.048,7.659-.733,16.48-4.959,20.909-12.5.052-1.469-3.989-9.069-3.111-13.789,2.1-11.279,3.757-20.323,4.038-29.741.2-6.583.021-10.011-2.741-19.028-1.225-3.991-5.785-5.952-11.156-6.112-4.02.383-6.338,7.782-16.4,7.782C486.778,213.678,487.532,215.227,484.729,223.91Z" transform="translate(-410.474 -167.77)" fill="#f3e0fc"/>
        <path id="Trazado_10323" data-name="Trazado 10323" d="M488.133,213.991a56.228,56.228,0,0,0,14.285-4.712l-1.608-8.969-12.517,2.954s1.534,6.4,0,10.338C488.241,213.733,488.185,213.859,488.133,213.991Z" transform="translate(-399.557 -170.254)" fill="#f9b4af"/>
        <path id="Trazado_10324" data-name="Trazado 10324" d="M511.185,197.493c-2.571-5.456-12.108-11.74-21.208-3.237-5.559,5.193-5.9,13.552-5.4,18.768.44,4.568,3.708,8.812,6.64,9.329,3.577.631,10.7-1.125,15.438-5.965C511.993,210.937,513.18,201.732,511.185,197.493Z" transform="translate(-405.405 -186.332)" fill="#ffd0ca"/>
        <path id="Trazado_10325" data-name="Trazado 10325" d="M512.253,198.364c-1.511-7.01-4.879-11.171-13.295-9.275-2.854.643-4.488,1.477-6.446,1.843a5,5,0,0,1-4.653-1.843c-.329,2.283-.7,3.3.805,4.709a12.969,12.969,0,0,1-4.184.646s1.686,7.159,8.387,9.985a50.752,50.752,0,0,0,2.337,5.59c1.423-.867,2.983-.9,3.714.78.978,2.252-.389,3.868-2.347,6.225-1.457,6.652,7.906,10.677,7.906,10.677a104.7,104.7,0,0,1,8.3-10.989C516.756,212.338,518.128,202.757,512.253,198.364Z" transform="translate(-405.304 -188.631)" fill="#f79826"/>
        <path id="Trazado_10326" data-name="Trazado 10326" d="M496.355,205.873a56.911,56.911,0,0,1-10.25,3.582s8.1,3.953,13.184,1.835c2.684-1.117,6.889-3.423,7.859-4.666,1.312-1.683-1.539-4.6-1.539-4.6A75.979,75.979,0,0,0,496.355,205.873Z" transform="translate(-402.748 -167.554)" fill="#dfc8ed"/>
        <path id="Trazado_10327" data-name="Trazado 10327" d="M477.022,202.968s-9.414-5.574-13.951-8.721-9.156-5.873-9.352-3.863c-.142,1.464,2.458,2.7,3.4,3.518s1.655,1.6,2.211,2.023c-.865,2.378-2.718,8.758,1.5,10.981a90.98,90.98,0,0,0,10.94,4.465Z" transform="translate(-453.714 -186.956)" fill="#ffd0ca"/>
        <path id="Trazado_10328" data-name="Trazado 10328" d="M527.826,224.509c-3.734-4.017-12.566-6.961-19.422-9.887-5.052-2.157-16.316-8.233-24.577-12.741a171.416,171.416,0,0,0-15.631-7.054c-1.554-.708-4.017-1.282-6.606,2.993-1.76,2.905-2.445,6.439,0,8.624,2.98,2.661,8.966,6.189,16.522,12.6,3.245,2.754,17.96,12.4,24.764,17.26S519.663,255.123,524.1,252c3.641-2.561,6.043-8.752,6.717-14.841C531.434,231.62,530.732,227.634,527.826,224.509Z" transform="translate(-443.818 -179.656)" fill="#dfc8ed"/>
      </g>
      <g id="Grupo_10378" data-name="Grupo 10378" transform="translate(313.946 82.586)">
        <path id="Trazado_10329" data-name="Trazado 10329" d="M490.545,148.719c-2.473.973-6.7,6.459-8.665,12.471-1.613,4.944-.072,8.549-1.315,15.469a26.329,26.329,0,0,0-.062,8.961s-15.562.664-19.4.013-6.39-3.382-9.3-6.385c-3.147-3.245-7.484-4.576-9.789-2.839-1.979,1.49-.932,5.211.406,7.257,2.7,4.128,2.465,5,5.016,7.653,1.058,1.1,3.9,3.032,8.631,2.71a38.4,38.4,0,0,1,8.531.739c2.6.468,14.571,3.217,19.316,3.191,4.079-.018,5.309-2.9,6.856-5.113,3.338-4.781,3.443-18.017,5.33-27.358S495.357,153,490.545,148.719Z" transform="translate(-440.92 -147.553)" fill="#ffd0ca"/>
        <path id="Trazado_10330" data-name="Trazado 10330" d="M466.566,148.266s-3.253,1.114-6.848,9.146-4.2,19.587-4.2,19.587a20.864,20.864,0,0,0,9.854,3.67c5.69.383,6.066-.811,7.651-2.329,0,0,2.463-15.43,2.272-19.952C475.033,152.191,466.566,148.266,466.566,148.266Z" transform="translate(-417.953 -148.266)" fill="#f79826"/>
      </g>
    </g>
    <g id="Grupo_10382" data-name="Grupo 10382" transform="translate(596.753 583.807)">
      <path id="Trazado_10331" data-name="Trazado 10331" d="M393.715,363.912H397.9l107.115-61.843c5.409-3.124,14.947-2.728,21.2.88L598.519,344.7a15.25,15.25,0,0,1,1.9,1.3h3.268v5.669h-.01c-.015,1.979-1.207,3.865-3.639,5.27l-53.5,30.892,3.039,1.755a14.9,14.9,0,0,1,2.087,1.439h3.057v5.16c.139,2.11-1.04,4.146-3.623,5.638L506.79,427.4c-5.412,3.122-14.949,2.728-21.2-.88l-14.4-8.312-45.141-26.062L398.885,376.46c-3.4-1.961-5.134-4.483-5.157-6.879h-.013Z" transform="translate(-393.714 -294.625)" fill="#d1bae2"/>
      <path id="Trazado_10332" data-name="Trazado 10332" d="M600.04,354.859l-53.5,30.889,3.039,1.755c6.248,3.608,6.933,9.115,1.521,12.239l-44.307,25.58c-5.412,3.124-14.949,2.73-21.2-.878l-14.4-8.315-45.141-26.061-27.168-15.685c-6.246-3.605-6.933-9.113-1.521-12.237L505.015,300c5.409-3.124,14.947-2.728,21.2.878l72.309,41.749C604.765,346.228,605.452,351.735,600.04,354.859Z" transform="translate(-393.715 -297.888)" fill="#f2e1ff"/>
      <path id="Trazado_10333" data-name="Trazado 10333" d="M493.348,315.963l-44.524,25.706,4.1,2.367,44.524-25.706Z" transform="translate(-307.002 -269.448)" fill="#a991c1"/>
      <path id="Trazado_10334" data-name="Trazado 10334" d="M489.884,313.964,445.36,339.67l4.1,2.367,44.524-25.706Z" transform="translate(-312.452 -272.594)" fill="#a991c1"/>
      <path id="Trazado_10335" data-name="Trazado 10335" d="M484.944,311.111,440.42,336.817l4.1,2.367,44.524-25.706Z" transform="translate(-320.225 -277.082)" fill="#dfc8ed"/>
      <path id="Trazado_10336" data-name="Trazado 10336" d="M481.48,309.112l-44.524,25.706,4.1,2.367,44.524-25.706Z" transform="translate(-325.675 -280.229)" fill="#dfc8ed"/>
      <path id="Trazado_10337" data-name="Trazado 10337" d="M478.017,307.112l-44.524,25.706,4.1,2.367,44.524-25.706Z" transform="translate(-331.125 -283.375)" fill="#dfc8ed"/>
      <g id="Grupo_10380" data-name="Grupo 10380" transform="translate(82.77 12.422)">
        <path id="Trazado_10338" data-name="Trazado 10338" d="M444.273,319.837l-2.706-3.894,3.759-3.045-6.946-.237-4.422-3.444-1.587,3.748-6.492.916,5.966,2.553.41,4.01,5.274-2.17Z" transform="translate(-425.878 -292.485)" fill="#dfc8ed"/>
        <path id="Trazado_10339" data-name="Trazado 10339" d="M449.9,316.586l-2.706-3.894,3.759-3.045-6.946-.237-4.422-3.444L438,309.714l-6.492.916,5.965,2.553.41,4.01,5.274-2.17Z" transform="translate(-417.018 -297.6)" fill="#dfc8ed"/>
        <path id="Trazado_10340" data-name="Trazado 10340" d="M455.534,313.336l-2.706-3.894,3.759-3.045-6.946-.237-4.422-3.444-1.587,3.748-6.492.916,5.965,2.553.41,4.011,5.274-2.17Z" transform="translate(-408.158 -302.715)" fill="#a991c1"/>
      </g>
      <g id="Grupo_10381" data-name="Grupo 10381" transform="translate(14.938 42.089)">
        <path id="Trazado_10341" data-name="Trazado 10341" d="M519.7,352.918l-53.2,30.713-66.986-38.674,53.2-30.713Z" transform="translate(-399.519 -314.243)" fill="#fff"/>
        <path id="Trazado_10342" data-name="Trazado 10342" d="M421.173,324.36a72.319,72.319,0,0,1,16.305-5.5s-2.216,7.167.6,8.791,8.1,4.679,8.1,4.679l-7.726,4.39-7.6,4.46-8.1-4.679c-2.813-1.624-15.225-.345-15.225-.345s2.643-4.709,9.522-9.414a5.441,5.441,0,0,1,.986-.723c.322-.185.646-.355.97-.533.306-.188.6-.373.924-.558A7.721,7.721,0,0,1,421.173,324.36Z" transform="translate(-386.929 -306.974)" fill="#d1bae2"/>
        <path id="Trazado_10343" data-name="Trazado 10343" d="M448.276,330.456c-7.931-4.578-22.4-7.527-28.174-4.192s-.669,11.689,7.26,16.267,19.041,5.587,24.816,2.252S456.207,335.034,448.276,330.456Z" transform="translate(-371.031 -297.581)" fill="#dfc8ed"/>
        <path id="Trazado_10344" data-name="Trazado 10344" d="M436.756,331.491s5.165-2.038.046-4.882-11.529.041-11.529.041Z" transform="translate(-358.997 -296.758)" fill="#dfc8ed"/>
        <path id="Trazado_10345" data-name="Trazado 10345" d="M429.231,335.837s-3.531,2.98-8.454.026.072-6.658.072-6.658Z" transform="translate(-369.486 -290.701)" fill="#dfc8ed"/>
        <path id="Trazado_10346" data-name="Trazado 10346" d="M446.4,330.314c-2.885-.623-7.37-1.5-8.3-1.094-.677.293-.558,3.523-3.366,5.142-2.983,1.719-8.894,1.832-9.429,2.247-.7.538.811,3.129,1.891,4.794l-.561.324c-1.881-1.372-5.157-3.809-7.893-6.094-4.1-3.423-5.286-6.876.556-9.766.041-.018.162-.09.2-.113,5-3.371,10.986-2.689,16.913-.322,3.955,1.58,8.179,3.472,10.556,4.558Z" transform="translate(-374.713 -299.775)" fill="#a991c1"/>
        <path id="Trazado_10347" data-name="Trazado 10347" d="M427.986,326.316c.229.566.327,3.266-.687,3.935l.008.01-.031.01-.021.018-.016-.005c-1.161.587-5.834.53-6.815.4a2.307,2.307,0,0,1-.154-4.226l.4-.229C423.2,324.767,427.752,325.742,427.986,326.316Z" transform="translate(-368.954 -296.591)" fill="#dfc8ed"/>
        <path id="Trazado_10348" data-name="Trazado 10348" d="M456.443,336.865c-.3,1-2.97,3.853-6.82,6.1a37.227,37.227,0,0,1-11.161,4.277,12.991,12.991,0,0,1-8.016-1.933c-6.212-3.587-8.217-5.97-8.217-5.97,3.551,0,8.974,2.615,10.114,2.488,2.347-.262,2.774-2.563,4.913-4.485a15.548,15.548,0,0,1,2.321-1.282c3.268-1.148,7.046-1.415,7.484-2.731.221-.659-4.3-3.791-4.308-5.839a50.188,50.188,0,0,1,10.34,4.743C455.612,333.689,456.95,335.182,456.443,336.865Z" transform="translate(-363.786 -293.397)" fill="#a991c1"/>
        <path id="Trazado_10349" data-name="Trazado 10349" d="M454.519,321c-.672,1.04-1.428,2.162-2.149,3.135-3.423,4.614-3.708,7.239-3.708,7.239,0,.049-12.7,1.475-16.241,1.871-.687,2.046-3.158,9.378-3.243,9.378a68.685,68.685,0,0,0-12.538,2.141c-1.683.417-3.629.852-5.427,1.24a16.076,16.076,0,0,1-10.778-1.613l-.548-.317,25.089-14.486,1.112-.641,25.089-14.486.548.317C454.72,316.5,455.834,318.969,454.519,321Z" transform="translate(-398.94 -313.905)" fill="#a991c1"/>
      </g>
    </g>
    <g id="Grupo_10386" data-name="Grupo 10386" transform="translate(595.076 536.047)">
      <path id="Trazado_10350" data-name="Trazado 10350" d="M606.386,360.5c0-.054,0-.105,0-.16v-4.411h-2.6a10.388,10.388,0,0,0-1.1-.741l-54.359-31.383,3.088-1.783c3.243-1.871,5-4.244,5.222-6.544h.018v-.425c0-.121.008-.244,0-.363v-4.362h-2.594a9.97,9.97,0,0,0-1.1-.739L507.946,283.6c-5.5-3.173-15.186-2.772-21.535.893l-14.628,8.446-45.862,26.478-27.6,15.938a15.267,15.267,0,0,0-2.208,1.539h-3.047v5.5h.013c0,2.025,1.207,3.961,3.7,5.4l109.37,63.145c5.5,3.173,15.189,2.772,21.535-.893l73.465-42.413c3.309-1.912,5.067-4.344,5.227-6.688h.018Z" transform="translate(-393.061 -275.976)" fill="#d1bae2"/>
      <path id="Trazado_10351" data-name="Trazado 10351" d="M602.684,353.061l-54.357-31.383,3.088-1.783c6.346-3.665,7.044-9.259,1.547-12.432L507.945,281.47c-5.5-3.173-15.189-2.772-21.535.893l-14.63,8.446-45.862,26.478-27.6,15.937c-6.349,3.665-7.044,9.259-1.547,12.432L506.141,408.8c5.5,3.173,15.186,2.772,21.535-.893L601.138,365.5C607.487,361.831,608.181,356.237,602.684,353.061Z" transform="translate(-393.063 -279.329)" fill="#f2e1ff"/>
      <g id="Grupo_10384" data-name="Grupo 10384" transform="translate(15.176 18.356)">
        <path id="Trazado_10352" data-name="Trazado 10352" d="M521.062,317.666l-54.046-31.2L398.96,325.754l54.045,31.2Z" transform="translate(-398.96 -286.462)" fill="#fff"/>
        <g id="Grupo_10383" data-name="Grupo 10383" transform="translate(0 15.683)">
          <path id="Trazado_10353" data-name="Trazado 10353" d="M419.63,319.06c8.2,3.937,22.937,5.924,22.937,5.924a69.4,69.4,0,0,1-2.715-7.365c-.584-2.4,3.521-6.078,6.5-7.8s5.947-3.433,5.947-3.433l-6.38-3.683-.015-.008-6.38-3.683-5.945,3.433c-2.983,1.722-9.357,4.092-13.516,3.755s-12.751-1.567-12.751-1.567,3.438,8.505,10.255,13.243a3.221,3.221,0,0,0,.54.391c.136.08.3.154.44.232s.26.175.4.252A4.135,4.135,0,0,0,419.63,319.06Z" transform="translate(-385.812 -282.401)" fill="#d1bae2"/>
          <path id="Trazado_10354" data-name="Trazado 10354" d="M448.956,309.93c-7.741,4.47-21.867,7.35-27.5,4.094s-.654-11.411,7.087-15.881,18.588-5.453,24.227-2.2S456.7,305.463,448.956,309.93Z" transform="translate(-367.373 -290.244)" fill="#dfc8ed"/>
          <path id="Trazado_10355" data-name="Trazado 10355" d="M437.712,299.5s5.041,1.989.046,4.763-11.256-.039-11.256-.039Z" transform="translate(-355.624 -281.627)" fill="#dfc8ed"/>
          <path id="Trazado_10356" data-name="Trazado 10356" d="M430.368,296.352s-3.448-2.911-8.256-.026.07,6.5.07,6.5Z" transform="translate(-365.864 -288.632)" fill="#dfc8ed"/>
          <path id="Trazado_10357" data-name="Trazado 10357" d="M422.859,300.456l11.385-.613s2.321,2.483,5.891,6.858c3.706,4.539.718,6.941.718,6.941s18.058-2.823,17.713-11.5c-.244-6.12-5.932-10.857-19.406-9.035C430.943,290.471,421.066,298,422.859,300.456Z" transform="translate(-361.691 -292.556)" fill="#bfa9d3"/>
          <path id="Trazado_10358" data-name="Trazado 10358" d="M457.251,332.281c2.455-1.773,3.3-3.569,1.789-5.674s-5.433-8.186-5.433-8.186c-9.023,2.411-17.973-1.665-20.361-2.887-2.115-1.379-9.177-6.544-5-11.756,0,0-10.528-2.267-14.177-3.137a14.389,14.389,0,0,0-9.831,1.035c-3.073,1.415-5.278,2.45-5.278,2.45l26.411,15.25,1.222.705,26.411,15.248S454.8,334.057,457.251,332.281Z" transform="translate(-398.96 -280.517)" fill="#a991c1"/>
        </g>
      </g>
      <path id="Trazado_10359" data-name="Trazado 10359" d="M494.288,329.546,449.053,303.43l4.165-2.4,45.235,26.117Z" transform="translate(-304.965 -245.192)" fill="#a991c1"/>
      <path id="Trazado_10360" data-name="Trazado 10360" d="M490.769,331.578l-45.235-26.117,4.165-2.4,45.235,26.117Z" transform="translate(-310.503 -241.995)" fill="#a991c1"/>
      <path id="Trazado_10361" data-name="Trazado 10361" d="M485.75,334.476l-45.235-26.116,4.165-2.4,45.235,26.117Z" transform="translate(-318.4 -237.436)" fill="#dfc8ed"/>
      <path id="Trazado_10362" data-name="Trazado 10362" d="M482.231,336.507,437,310.391l4.165-2.4L486.4,334.1Z" transform="translate(-323.937 -234.239)" fill="#dfc8ed"/>
      <path id="Trazado_10363" data-name="Trazado 10363" d="M478.712,338.539l-45.235-26.116,4.165-2.4,45.235,26.117Z" transform="translate(-329.474 -231.042)" fill="#dfc8ed"/>
      <g id="Grupo_10385" data-name="Grupo 10385" transform="translate(84.092 90.586)">
        <path id="Trazado_10364" data-name="Trazado 10364" d="M444.429,315.147,441.68,319.1,445.5,322.2l-7.057.241-4.493,3.5-1.613-3.808-6.6-.931L431.8,318.6l.417-4.075,5.359,2.2Z" transform="translate(-425.74 -314.529)" fill="#dfc8ed"/>
        <path id="Trazado_10365" data-name="Trazado 10365" d="M450.149,318.449l-2.749,3.957,3.819,3.094-7.057.241-4.493,3.5-1.613-3.808-6.6-.931,6.061-2.594.417-4.075,5.358,2.205Z" transform="translate(-416.739 -309.332)" fill="#dfc8ed"/>
        <path id="Trazado_10366" data-name="Trazado 10366" d="M455.87,321.752l-2.749,3.956,3.819,3.094-7.057.241-4.493,3.5-1.612-3.808-6.6-.931,6.061-2.594.417-4.075,5.358,2.2Z" transform="translate(-407.737 -304.135)" fill="#a991c1"/>
      </g>
    </g>
    <g id="Grupo_10390" data-name="Grupo 10390" transform="translate(269.693 507.206)">
      <path id="Trazado_10367" data-name="Trazado 10367" d="M266.628,349.385c0-.054,0-.108,0-.16v-4.411h2.6a10.387,10.387,0,0,1,1.1-.741l54.357-31.383-3.088-1.783c-3.24-1.871-5-4.246-5.221-6.544h-.016v-.425c0-.124-.008-.245,0-.366v-4.359h2.592a10.212,10.212,0,0,1,1.1-.739l45.018-25.992c5.5-3.173,15.189-2.772,21.535.893l14.63,8.446L447.094,308.3l27.6,15.937a14.792,14.792,0,0,1,2.208,1.539h3.047v5.5h-.013c0,2.025-1.207,3.961-3.7,5.4l-109.37,63.145c-5.5,3.173-15.189,2.772-21.535-.893l-73.462-42.413c-3.309-1.912-5.067-4.347-5.227-6.688h-.021Z" transform="translate(-266.623 -264.631)" fill="#d1bae2"/>
      <path id="Trazado_10368" data-name="Trazado 10368" d="M270.333,341.854l54.359-31.383-3.088-1.783c-6.349-3.665-7.044-9.259-1.547-12.435l45.018-25.989c5.5-3.173,15.186-2.772,21.535.893l14.63,8.446L447.1,306.08l27.6,15.935c6.349,3.665,7.044,9.259,1.547,12.432l-109.37,63.145c-5.5,3.173-15.189,2.772-21.535-.893L271.88,354.286C265.533,350.622,264.836,345.027,270.333,341.854Z" transform="translate(-266.625 -268.122)" fill="#f2e1ff"/>
      <g id="Grupo_10388" data-name="Grupo 10388" transform="translate(75.996 18.387)">
        <path id="Trazado_10369" data-name="Trazado 10369" d="M296.156,306.471l54.046-31.2,68.056,39.292-54.045,31.2Z" transform="translate(-296.156 -275.267)" fill="#fff"/>
        <g id="Grupo_10387" data-name="Grupo 10387" transform="translate(30.709 17.517)">
          <path id="Trazado_10370" data-name="Trazado 10370" d="M329.191,284.342l7.211.636s5.515,4.408,8.07,5.6c3.165,1.469,6.91.237,8.963,1.423,2.885,1.665.044,3.688,2.265,4.879,2.092,1.124,3.382.746,9.3.816,4.511.054,10.191,4.635,10.191,4.635l-18.714,10.806s-42.022-23.37-41.247-23.817S329.191,284.342,329.191,284.342Z" transform="translate(-296.87 -278.505)" fill="#bfa9d3"/>
          <path id="Trazado_10371" data-name="Trazado 10371" d="M311.74,294.417l1.1,4.164s7.638,3.183,9.694,4.658c2.548,1.83.412,3.989,2.465,5.175,2.885,1.665,6.385.026,8.451,1.307,1.946,1.207,1.292,1.953,1.415,5.371.093,2.6,8.024,5.883,8.024,5.883l18.717-10.8s-40.478-24.263-41.25-23.815S311.74,294.417,311.74,294.417Z" transform="translate(-302.344 -275.345)" fill="#bfa9d3"/>
          <path id="Trazado_10372" data-name="Trazado 10372" d="M321.4,314.878c1.284-2,4.1-5.924,4.1-5.924l13.961-8.06,1.125-.648,13.961-8.06s6.786-1.624,10.258-2.365c4.084-.872,11.771,3.343,11.771,3.343l-24.129,13.93-1.122.648L327.2,321.671S319.9,317.235,321.4,314.878Z" transform="translate(-287.46 -270.073)" fill="#a991c1"/>
          <path id="Trazado_10373" data-name="Trazado 10373" d="M325.494,299.04c-1.457-.842-2.908-1.745-4.2-2.571l11.583-6.686c1.431.744,3,1.583,4.45,2.422,4.251,2.455,17.065-.149,17.065-.149s2.154,5.183-5.1,10.839a36.853,36.853,0,0,1-5.283,3.049,38.995,38.995,0,0,1-18.773,2.947S329.743,301.492,325.494,299.04Z" transform="translate(-287.306 -269.944)" fill="#d1bae2"/>
          <path id="Trazado_10374" data-name="Trazado 10374" d="M319.3,300.419c7.741,4.468,21.867,7.347,27.505,4.092s.651-11.411-7.09-15.881-18.588-5.453-24.224-2.2S311.56,295.949,319.3,300.419Z" transform="translate(-301.667 -278.236)" fill="#dfc8ed"/>
          <path id="Trazado_10375" data-name="Trazado 10375" d="M314.487,303.8c-2.926-1.938-5.476-4.1-6.164-6.565-.669-2.383-.26-5.5,5.965-5.489-1.017-4.547,1.727-8.634,11.856-9.573,11.436-1.06,23.925,6.49,27.338,12.077-9.473-2.844-18.665.914-27.786.733a6.579,6.579,0,0,1,1.127,3.466,14.972,14.972,0,0,1-.654,4.161c-.515,2.141,1.207,5.813,6.933,7.87C326,310.459,317.148,305.565,314.487,303.8Z" transform="translate(-308.089 -282.074)" fill="#bfa9d3"/>
        </g>
      </g>
      <path id="Trazado_10376" data-name="Trazado 10376" d="M278.5,318.339l45.235-26.116-4.165-2.4-45.235,26.117Z" transform="translate(-254.493 -233.986)" fill="#a991c1"/>
      <path id="Trazado_10377" data-name="Trazado 10377" d="M282.02,320.37l45.235-26.117-4.165-2.4-45.235,26.117Z" transform="translate(-248.956 -230.789)" fill="#a991c1"/>
      <path id="Trazado_10378" data-name="Trazado 10378" d="M287.039,323.268l45.235-26.117-4.165-2.4-45.235,26.117Z" transform="translate(-241.058 -226.23)" fill="#dfc8ed"/>
      <path id="Trazado_10379" data-name="Trazado 10379" d="M290.558,325.3l45.235-26.117-4.165-2.4L286.393,322.9Z" transform="translate(-235.521 -223.033)" fill="#dfc8ed"/>
      <path id="Trazado_10380" data-name="Trazado 10380" d="M294.077,327.332l45.235-26.117-4.165-2.4-45.236,26.117Z" transform="translate(-229.984 -219.836)" fill="#dfc8ed"/>
      <g id="Grupo_10389" data-name="Grupo 10389" transform="translate(80.036 90.584)">
        <path id="Trazado_10381" data-name="Trazado 10381" d="M310.237,303.939l2.749,3.957-3.819,3.093,7.057.241,4.493,3.5,1.613-3.808,6.6-.931-6.061-2.594-.417-4.075-5.358,2.2Z" transform="translate(-279.724 -303.321)" fill="#dfc8ed"/>
        <path id="Trazado_10382" data-name="Trazado 10382" d="M304.516,307.242l2.749,3.957-3.819,3.094,7.057.241,4.493,3.5,1.612-3.808,6.6-.931-6.061-2.594-.417-4.075-5.358,2.2Z" transform="translate(-288.725 -298.125)" fill="#a991c1"/>
        <path id="Trazado_10383" data-name="Trazado 10383" d="M298.8,310.545l2.749,3.956-3.818,3.094,7.057.241,4.493,3.5,1.613-3.808,6.6-.931L311.424,314l-.417-4.074-5.358,2.2Z" transform="translate(-297.726 -292.928)" fill="#a991c1"/>
      </g>
    </g>
    <g id="Grupo_10400" data-name="Grupo 10400" transform="translate(436.86 525.657)">
      <g id="Grupo_10391" data-name="Grupo 10391" transform="translate(29.159 34.768)">
        <path id="Trazado_10384" data-name="Trazado 10384" d="M349.26,314.825c-2.09-3-4.285-5.919-6.346-8.94,4.29-6.055,14.6-10.863,17.366-14.154,3.155-3.76,5.79-3.819,8.647-.638s-.584,5.716-1.871,6.38c-.821.425-2.846.026-5.258.752-1.634.494-5.294,4.653-10.7,14.146A19.113,19.113,0,0,1,349.26,314.825Z" transform="translate(-342.914 -288.802)" fill="#ffd0ca"/>
      </g>
      <g id="Grupo_10399" data-name="Grupo 10399" transform="translate(44.79 11.048)">
        <g id="Grupo_10397" data-name="Grupo 10397" transform="translate(0 0.382)">
          <path id="Trazado_10385" data-name="Trazado 10385" d="M385.688,293.449l-22.906-13.225a3.009,3.009,0,0,0-2.854-.232l-1.7.932-.07,1.644c-.005.026-.015.049-.021.077l-8.436,47.836a7.013,7.013,0,0,0,3.008,6.835l22.906,13.225c.085.049.17.072.255.113l-.018.008,1.225.9,1.608-.9,0-.013a3.544,3.544,0,0,0,1.567-2.527l8.436-47.838A7.013,7.013,0,0,0,385.688,293.449Z" transform="translate(-347.993 -279.733)" fill="#512626"/>
          <path id="Trazado_10386" data-name="Trazado 10386" d="M374.988,350.9l-22.906-13.225a7.015,7.015,0,0,1-3.008-6.838L357.509,283c.448-2.545,2.535-3.634,4.64-2.419L385.055,293.8a7.013,7.013,0,0,1,3.008,6.835l-8.436,47.835C379.18,351.02,377.091,352.111,374.988,350.9Z" transform="translate(-348.988 -279.185)" fill="#723f3f"/>
          <g id="Grupo_10396" data-name="Grupo 10396" transform="translate(2.392 3.416)">
            <path id="Trazado_10387" data-name="Trazado 10387" d="M375.34,346.926l-25.423-14.678,9.026-51.187,25.423,14.678Z" transform="translate(-349.917 -281.061)" fill="#fff"/>
            <path id="Trazado_10388" data-name="Trazado 10388" d="M359.5,296.72l-6.265-3.617,1.92-10.889,6.265,3.617Z" transform="translate(-344.699 -279.246)" fill="#dfc8ed"/>
            <path id="Trazado_10389" data-name="Trazado 10389" d="M363.954,309.763l-6.265-3.617,1.92-10.889,6.265,3.617Z" transform="translate(-337.688 -258.722)" fill="#dfc8ed"/>
            <g id="Grupo_10392" data-name="Grupo 10392" transform="translate(21.05 10.127)">
              <path id="Trazado_10390" data-name="Trazado 10390" d="M358.958,285l-.262,1.485,9.643,5.567.262-1.485Z" transform="translate(-357.153 -284.996)" fill="#dfc8ed"/>
              <path id="Trazado_10391" data-name="Trazado 10391" d="M358.759,286.13l-.262,1.485,9.643,5.568.262-1.485Z" transform="translate(-357.468 -283.212)" fill="#dfc8ed"/>
              <path id="Trazado_10392" data-name="Trazado 10392" d="M358.559,287.264l-.262,1.485,9.643,5.568.262-1.485Z" transform="translate(-357.782 -281.429)" fill="#dfc8ed"/>
              <path id="Trazado_10393" data-name="Trazado 10393" d="M358.359,288.4l-.262,1.485,9.644,5.567.262-1.485Z" transform="translate(-358.097 -279.645)" fill="#dfc8ed"/>
            </g>
            <g id="Grupo_10393" data-name="Grupo 10393" transform="translate(6.435 15.522)">
              <path id="Trazado_10394" data-name="Trazado 10394" d="M353.279,287.092l-.262,1.485L375.062,301.3l.262-1.485Z" transform="translate(-351.474 -287.092)" fill="#dfc8ed"/>
              <path id="Trazado_10395" data-name="Trazado 10395" d="M353.08,288.226l-.262,1.485,22.045,12.728.262-1.485Z" transform="translate(-351.789 -285.309)" fill="#dfc8ed"/>
              <path id="Trazado_10396" data-name="Trazado 10396" d="M352.879,289.36l-.261,1.485,22.044,12.728.262-1.485Z" transform="translate(-352.103 -283.525)" fill="#dfc8ed"/>
              <path id="Trazado_10397" data-name="Trazado 10397" d="M352.68,290.493l-.262,1.485,22.045,12.727.262-1.485Z" transform="translate(-352.418 -281.741)" fill="#dfc8ed"/>
            </g>
            <g id="Grupo_10394" data-name="Grupo 10394" transform="translate(2.123 39.979)">
              <path id="Trazado_10398" data-name="Trazado 10398" d="M351.6,296.6l-.262,1.485,22.045,12.728.262-1.485Z" transform="translate(-349.799 -296.596)" fill="#dfc8ed"/>
              <path id="Trazado_10399" data-name="Trazado 10399" d="M351.4,297.73l-.262,1.485,22.044,12.728.262-1.485Z" transform="translate(-350.113 -294.812)" fill="#dfc8ed"/>
              <path id="Trazado_10400" data-name="Trazado 10400" d="M351.2,298.863l-.262,1.485,22.044,12.727.262-1.485Z" transform="translate(-350.428 -293.029)" fill="#dfc8ed"/>
              <path id="Trazado_10401" data-name="Trazado 10401" d="M351,300l-.262,1.485,22.045,12.728.262-1.485Z" transform="translate(-350.742 -291.245)" fill="#dfc8ed"/>
            </g>
            <g id="Grupo_10395" data-name="Grupo 10395" transform="translate(4.279 27.75)">
              <path id="Trazado_10402" data-name="Trazado 10402" d="M366.889,300.185l-14.447-8.341-.262,1.485,14.447,8.341Z" transform="translate(-350.636 -291.844)" fill="#dfc8ed"/>
              <path id="Trazado_10403" data-name="Trazado 10403" d="M366.689,301.319l-14.447-8.341-.262,1.485,14.447,8.341Z" transform="translate(-350.951 -290.06)" fill="#dfc8ed"/>
              <path id="Trazado_10404" data-name="Trazado 10404" d="M366.489,302.453l-14.447-8.341-.262,1.485,14.447,8.341Z" transform="translate(-351.265 -288.277)" fill="#dfc8ed"/>
              <path id="Trazado_10405" data-name="Trazado 10405" d="M366.289,303.586l-14.447-8.341-.262,1.485,14.447,8.341Z" transform="translate(-351.58 -286.493)" fill="#dfc8ed"/>
            </g>
          </g>
        </g>
        <g id="Grupo_10398" data-name="Grupo 10398" transform="translate(18.162)">
          <path id="Trazado_10406" data-name="Trazado 10406" d="M358.406,281.224l2.66-1.57,1.437.863-1.76,2.644Z" transform="translate(-352.331 -279.478)" fill="#dfc8ed"/>
          <path id="Trazado_10407" data-name="Trazado 10407" d="M369.154,286.474c-1.068-.618-2.1-2.092-2.02-2.522s.759-1.122.391-2.216a3.574,3.574,0,0,0-1.58-1.727s-1.192-.757-1.843-.25-.314,1.786-.391,2.216-1.387.556-2.455-.062l-2.121-1.225-2.661,1.57,1.552,4.709,9.455,5.458,1.374-2.234,1.8,1.04.623-3.533Z" transform="translate(-355.368 -279.585)" fill="#dfc8ed"/>
          <path id="Trazado_10408" data-name="Trazado 10408" d="M367.17,287.083c-1.068-.615-2.1-2.092-2.02-2.522s.759-1.122.391-2.216a3.574,3.574,0,0,0-1.58-1.727s-1.191-.754-1.84-.25-.317,1.786-.391,2.218-1.387.553-2.455-.062l-2.123-1.228-1.107,6.279,12.142,7.01,1.107-6.277Z" transform="translate(-356.045 -278.625)" fill="#cfb8e0"/>
          <path id="Trazado_10409" data-name="Trazado 10409" d="M363.423,285.989l.486.28.623-3.531-2.661,1.57-1.107,6.278.442-.261.584-3.438Z" transform="translate(-348.621 -274.623)" fill="#b89fce"/>
          <path id="Trazado_10410" data-name="Trazado 10410" d="M364.227,287.2l-6.681-3.858a.994.994,0,0,1-.43-.973h0a.426.426,0,0,1,.661-.342l6.681,3.858a1,1,0,0,1,.43.973h0A.426.426,0,0,1,364.227,287.2Z" transform="translate(-354.378 -275.85)" fill="#b89fce"/>
        </g>
      </g>
      <path id="Trazado_10411" data-name="Trazado 10411" d="M349.232,309.918s12.188,8.4,20.575,14.123,11.1,6.969,11.1,6.969l-11.1,6.57s-23.022-4.246-25.421-12.216S349.232,309.918,349.232,309.918Z" transform="translate(-312.203 -220.809)" fill="#5e2e2e"/>
      <path id="Trazado_10412" data-name="Trazado 10412" d="M383.663,314.816c-4.972.077-15.544.566-22.814,1.23-3.309.3-10.523.468-10.523.468s-11.1,4.326-7.435,9.311,12.412,11.46,19.955,10.634S389.7,325.825,389.7,325.825l8.75-5.129S389.077,314.733,383.663,314.816Z" transform="translate(-314.957 -213.105)" fill="#5e2e2e"/>
      <path id="Trazado_10413" data-name="Trazado 10413" d="M336.67,293.592c-5.451,5.121-8.24,18.652.62,26.391s12.136-25.063,12.136-25.063C346.066,293.315,343.235,287.427,336.67,293.592Z" transform="translate(-331.583 -250.829)" fill="#f79826"/>
      <path id="Trazado_10414" data-name="Trazado 10414" d="M353.16,278.531c-4.182-2.9-12.221-2-15.711,5.373-1.93,4.081.8,15.052,1.23,22.757.347,6.212-1.735,9.8-1.735,9.8l5.33,2.2c5.33,2.2,10.886,0,10.886,0l-.172-9.476s3.94-.162,4.944-1.083c2.419-2.216,5.242-6.014,4.123-14.514C360.386,280.929,354.7,279.6,353.16,278.531Z" transform="translate(-323.429 -272.612)" fill="#ffd0ca"/>
      <path id="Trazado_10415" data-name="Trazado 10415" d="M373.888,315.92s-8.992-.044-13.238,1a92.807,92.807,0,0,1-13.629,1.678l3.042,6.544s1.2,2.113,9.946,0A26.439,26.439,0,0,0,373.888,315.92Z" transform="translate(-307.293 -211.365)" fill="#5e2e2e"/>
      <path id="Trazado_10416" data-name="Trazado 10416" d="M397.16,316.343c-12.95,3.593-40.488,9.818-40.488,9.818s-19.762-10.078-22.662-1.433c-5.281,15.742,2.133,22.438,9.892,26.741,4.3,2.386,8.238,7.45,23.465,5.139,15.2-2.311,38.473-13,43.069-18.449,5.361-6.356,10-14.833,3.621-18.779a29.022,29.022,0,0,0-3.433-1.832A19.538,19.538,0,0,0,397.16,316.343Z" transform="translate(-330.565 -211.789)" fill="#5e2e2e"/>
      <path id="Trazado_10417" data-name="Trazado 10417" d="M374.555,323.745c3.142-6.717.95-18.3-1.052-22.675s-13.338-7.651-13.338-7.651l-16.385-1.938s-9.831,3.178-9.831,17.9c0,8.894,1.469,15.824,2.867,26.988.389,3.106,1.505,10.441-3.742,23.887a17.629,17.629,0,0,0-.764,2.97c2.661,7.437,17.348,14.9,24.239,14.792,4.6-.075,10.258-1.05,14.3-3.924s5.651-4.5,3.8-12.175C374.076,359.51,368.126,337.464,374.555,323.745Z" transform="translate(-330.441 -249.819)" fill="#fab234"/>
      <path id="Trazado_10418" data-name="Trazado 10418" d="M353.874,292.387a15.817,15.817,0,0,1-10.335,0l-5.469-1.961-1.817,3.878s.821,2.669,6.238,4.393a19.693,19.693,0,0,0,15.639-1.235C358.166,293.954,353.874,292.387,353.874,292.387Z" transform="translate(-324.236 -251.479)" fill="#f79826"/>
      <path id="Trazado_10419" data-name="Trazado 10419" d="M348.8,275.292c-7.486,0-14.11,5.43-14.108,21.725,0,3.33,3.08,8.981,5.947,11.923,1.426,1.464,3.111,3.024,3.469,5.088,5.8-.679,11.282-9.826,14.463-13.148s6.992-5.718,9.144-9.429c.3-3.238.039-9.923-5.726-10.191C359.657,278.421,357.629,275.292,348.8,275.292Z" transform="translate(-326.692 -275.292)" fill="#5e2e2e"/>
      <path id="Trazado_10420" data-name="Trazado 10420" d="M343.6,285.719a5.792,5.792,0,0,0,3.289,7.077l1.47-7.077S345.028,280.019,343.6,285.719Z" transform="translate(-313.058 -262.872)" fill="#ffd0ca"/>
      <path id="Trazado_10421" data-name="Trazado 10421" d="M349.885,296.634a9.6,9.6,0,0,1,7.888,2.88c2.939,3.217,14.537,17.047,16.681,19.6.129,3.276-2.507,8.158-4.764,11.094-6.516-.679-14.828-10.773-18.187-15.642C347.5,308.761,340.893,303.971,349.885,296.634Z" transform="translate(-309.863 -241.789)" fill="#ffd0ca"/>
      <path id="Trazado_10422" data-name="Trazado 10422" d="M356.816,327.084c-4.879-5.994-10.309-12.028-11.977-19.309-1.982-8.639,1.068-11.653,1.068-11.653,5.09-3.69,11.606-2.9,17.425,6.13,1.964,3.047,4.537,6.969,6.92,10.863C368.536,319.616,362.954,324.631,356.816,327.084Z" transform="translate(-311.779 -245.77)" fill="#f79826"/>
      <path id="Trazado_10423" data-name="Trazado 10423" d="M333.454,309.214c2.329-6.38,11.254-11.586,11.555-18.31a4.729,4.729,0,0,0-.479-2.079,39.842,39.842,0,0,0,7.337,2.416c-2.332,2.851-1.922,16.957-6.858,27.119-5.489,11.3-2.293,13.361-2.293,13.361S327.075,326.675,333.454,309.214Z" transform="translate(-331.046 -254)" fill="#5e2e2e"/>
      <path id="Trazado_10424" data-name="Trazado 10424" d="M336.454,287.749s-.144,5.139.661,6c1.089,1.168,5.162,2.486,6.65,1.907a7.646,7.646,0,0,0,3.327-4.372C341.835,290.855,336.454,287.749,336.454,287.749Z" transform="translate(-323.935 -255.691)" fill="#fab234"/>
      <path id="Trazado_10425" data-name="Trazado 10425" d="M356.622,323.026s9.589-10.018,10.906-12.471,1.215-4.4,1.557-7.242-2.077-6.8-.942-7.543c2.941-1.922,3.181,3.729,4.272,5.2s3.605.96,3.605.96,2.2-6.338,3.482-8.076c2.869,2.635,2.332,4.552.865,8.827a39.339,39.339,0,0,1-5.849,9.831c-1.812,2.262-3.881,8.889-7.046,14.1s-3.49,7.962-8.027,8.094-5.595-1.374-5.747-3.94S356.622,323.026,356.622,323.026Z" transform="translate(-296.795 -246.079)" fill="#ffd0ca"/>
      <path id="Trazado_10426" data-name="Trazado 10426" d="M349.622,295.914l.108-2.694a63.187,63.187,0,0,1,6.48-4.681c2.154-1.163,3.42-.916,2.71,1.32-.556,1.75-2.6,2.666-3.739,3.14s-2.658,6.12-4.182,5.834S349.622,295.914,349.622,295.914Z" transform="translate(-303.206 -255.524)" fill="#ffd0ca"/>
    </g>
  </g>
</svg>
